<?xml version="1.0" encoding="UTF-8"?>
<svg xmlns="http://www.w3.org/2000/svg" viewBox="0 0 446.62 443.63">
  <defs>
    <style>
      .cls-1 {
        opacity: .7;
      }

      .cls-2 {
        fill: #fff;
      }

      .cls-3 {
        fill: #dbdbdb;
      }

      .cls-4 {
        fill: #d3766a;
      }

      .cls-5, .cls-6 {
        opacity: .5;
      }

      .cls-7 {
        fill: #37474f;
      }

      .cls-8 {
        fill: #455a64;
      }

      .cls-9 {
        fill: #020100;
      }

      .cls-10 {
        fill: #a6a6a6;
      }

      .cls-11 {
        fill: #c7c7c7;
      }

      .cls-12 {
        fill: #ff9abb;
      }

      .cls-13 {
        fill: #f291b8;
      }

      .cls-14 {
        opacity: .4;
      }

      .cls-15, .cls-16 {
        opacity: .3;
      }

      .cls-17 {
        fill: #eb9481;
      }

      .cls-6, .cls-18 {
        fill: #ebebeb;
      }

      .cls-19 {
        opacity: .1;
      }

      .cls-20 {
        fill: #f7a9a0;
      }

      .cls-21 {
        fill: #f9c784;
      }

      .cls-22 {
        fill: #ad6359;
      }

      .cls-23, .cls-16 {
        fill: #263238;
      }
    </style>
  </defs>
  <g id="Background_Complete" data-name="Background Complete">
    <g>
      <g>
        <path class="cls-3" d="m57.88,272.47v170.71h103.19v-170.71H57.88Zm9.37,63.27h84.46v44.44h-84.46v-44.44Zm0-55.02h84.46v44.44h-84.46v-44.44Z"/>
        <rect class="cls-18" x="11.22" y="272.47" width="46.66" height="170.7" transform="translate(69.1 715.63) rotate(180)"/>
        <rect class="cls-18" x="131.64" y="280.71" width="20.07" height="44.44" transform="translate(283.34 605.86) rotate(180)"/>
        <g>
          <path class="cls-18" d="m151.43,432.71h-84.43v-42.87h84.43v42.87Zm-83.93-.5h83.43v-41.87h-83.43v41.87Z"/>
          <rect class="cls-18" x="100.88" y="402.01" width="16.67" height="6.09" transform="translate(218.43 810.11) rotate(180)"/>
        </g>
        <rect class="cls-18" x="131.64" y="335.74" width="20.07" height="44.44" transform="translate(283.34 715.91) rotate(180)"/>
        <g>
          <rect class="cls-10" x="65.38" y="352.63" width="40.97" height="14.12" transform="translate(445.55 273.83) rotate(90)"/>
          <rect class="cls-3" x="81.44" y="362.11" width="8.84" height="14.12" transform="translate(455.04 283.31) rotate(90)"/>
          <rect class="cls-3" x="83.24" y="347.96" width="5.24" height="14.12" transform="translate(440.88 269.16) rotate(90)"/>
        </g>
        <g>
          <rect class="cls-18" x="50.23" y="238.13" width="35.68" height="34.29" transform="translate(136.13 510.56) rotate(180)"/>
          <rect class="cls-11" x="36.67" y="238.13" width="13.56" height="34.29" transform="translate(86.89 510.56) rotate(180)"/>
          <polygon class="cls-11" points="85.91 255.28 50.23 255.28 78.09 256.16 85.91 255.28"/>
          <polygon class="cls-11" points="50.23 268.28 85.91 268.28 58.04 269.16 50.23 268.28"/>
          <polygon class="cls-11" points="85.91 245.69 63.31 245.69 83.4 246.41 85.91 245.69"/>
          <polygon class="cls-11" points="50.23 263.23 72.83 263.23 52.74 263.95 50.23 263.23"/>
          <polygon class="cls-11" points="77.35 241.88 51.86 241.88 56.1 242.31 77.35 241.88"/>
          <polygon class="cls-11" points="82.44 258.95 56.95 258.95 61.2 259.39 82.44 258.95"/>
          <polygon class="cls-18" points="66.76 248.96 50.23 248.96 47.27 250.11 66.76 248.96"/>
          <polygon class="cls-18" points="90.46 248.96 73.93 248.96 70.97 250.11 90.46 248.96"/>
          <polygon class="cls-18" points="69.24 264.37 85.78 264.37 88.74 265.52 69.24 264.37"/>
          <polygon class="cls-11" points="50.23 260.46 36.95 260.46 33.99 261.61 50.23 260.46"/>
          <polygon class="cls-11" points="45.59 255.28 35.29 255.28 36.67 254.34 45.59 255.28"/>
        </g>
        <g>
          <rect class="cls-18" x="91.4" y="290.86" width="35.68" height="34.29" transform="translate(218.48 616.02) rotate(180)"/>
          <rect class="cls-11" x="77.84" y="290.86" width="13.56" height="34.29" transform="translate(169.24 616.02) rotate(180)"/>
          <polygon class="cls-11" points="127.08 308.01 91.4 308.01 119.27 308.89 127.08 308.01"/>
          <polygon class="cls-11" points="91.4 321.01 127.08 321.01 99.21 321.89 91.4 321.01"/>
          <polygon class="cls-11" points="127.08 298.42 104.48 298.42 124.57 299.14 127.08 298.42"/>
          <polygon class="cls-11" points="91.4 315.96 114 315.96 93.91 316.68 91.4 315.96"/>
          <polygon class="cls-11" points="118.52 294.61 93.03 294.61 97.28 295.04 118.52 294.61"/>
          <polygon class="cls-11" points="123.61 311.68 98.12 311.68 102.37 312.12 123.61 311.68"/>
          <polygon class="cls-18" points="107.94 301.69 91.4 301.69 88.44 302.84 107.94 301.69"/>
          <polygon class="cls-18" points="131.64 301.69 115.1 301.69 112.15 302.84 131.64 301.69"/>
          <polygon class="cls-18" points="110.42 317.1 126.95 317.1 129.91 318.25 110.42 317.1"/>
          <polygon class="cls-11" points="91.4 313.19 78.12 313.19 75.16 314.34 91.4 313.19"/>
          <polygon class="cls-11" points="86.76 308.01 76.47 308.01 77.84 307.07 86.76 308.01"/>
        </g>
        <g>
          <rect class="cls-18" x="67.25" y="336.47" width="11.55" height="43.71"/>
          <g>
            <path class="cls-2" d="m73.03,345.09c1.33,0,2.41-1.08,2.41-2.41s-1.08-2.41-2.41-2.41-2.41,1.08-2.41,2.41,1.08,2.41,2.41,2.41Z"/>
            <path class="cls-10" d="m73.03,344.06c.76,0,1.38-.62,1.38-1.38s-.62-1.38-1.38-1.38-1.38.62-1.38,1.38.62,1.38,1.38,1.38Z"/>
          </g>
          <rect class="cls-2" x="67.71" y="362.19" width="10.63" height="11.55" transform="translate(441 294.94) rotate(90)"/>
        </g>
        <g>
          <rect class="cls-11" x="92.92" y="371.15" width="43.71" height="9.09"/>
          <g>
            <path class="cls-2" d="m101.54,375.69c0-1.33-1.08-2.41-2.41-2.41s-2.41,1.08-2.41,2.41,1.08,2.41,2.41,2.41,2.41-1.08,2.41-2.41Z"/>
            <path class="cls-10" d="m100.51,375.69c0-.76-.62-1.38-1.38-1.38s-1.37.62-1.37,1.38.62,1.38,1.37,1.38,1.38-.62,1.38-1.38Z"/>
          </g>
          <rect class="cls-2" x="119.11" y="371.15" width="10.63" height="9.09"/>
        </g>
      </g>
      <g>
        <rect class="cls-18" x="309.48" y="169.36" width="92.54" height="273.81"/>
        <rect class="cls-3" x="305" y="164.61" width="101.5" height="4.75"/>
        <rect class="cls-18" x="406.5" y="164.61" width="31.92" height="4.75"/>
        <rect class="cls-3" x="402.02" y="169.36" width="31.35" height="273.81"/>
        <g>
          <path class="cls-11" d="m392.07,381.9h-72.63v-41.06h72.63v41.06Zm-72.38-.25h72.13v-40.56h-72.13v40.56Z"/>
          <g>
            <rect class="cls-11" x="345.62" y="352.85" width="14.14" height="8.12"/>
            <path class="cls-11" d="m364.06,360.49h-14.39v-7.15h14.39v7.15Zm-14.14-.25h13.89v-6.65h-13.89v6.65Z"/>
          </g>
        </g>
        <g>
          <path class="cls-11" d="m392.07,433.46h-72.63v-41.06h72.63v41.06Zm-72.38-.25h72.13v-40.56h-72.13v40.56Z"/>
          <g>
            <rect class="cls-11" x="345.62" y="404.41" width="14.14" height="8.12"/>
            <path class="cls-11" d="m364.06,412.04h-14.39v-7.15h14.39v7.15Zm-14.14-.25h13.89v-6.65h-13.89v6.65Z"/>
          </g>
        </g>
        <g>
          <path class="cls-11" d="m392.07,330.35h-72.63v-41.06h72.63v41.06Zm-72.38-.25h72.13v-40.56h-72.13v40.56Z"/>
          <g>
            <rect class="cls-11" x="345.62" y="301.3" width="14.14" height="8.12"/>
            <path class="cls-11" d="m364.06,308.93h-14.39v-7.15h14.39v7.15Zm-14.14-.25h13.89v-6.65h-13.89v6.65Z"/>
          </g>
        </g>
        <g>
          <path class="cls-11" d="m392.07,278.79h-72.63v-41.06h72.63v41.06Zm-72.38-.25h72.13v-40.56h-72.13v40.56Z"/>
          <g>
            <rect class="cls-11" x="345.62" y="249.74" width="14.14" height="8.12"/>
            <path class="cls-11" d="m364.06,257.38h-14.39v-7.15h14.39v7.15Zm-14.14-.25h13.89v-6.65h-13.89v6.65Z"/>
          </g>
        </g>
        <g>
          <rect class="cls-10" x="319.56" y="186.46" width="72.38" height="40.81"/>
          <g>
            <g>
              <rect class="cls-11" x="329.79" y="176.01" width="55.1" height="39.94"/>
              <polygon class="cls-11" points="349.26 171.87 329.79 171.87 329.79 176.01 350.38 176.01 349.26 171.87"/>
            </g>
            <g>
              <polygon class="cls-10" points="384.75 215.95 329.65 215.95 325.4 179.32 380.5 179.32 384.75 215.95"/>
              <polygon class="cls-10" points="344.43 175.53 324.96 175.53 325.4 179.32 345.99 179.32 344.43 175.53"/>
            </g>
          </g>
          <g>
            <rect class="cls-18" x="284.69" y="186.46" width="72.38" height="40.81"/>
            <path class="cls-11" d="m357.2,227.39h-72.63v-41.06h72.63v41.06Zm-72.38-.25h72.13v-40.56h-72.13v40.56Z"/>
          </g>
          <g>
            <rect class="cls-11" x="310.75" y="198.34" width="14.14" height="8.12"/>
            <path class="cls-11" d="m329.19,205.97h-14.38v-7.15h14.38v7.15Zm-14.13-.25h13.88v-6.65h-13.88v6.65Z"/>
          </g>
          <rect class="cls-3" x="357.25" y="192.57" width="34.69" height="34.69"/>
        </g>
      </g>
      <g>
        <rect class="cls-3" x="31.51" y="33.03" width="67.12" height="43.83"/>
        <rect class="cls-18" x="31.51" y="79.43" width="67.12" height="43.83"/>
        <g>
          <rect class="cls-2" x="38.15" y="87.85" width="6.53" height="6.53"/>
          <rect class="cls-11" x="46.04" y="87.85" width="6.53" height="6.53"/>
          <rect class="cls-2" x="53.92" y="87.85" width="6.53" height="6.53"/>
          <rect class="cls-2" x="61.81" y="87.85" width="6.53" height="6.53"/>
          <rect class="cls-2" x="69.69" y="87.85" width="6.53" height="6.53"/>
          <rect class="cls-2" x="77.58" y="87.85" width="6.53" height="6.53"/>
          <rect class="cls-2" x="85.47" y="87.85" width="6.53" height="6.53"/>
          <rect class="cls-2" x="38.15" y="95.79" width="6.53" height="6.53"/>
          <rect class="cls-2" x="46.04" y="95.79" width="6.53" height="6.53"/>
          <rect class="cls-2" x="53.92" y="95.79" width="6.53" height="6.53"/>
          <rect class="cls-2" x="61.81" y="95.79" width="6.53" height="6.53"/>
          <rect class="cls-11" x="69.69" y="95.79" width="6.53" height="6.53"/>
          <rect class="cls-2" x="77.58" y="95.79" width="6.53" height="6.53"/>
          <rect class="cls-2" x="85.47" y="95.79" width="6.53" height="6.53"/>
          <rect class="cls-2" x="38.15" y="103.73" width="6.53" height="6.53"/>
          <rect class="cls-2" x="46.04" y="103.73" width="6.53" height="6.53"/>
          <rect class="cls-2" x="53.92" y="103.73" width="6.53" height="6.53"/>
          <rect class="cls-2" x="61.81" y="103.73" width="6.53" height="6.53"/>
          <rect class="cls-2" x="69.69" y="103.73" width="6.53" height="6.53"/>
          <rect class="cls-2" x="77.58" y="103.73" width="6.53" height="6.53"/>
          <rect class="cls-2" x="85.47" y="103.73" width="6.53" height="6.53"/>
          <rect class="cls-2" x="38.15" y="111.68" width="6.53" height="6.53"/>
          <rect class="cls-2" x="46.04" y="111.68" width="6.53" height="6.53"/>
          <rect class="cls-11" x="53.92" y="111.68" width="6.53" height="6.53"/>
          <rect class="cls-2" x="61.81" y="111.68" width="6.53" height="6.53"/>
          <rect class="cls-2" x="69.69" y="111.68" width="6.53" height="6.53"/>
          <rect class="cls-2" x="77.58" y="111.68" width="6.53" height="6.53"/>
          <rect class="cls-2" x="85.47" y="111.68" width="6.53" height="6.53"/>
        </g>
        <g>
          <rect class="cls-11" x="34.14" y="74.77" width="2.55" height="6.74"/>
          <rect class="cls-11" x="40.07" y="74.77" width="2.55" height="6.74"/>
          <rect class="cls-11" x="46" y="74.77" width="2.55" height="6.74"/>
          <rect class="cls-11" x="51.93" y="74.77" width="2.55" height="6.74"/>
          <rect class="cls-11" x="57.87" y="74.77" width="2.55" height="6.74"/>
          <rect class="cls-11" x="63.8" y="74.77" width="2.55" height="6.74"/>
          <rect class="cls-11" x="69.73" y="74.77" width="2.55" height="6.74"/>
          <rect class="cls-11" x="75.66" y="74.77" width="2.55" height="6.74"/>
          <rect class="cls-11" x="81.59" y="74.77" width="2.55" height="6.74"/>
          <rect class="cls-11" x="87.52" y="74.77" width="2.55" height="6.74"/>
          <rect class="cls-11" x="93.45" y="74.77" width="2.55" height="6.74"/>
        </g>
        <path class="cls-23" d="m66.14,37.52c0,.59-.48,1.07-1.07,1.07s-1.07-.48-1.07-1.07.48-1.07,1.07-1.07,1.07.48,1.07,1.07Z"/>
      </g>
      <g>
        <circle class="cls-18" cx="381.52" cy="56.18" r="36.52" transform="translate(279.54 428.08) rotate(-83.04)"/>
        <circle class="cls-3" cx="383.19" cy="56.99" r="34.84"/>
        <circle class="cls-2" cx="383.19" cy="56.99" r="32.64"/>
        <path class="cls-6" d="m415.09,50.06c-14.86,9.01-39.3,23.78-52.95,31.88-3.83-3.23-6.9-7.33-8.92-11.99l45.16-41.86c8.41,4.43,14.65,12.42,16.71,21.97Z"/>
        <path class="cls-6" d="m415.81,58.13c-.12,3.73-.88,7.3-2.16,10.61l-40.71,19.25c-1.79-.59-3.51-1.33-5.14-2.21,12.3-7.11,34.77-20.04,48.01-27.65Z"/>
        <g>
          <rect class="cls-11" x="382.87" y="26.72" width=".63" height="4.95"/>
          <rect class="cls-11" x="368.97" y="30.44" width=".63" height="4.95" transform="translate(33.01 189.04) rotate(-30)"/>
          <rect class="cls-11" x="358.8" y="40.62" width=".63" height="4.95" transform="translate(142.21 332.53) rotate(-59.99)"/>
          <rect class="cls-11" x="352.91" y="56.68" width="4.95" height=".63"/>
          <rect class="cls-11" x="356.64" y="70.58" width="4.95" height=".63" transform="translate(12.67 189.08) rotate(-30)"/>
          <rect class="cls-11" x="366.81" y="80.75" width="4.95" height=".63" transform="translate(114.6 360.49) rotate(-60.03)"/>
          <rect class="cls-11" x="382.87" y="82.32" width=".63" height="4.95"/>
          <rect class="cls-11" x="396.77" y="78.59" width=".63" height="4.95" transform="translate(12.67 209.4) rotate(-30)"/>
          <rect class="cls-11" x="406.95" y="68.42" width=".63" height="4.95" transform="translate(142.21 388.13) rotate(-60)"/>
          <rect class="cls-11" x="408.51" y="56.68" width="4.95" height=".63"/>
          <rect class="cls-11" x="404.79" y="42.78" width="4.95" height=".63" transform="translate(33.01 209.38) rotate(-30)"/>
          <rect class="cls-11" x="394.61" y="32.6" width="4.95" height=".63" transform="translate(170.2 360.46) rotate(-60.03)"/>
        </g>
        <g>
          <polygon class="cls-11" points="383.66 28.96 384.74 59.19 381.64 59.16 382.82 28.95 383.66 28.96"/>
          <polygon class="cls-10" points="402.5 46.45 382.15 59.43 380.67 56.71 402.09 45.71 402.5 46.45"/>
          <circle class="cls-11" cx="383.19" cy="56.99" r="1.06"/>
        </g>
      </g>
    </g>
  </g>
  <g id="Floor">
    <path class="cls-23" d="m0,443.17c143.06-.61,303.55-.62,446.62,0-143.07.62-303.55.61-446.62,0h0Z"/>
  </g>
  <g id="Lines">
    <g>
      <path class="cls-23" d="m233.73,42.42c1.24-7.24,3.13-14.31,5.69-21.2-1.23,7.24-3.13,14.31-5.69,21.2h0Z"/>
      <path class="cls-23" d="m213.45,45.08c-4.25-5.99-7.91-12.33-10.96-19.01,4.25,5.99,7.9,12.34,10.96,19.01h0Z"/>
      <path class="cls-23" d="m200.98,61.31c-7.24-1.24-14.31-3.13-21.2-5.69,7.24,1.23,14.31,3.13,21.2,5.69h0Z"/>
      <path class="cls-23" d="m198.26,74.67c-4.1,3.16-8.56,5.73-13.35,7.7,4.1-3.16,8.56-5.73,13.35-7.7h0Z"/>
      <path class="cls-23" d="m259.49,77.02c4.95.62,9.73,1.9,14.33,3.85-4.95-.61-9.73-1.9-14.33-3.85h0Z"/>
      <path class="cls-23" d="m249.96,54.89c5.99-4.25,12.33-7.91,19.01-10.96-5.99,4.25-12.34,7.9-19.01,10.96h0Z"/>
      <path class="cls-23" d="m191.31,53.87c3.1.61,5.95,1.85,8.5,3.72-3.1-.6-5.95-1.85-8.5-3.72h0Z"/>
      <path class="cls-23" d="m247.04,22.7c-3.52,8.5-7.7,16.79-12.43,24.68,3.52-8.5,7.7-16.79,12.43-24.68h0Z"/>
      <path class="cls-23" d="m256.61,59.55c7.4-1.34,14.87-2,22.39-1.97-7.4,1.34-14.87,1.99-22.39,1.97h0Z"/>
      <path class="cls-23" d="m195.05,71.92c-5.86,2.53-11.93,4.41-18.2,5.62,5.86-2.53,11.93-4.4,18.2-5.62h0Z"/>
    </g>
  </g>
  <g id="Character_3" data-name="Character 3">
    <g>
      <g>
        <path class="cls-23" d="m307.19,70.64s-2.11-4.75-6.1-5.18c-3.99-.43-5.01,1.98-7.47,1.9-2.46-.08-7.39-1.8-10.39.08-3,1.88-3.04,6.91-4.49,8.13-1.45,1.22-5.34.67-6.95,4.11-1.86,3.99.25,7.01-.3,9.15-.92,3.56-4,5.99-2.85,10.6,1.24,4.96,5.22,5.64,7.52,7.62,2.21,1.9,1.77,6.8,7.3,8.21,5.53,1.41,7.69-1.83,11.22-2.46,3.53-.63,7.81,2.48,11.78.8,3.97-1.68,3.53-5.3,4.86-6.9,1.32-1.6,4.15-1.11,5.87-4.04,1.71-2.93-.52-6.31-.49-7.59.04-2.18,1.71-3.05,1.8-6.15.08-3.1-3.16-5.92-3.7-6.98-1.3-2.54,1.33-6.81-1.09-9.37-3.07-3.25-6.52-1.93-6.52-1.93Z"/>
        <path class="cls-23" d="m281.26,69.7c-.68,2.14-1.25,4.78-3.66,5.6-3.48.88-7.13,2.82-7.16,6.85-.21,2.23,1.26,4.39.89,6.72-.79,2.08-2.29,3.76-2.81,6.16-.38,1.44-.34,2.96.13,4.38-1.44-2.81-.39-6.15.99-8.78.17-.35.59-1.17.74-1.5.35-.78.15-1.59-.07-2.48-1.83-4.91-.57-9.84,4.92-11.36,1.4-.44,2.94-.53,3.95-1.69.94-1.08,1.42-2.59,2.08-3.92h0Z"/>
        <path class="cls-23" d="m303.29,114.08c5.8-.02,6.29-1.39,8.14-6.45.27-.62.91-1.02,1.47-1.29,2.05-.89,4.04-1.87,4.65-4.15.83-2.06-.16-4.31-.75-6.48.51,1.03.98,2.06,1.36,3.16.75,2.23.12,5.09-1.79,6.6-1.22,1.06-2.77,1.36-3.94,2.29-.37.54-.56,1.17-.82,1.82-1.34,4.26-4.14,5.23-8.33,4.5h0Z"/>
      </g>
      <g>
        <g>
          <path class="cls-22" d="m288.13,125.29c-13.95,15.1-42.1,39.89-48.19,29.63-8.48-14.27-12.79-43.57-14.06-54.33-.72-6.09,28.07-10.5,28.67-4.98.81,7.46,2.72,27.73,4.23,30.56.8,1.49,18.59-6.78,27.57-10.54,12.94-5.42,6.24,4.83,1.78,9.66Z"/>
          <g>
            <g>
              <path class="cls-22" d="m249.82,97.19c-.11-3.31-1.5-21.6-2.52-25.82-1.88-7.76-5.53-15.37-8.88-15.31-2.67.04-2.9,4.81-2.9,4.81,0,0-2.89-4.51-6.09-3.41-3.2,1.1-1.15,6.44-1.15,6.44,0,0-3.31-4.41-6.42-3.09-3.11,1.32-.15,6.35-.15,6.35,0,0-2.84-4.18-4.94-2.01-2.53,2.61,3.57,9.72,4.83,14.35.19.7,1.41,12.05,3.5,19.21,1.04,3.55,3.79,5.76,3.79,5.76l20.9-7.29Z"/>
              <g>
                <path class="cls-23" d="m221.34,67.11c4.47,5.24,5.52,8.3,6.49,15.02.02.13.22.13.21,0-.35-6.66-1.11-10.69-6.46-15.24-.26-.22-.46-.02-.24.23Z"/>
                <path class="cls-23" d="m227.98,63.68c3.68,6.17,4.57,9.57,5.53,16.62.01.1.18.09.18-.01-.36-7-.88-11.07-5.37-16.75-.2-.26-.51-.15-.34.14Z"/>
                <path class="cls-23" d="m235.57,61.1c2.96,6.31,4,10.02,3.87,16.99,0,.16.24.18.26.02.83-7.09-.44-11.74-3.93-17.08-.24-.36-.39-.33-.2.07Z"/>
              </g>
            </g>
            <path class="cls-22" d="m253.26,97.53s3.57-7.86,4.38-11.66c.81-3.8-1.4-19.06-4.72-18.77-4.29.37-4.75,9.43-4.4,13.9,0,0-9.92.85-11.66,7.28-1.74,6.43,16.41,9.24,16.41,9.24Z"/>
            <path class="cls-23" d="m248.43,77.78c.16,1.14.26,2.28.37,3.42l-.24.06c-4.32,1.17-8.42,3.28-11.64,6.41-1.11,1.02-2.01,2.22-2.93,3.45.64-1.38,1.4-2.75,2.44-3.91,3.04-3.53,7.46-5.8,12.05-6.47,0,0-.22.27-.22.27.04-1.08.09-2.15.18-3.23h0Z"/>
          </g>
        </g>
        <g>
          <path class="cls-21" d="m259.38,101.76l-34.99,11.32s8.39,43.93,15.39,46.21c11.16,3.64,36.61-18.89,46.23-29.09,9.62-10.2,15.88-22.82-1.58-14.54-15.07,7.14-24.04,10.65-24.35,10.38-.31-.27-.69-24.28-.69-24.28Z"/>
          <path class="cls-23" d="m260.04,125.27c.17,3.49-.07,6.99-.37,10.46-.14,1.72-.38,3.44-.61,5.15-.23,1.68-.52,3.41-.98,5.05-.02.06-.1.03-.1-.02.03-1.72.2-3.46.37-5.17.17-1.72.31-3.44.49-5.16.36-3.44.58-6.9,1.04-10.32.01-.11.16-.09.17.01Z"/>
          <path class="cls-23" d="m256.66,109.93c-1.6.39-3.18.91-4.76,1.39-1.58.48-3.16.98-4.73,1.5-3.14,1.04-6.27,2.09-9.39,3.18-.85.3-1.71.6-2.55.91-.91.34-1.77.79-2.68,1.11-.07.03-.03.13.04.11.77-.24,1.59-.37,2.37-.6.81-.23,1.61-.48,2.42-.74,1.57-.5,3.15-1.01,4.72-1.52,3.14-1.03,6.28-2.08,9.38-3.21,1.75-.64,3.54-1.23,5.25-1.98.1-.04.05-.19-.06-.16Z"/>
          <path class="cls-19" d="m286,130.2c-9.62,10.21-35.07,32.74-46.23,29.1-2.6-.85-5.39-7.45-7.87-15.41l62.97-28.83c.14.21.31.43.54.66-.39,3.35-4.46,9.23-9.41,14.48Z"/>
        </g>
      </g>
      <g>
        <g>
          <g>
            <path class="cls-22" d="m219.66,443.23c2.42.76,73.16-.77,75.75-2.49.99-.64-5.07-67.64-5.07-67.64l-44.86.86,5.1,44.82s-26.1,12.37-28.74,14.56c-2.62,2.19-4.6,9.15-2.17,9.9Z"/>
            <path class="cls-23" d="m219.66,443.23c2.42.75,73.16-.77,75.74-2.5.31-.2.41-7-.72-15.86-12.83,2.15-58.61,9.18-62.18,7.08-2.49-1.46-.29-3.75,1.75-5.28-5.85,2.91-11.3,5.72-12.43,6.66-2.62,2.19-4.59,9.15-2.17,9.9Z"/>
          </g>
          <g>
            <path class="cls-8" d="m249.32,408.03l44.04-.62s-8.73-105.49-8.36-107.52c.46-2.6,31.71-125.13,31.71-125.13h-42.03s-33.15,114.2-34.34,125.21c-1.93,17.77,8.98,108.06,8.98,108.06Z"/>
            <g>
              <path class="cls-23" d="m289.4,397.46c-2.6-.19-5.23-.16-7.84-.19-2.61-.03-5.22-.04-7.84-.02-5.22.05-10.44.13-15.67.28-1.43.04-2.86.08-4.28.15-1.53.07-3.05.33-4.57.39-.12,0-.11.18,0,.18,1.28.01,2.57.2,3.85.24,1.33.04,2.66.05,3.99.05,2.61,0,5.22,0,7.84-.03,5.22-.04,10.45-.11,15.66-.33,2.95-.12,5.92-.16,8.86-.45.17-.02.17-.26,0-.27Z"/>
              <path class="cls-23" d="m307.46,184.66c-3.76,13.32-7.2,26.76-10.57,40.18-3.37,13.43-6.73,26.87-10.07,40.3-1.67,6.72-3.34,13.44-5.01,20.16-1.63,6.54-3.52,13.12-3.92,19.88-.41,6.87.46,13.8,1.04,20.64.58,6.88,1.16,13.76,1.76,20.63,1.2,13.76,2.36,27.53,3.86,41.25.19,1.72.37,3.44.55,5.16.01.15.24.14.23,0-.91-13.77-1.86-27.52-2.96-41.28-.55-6.88-1.11-13.76-1.68-20.63-.57-6.86-1.37-13.75-1.58-20.64-.22-6.95,1.05-13.6,2.73-20.32,1.64-6.58,3.29-13.15,4.94-19.72,3.36-13.43,6.73-26.87,10.06-40.31,3.73-15.05,7.46-30.12,10.75-45.27.02-.08-.1-.11-.13-.03Z"/>
            </g>
            <path class="cls-23" d="m316.71,174.76s-13.41,52.57-22.79,89.57l-17.89-89.57h40.67Z"/>
          </g>
        </g>
        <g>
          <g>
            <path class="cls-22" d="m272.49,443.39c2.42.76,73.16-.77,75.75-2.49.99-.64-3.53-67.68-3.53-67.68l-43.44.86,2.14,44.86s-26.1,12.37-28.74,14.56c-2.62,2.19-4.6,9.15-2.17,9.9Z"/>
            <path class="cls-23" d="m272.49,443.39c2.42.75,73.16-.77,75.74-2.5.31-.2.24-6.82,0-15.87-12.83,2.15-59.33,9.19-62.89,7.09-2.49-1.46-.29-3.75,1.75-5.28-5.85,2.91-11.3,5.72-12.43,6.66-2.62,2.18-4.59,9.15-2.17,9.9Z"/>
          </g>
          <g>
            <path class="cls-8" d="m276.03,174.74s2.37,29.72,7.27,37.18c0,0,4.81,1.68,12.19,6.07,0,0,.17,79.51.11,84.28-.2,17.86,7.23,104.86,7.23,104.86l44.41-.42s-11.49-151.17-14.17-185.78c0,0,2.02-11.06,1.59-16.64-1.06-13.54-6.17-29.54-6.17-29.54l-52.47-.02Z"/>
            <g>
              <path class="cls-23" d="m291.66,203.01c-.17-1.11-.33-2.22-.5-3.34-.31-2.04-.73-4.06-1.08-6.09-.81-4.61-1.65-9.23-2.68-13.79-.02-.11-.21-.08-.2.03.18,1.84.39,3.68.65,5.52.26,1.84.44,3.68.7,5.52.51,3.64,1.02,7.28,1.64,10.9.24,1.4,1.11,3.9-.9,4.33-1.59.34-2.76-1.22-3.22-2.53-.57-1.6-.77-3.36-1.07-5.03-.33-1.84-.62-3.68-.88-5.53-.57-4.02-1.19-8.03-1.85-12.04-.02-.12-.2-.08-.2.03.13,4.13.35,8.22.89,12.32.26,1.96.55,3.91.88,5.86.31,1.82.54,3.78,1.35,5.46.63,1.32,1.81,2.51,3.32,2.67.03,0,.06,0,.09,0-.03.03-.06.06-.06.12.02.65,0,1.31.08,1.96.07.64.2,1.29.32,1.92.12.64.28,1.3.5,1.91.11.3.22.6.35.88.14.3.34.53.52.81.07.11.21.04.21-.07h0c0-.11-.01-.21-.01-.32,0-.02,0-.04,0-.06,0,0,0,0,0,0,0-.19,0-.38-.04-.57-.05-.31-.12-.62-.19-.93-.14-.62-.31-1.24-.47-1.85-.17-.61-.3-1.23-.46-1.85-.16-.63-.37-1.25-.52-1.89,0-.03-.03-.04-.04-.06,1.18.01,2.38-.61,2.8-1.76.31-.83.17-1.7.04-2.55Z"/>
              <path class="cls-23" d="m299.09,218.97c-1.27-1.04-2.77-1.91-4.18-2.75-1.53-.92-3.12-1.75-4.76-2.47-3.21-1.39-6.52-2.35-9.84-3.44-.1-.03-.16.13-.07.17,3.21,1.28,6.29,2.97,9.39,4.49,1.53.75,3.07,1.46,4.63,2.14,1.56.69,3.11,1.49,4.71,2.08.12.04.22-.14.12-.22Z"/>
              <path class="cls-23" d="m320.32,194.16c-2.26,0-10.08-.57-12.39-3.16-1.34-1.5-2.23-3.38-2.89-5.21-.75-2.07-1.29-4.18-1.75-6.33-.02-.11-.18-.07-.18.03-.07,2.41.27,4.87.91,7.19.55,1.98,1.28,4.2,2.88,5.59,1.69,1.46,3.98,1.98,6.13,2.24,2.44.3,4.87.23,7.29-.1.15-.02.15-.24,0-.24Z"/>
              <path class="cls-23" d="m270.72,194.77c.7,0,2.74-1.44,2.99-1.81,1.71-2.57,2.12-10.75,2.27-12.9,0-.11.05-.07.06.03.02,2.41-.08,4.87-.28,7.19-.17,1.98-.39,4.2-.89,5.59-.52,1.46-3.4,2.47-4.14,2.14-.05-.02-.05-.24,0-.24Z"/>
              <path class="cls-23" d="m345.29,398.11c-2.6-.19-5.23-.16-7.84-.19-2.61-.03-5.22-.04-7.84-.02-5.22.05-10.44.13-15.67.28-1.43.04-2.86.08-4.28.15-1.53.07-3.05.33-4.57.39-.12,0-.11.18,0,.18,1.28.01,2.57.2,3.85.24,1.33.04,2.66.05,3.99.05,2.61,0,5.22,0,7.84-.03,5.22-.04,10.45-.11,15.66-.33,2.95-.12,5.92-.16,8.86-.45.17-.02.17-.26,0-.27Z"/>
              <path class="cls-23" d="m339.87,392.33s.02,0,.03,0c.3-.01.53-.27.51-.57l-13.88-172.15c.13-.75,2.95-10.37,3.21-15.28.27-5.19-5.1-25.43-5.33-26.29-.08-.29-.38-.46-.66-.38-.29.08-.46.37-.38.66.06.21,5.55,20.93,5.3,25.96-.26,5.08-3.19,15.13-3.2,15.21,0,.04,13.87,172.33,13.87,172.33.01.29.25.51.54.51Z"/>
            </g>
          </g>
        </g>
      </g>
      <g>
        <g>
          <path class="cls-21" d="m275.32,158.13l-2.83,17.24,57.72-.09s-11.17-48.89-20.64-58.85c-7.52-7.92-16.2-7.19-21.65-1.49-1.38,1.44-15.15,22.12-16.78,30.59-1.42,7.47,4.18,12.59,4.18,12.59Z"/>
          <g class="cls-19">
            <path class="cls-9" d="m288.05,156.13c-1.91-.02-3.85.07-5.81.55-.98.24-1.95.55-2.93.9-.49.17-.97.32-1.46.46-.5.14-1.03.27-1.51.2-.04,0-.07.11-.02.12.45.11.89.22,1.37.22.45,0,.92-.08,1.39-.19.99-.22,1.98-.53,2.98-.77,2-.49,4-.97,5.98-1.22.09-.01.12-.28.03-.28Z"/>
            <path class="cls-9" d="m296.92,158.61c-2.42-.38-4.9-.63-7.36-.7-1.23-.03-2.46.02-3.69.1-.59.04-1.18.09-1.76.16-.65.07-1.29.23-1.93.29-.07,0-.07.12,0,.12.61-.03,1.23.05,1.84.06.61,0,1.23.01,1.84.02,1.23.02,2.46.05,3.69.05,2.46,0,4.91.04,7.37.14.13,0,.13-.21,0-.23Z"/>
          </g>
        </g>
        <g>
          <path class="cls-22" d="m288.37,114.49c-.85,1.21-5.37,12.89-4.65,13.53.72.64,11.23,1.47,12.33.8,1.1-.68,4.35-14.8,4.32-15.73-.03-.92-12.01,1.4-12.01,1.4Z"/>
          <g>
            <g>
              <path class="cls-22" d="m300.38,113.09c-.18,1.11-4.89,8.59-9.91,8.71-1.63.04-2.24-8.87-2.24-8.87l-.19-.65-2.72-9.07,10.33-7.72,1.5-1.03s.58,2.53,1.27,5.69c.03.15.07.29.1.45.04.18.09.34.12.51.11.47.22.95.32,1.43.08.37.15.72.22,1.11.08.39.14.76.22,1.15.68,3.83,1.05,7.82.99,8.29Z"/>
              <path class="cls-23" d="m298.42,100.15c-2.11,7.52-7.76,10.93-10.37,12.13l-2.72-9.07,10.33-7.72,1.5-1.03s.58,2.53,1.27,5.69Z"/>
            </g>
            <g>
              <path class="cls-22" d="m276.22,83.01c-6.88,15.12,1.4,20.95,4.66,22.43,2.96,1.34,13.22,5.54,21.62-8.79,8.41-14.33,3.55-22.31-3.06-25.74-6.61-3.43-16.34-3.03-23.23,12.1Z"/>
              <g>
                <path class="cls-23" d="m279.16,82.77c.38.09.75.12,1.13.17.44.06.78.15,1.19-.05.22-.11.34-.45.25-.68-.2-.52-.71-.73-1.23-.83-.57-.1-1.03-.04-1.53.24-.49.27-.31,1.01.19,1.14Z"/>
                <path class="cls-23" d="m289.71,86.27c-.35-.18-.64-.4-.97-.61-.37-.24-.69-.39-.87-.82-.1-.23.04-.56.25-.68.49-.27,1.02-.09,1.47.18.5.29.8.65,1,1.19.19.52-.43.97-.89.74Z"/>
                <g>
                  <g>
                    <path class="cls-23" d="m280.48,86.17s-.1.02-.11.07c-.34,1.08-.9,2.26-1.99,2.28-.03,0-.05.06-.01.06,1.24.24,1.97-1.33,2.12-2.41Z"/>
                    <path class="cls-23" d="m279.91,84.72c-1.67-.73-3,2.67-1.45,3.35,1.53.66,2.86-2.74,1.45-3.35Z"/>
                  </g>
                  <path class="cls-23" d="m279.11,84.67c-.34.08-.73.3-1.06.19-.38-.12-.51-.6-.61-1.04-.01-.05-.05-.03-.07.02-.27.64-.32,1.4.25,1.77.52.34,1.16-.06,1.57-.64.08-.11.06-.33-.08-.3Z"/>
                </g>
                <g>
                  <g>
                    <path class="cls-23" d="m286.64,88.62s.06.08.05.12c-.43,1.05-.74,2.32.09,3.03.03.02,0,.07-.03.06-1.11-.6-.68-2.28-.1-3.21Z"/>
                    <path class="cls-23" d="m288,87.86c1.75.5.62,3.97-1.01,3.51-1.6-.46-.46-3.93,1.01-3.51Z"/>
                  </g>
                  <path class="cls-23" d="m288.65,88.33c.21.27.38.7.7.83.37.15.78-.13,1.14-.41.04-.03.06,0,.04.06-.2.67-.64,1.29-1.32,1.21-.62-.07-.86-.78-.8-1.5.01-.13.17-.29.25-.18Z"/>
                </g>
                <path class="cls-23" d="m283.71,97.3c-.32.2-.67.5-1.07.44-.39-.05-.8-.33-1.12-.54-.03-.02-.08,0-.06.05.19.49.74.89,1.27.91.52.02.86-.35,1.09-.78.03-.06-.05-.1-.09-.07Z"/>
                <path class="cls-23" d="m280.28,92.07s-.69,1.56-.91,2.33c-.02.07.16.16.41.25.01,0,.02.01.03,0,1.29.6,2.79.52,3.93-.35.07-.06,0-.17-.08-.14-1.22.45-2.39.33-3.6,0,0-.23,1.27-2.63,1.15-2.68-.41-.16-1.32-.11-1.85-.1,1.34-3.29,3.19-6.35,4.47-9.64.04-.12-.12-.2-.19-.11-2.17,3.06-3.79,6.82-5.26,10.18-.19.42,1.55.29,1.9.25Z"/>
                <g>
                  <path class="cls-23" d="m279.95,94.38s.39,1.24,1.26,1.95c.32.26.7.45,1.16.49.93.08,1.23-.7,1.31-1.43.07-.6-.02-1.16-.02-1.16,0,0-1.66.73-3.71.15Z"/>
                  <path class="cls-12" d="m281.21,96.33c.32.26.7.45,1.16.49.93.08,1.23-.7,1.31-1.43-.95-.23-2.08.08-2.47.94Z"/>
                </g>
              </g>
              <g>
                <path class="cls-23" d="m302.19,97.51c-3.06-2.68-2.16-6.43-2.16-6.43-3.86-3.14-5.26-7.24-5.4-7.66.01.36.11,2.97.19,4.29-9.62-4.81-10.54-13.49-10.54-13.49-4.24,2.35-5.5,4.26-6.28,5.17,0,0,1.71-6.26,6.11-9.51,5.39-3.99,10.46-1.49,10.46-1.49,0,0,8.57-.09,12.79,8.33,4.54,9.08-5.19,20.78-5.19,20.78Z"/>
                <path class="cls-23" d="m287.59,83.81c1.36,1.37,2.98,2.5,4.67,3.41.01,0,.02-.01.01-.02-2.63-1.63-4.77-3.87-6.17-6.65-.59-1.17-1.03-2.41-1.32-3.69-.29-1.34-.51-2.9-.24-4.26.02-.1-.14-.13-.16-.03-.28,1.44-.53,2.77-.34,4.24.18,1.4.62,2.77,1.29,4.01.6,1.11,1.37,2.1,2.26,3"/>
              </g>
              <g>
                <path class="cls-22" d="m299.57,96.73s5.15-3.68,6.94-1.67c1.79,2-3.29,8.18-6.24,8.23-2.95.05-3.04-2.68-3.04-2.68l2.35-3.87Z"/>
                <path class="cls-23" d="m305.01,96.79s.03.07-.01.07c-2.09.09-3.65,1.45-4.94,2.96.78-.48,1.65-.59,2.33.38.04.05-.04.11-.08.08-.69-.43-1.28-.49-1.99-.07-.51.3-.94.75-1.37,1.15-.14.13-.41-.06-.28-.22,0-.01.02-.02.03-.04.78-2.34,3.74-4.96,6.32-4.31Z"/>
              </g>
            </g>
          </g>
        </g>
      </g>
      <g>
        <path class="cls-21" d="m307.19,114.59c18.19,16.86,34.24,42.88,33.18,57.64-1.05,14.58-6.01,12.76-7.44,12.54-8.76-1.29-25.21-41.62-30.23-58.65-4.58-15.54,0-15.71,4.5-11.54Z"/>
        <g>
          <path class="cls-23" d="m322.15,172.45c-.87-1.92-1.77-3.82-2.61-5.75l-2.58-5.76c-1.7-3.85-3.43-7.68-5.07-11.55-1.71-3.84-3.34-7.72-4.96-11.6-.81-1.94-1.61-3.89-2.37-5.85-.8-1.95-1.51-3.93-2.23-5.91,1.01,4.09,2.41,8.09,3.87,12.04,1.47,3.95,3.11,7.84,4.75,11.72,1.72,3.85,3.44,7.69,5.3,11.48,1.86,3.78,3.77,7.54,5.9,11.18Z"/>
          <path class="cls-23" d="m303.99,131.08c-.3-.72-.67-1.36-1.04-2-.2-.32-.38-.64-.59-.95-.21-.31-.4-.63-.64-.94.09.78.41,1.49.79,2.15.4.65.86,1.26,1.48,1.74Z"/>
        </g>
      </g>
      <g>
        <g>
          <rect class="cls-21" x="252.21" y="141.25" width="39.52" height="51.45" transform="translate(-40.96 104.32) rotate(-20.23)"/>
          <rect class="cls-15" x="252.21" y="141.25" width="39.52" height="51.45" transform="translate(-40.96 104.32) rotate(-20.23)"/>
        </g>
        <g>
          <rect class="cls-11" x="253.94" y="140.13" width="18.73" height="5.68" transform="translate(-33.14 99.5) rotate(-20.16)"/>
          <polygon class="cls-11" points="267.13 138.54 264.96 139.34 264.06 136.88 258.8 138.81 259.7 141.27 257.54 142.06 255.89 137.59 265.51 134.05 267.13 138.54"/>
        </g>
      </g>
      <g>
        <path class="cls-22" d="m336.66,184.53c-5.89,3.32-15.57,1.54-41.52-5.22-3.59-.94-3.8-28.05.08-27.25,4.89,1.01,23.67,5.99,24.99,6.53,11.19,4.53,20.44,23.69,16.44,25.94Z"/>
        <g>
          <path class="cls-22" d="m305.22,156.34s-8.91-5.79-14.54-7.38c-7.53-2.13-14.91-.87-17.97-.15-6.39,1.49-20.8,9.52-19.21,14.07,1.44,4.12,15.76-4.82,15.76-4.82,0,0-16.1,6.71-13.46,11.36,2.64,4.65,18.67-6.69,18.67-6.69,0,0-16.39,7.27-12.91,11.63,2.63,3.29,17.73-6.15,17.73-6.15,0,0-14.05,6.35-11.48,9.85,2.83,3.87,17.31-3.97,17.31-3.97,8.01,7.81,15.18,8.08,20.2,7.8,1.22-.07-.1-25.55-.1-25.55Z"/>
          <g>
            <path class="cls-23" d="m274.68,155.38c-1.92.72-3.87,1.44-5.72,2.32-1.85.89-3.67,1.84-5.43,2.9-4.31,2.59-6.61,4.89-6.45,4.76,3.72-2.99,10.29-6.27,12.14-7.16,1.85-.89,3.65-1.87,5.49-2.75.05-.02,0-.09-.04-.07Z"/>
            <path class="cls-23" d="m278.01,162c-2.41,1.03-4.84,1.96-7.21,3.09-2.36,1.13-4.49,2.4-6.76,3.69-.17.1-.06.16.12.07,2.32-1.19,4.56-2.12,6.9-3.29,2.33-1.16,4.63-2.43,6.99-3.5.04-.02,0-.07-.03-.06Z"/>
            <path class="cls-23" d="m281.89,167.17c-3.77,1.38-7.27,3.45-10.67,5.57-.17.11-.02.17.16.07,3.51-1.92,6.25-3.45,10.55-5.51.07-.03.03-.16-.05-.13Z"/>
          </g>
        </g>
        <g>
          <path class="cls-21" d="m303.96,153.14l3.47,32.06s25.78,4.69,29.89-1.07c3.59-5.04-6.52-20.62-14.35-24.89-3.27-1.78-19-6.09-19-6.09Z"/>
          <path class="cls-23" d="m304.08,154.21l-.06-1.07-.07.06c2.66.85,5.32,1.68,7.97,2.56,2.65.85,5.29,1.74,7.88,2.74,1.29.5,2.59,1,3.78,1.66,1.2.66,2.32,1.46,3.4,2.32,2.13,1.75,3.93,3.89,5.43,6.25-1.23-2.51-2.94-4.81-5.05-6.69-1.04-.96-2.21-1.78-3.43-2.49-1.24-.71-2.55-1.23-3.85-1.77-2.62-.99-5.29-1.84-7.97-2.63-2.69-.75-5.39-1.46-8.12-2.05l-.08-.02v.08s.18,1.06.18,1.06Z"/>
          <path class="cls-23" d="m311.46,158.48c.07,1.61.29,3.23.45,4.83.17,1.61.35,3.21.56,4.81.41,3.2.84,6.41,1.31,9.6.13.87.26,1.75.4,2.62.15.93.43,1.85.57,2.78.01.07.12.06.11-.02-.09-.79-.06-1.59-.13-2.38-.07-.82-.16-1.64-.26-2.46-.19-1.6-.39-3.21-.59-4.81-.41-3.2-.83-6.41-1.34-9.6-.29-1.8-.53-3.63-.92-5.41-.02-.11-.17-.08-.16.02Z"/>
          <path class="cls-23" d="m307.11,182.35c.17.94.31,1.89.46,2.84l-.11-.12c6.4.94,12.85,1.68,19.32,1.69,2.15-.02,4.31-.12,6.45-.44-2.09.57-4.27.82-6.44.95-6.51.3-13.04-.52-19.39-1.93,0,0-.11-.02-.11-.02-.06-.99-.14-1.98-.18-2.97h0Z"/>
        </g>
      </g>
    </g>
  </g>
  <g id="Character_2" data-name="Character 2">
    <g>
      <g>
        <g>
          <g>
            <path class="cls-4" d="m242.77,443.3c-2.44.79-72.06-.1-74.69-1.82-1.01-.64-1.47-10.79-1.68-23.07,0-.13,0-.26,0-.38-.05-2.53-.08-5.14-.09-7.78,0-.36,0-.73-.01-1.09l3.37-36.12,44.95.46-2.96,35.78-.05,1.42-.28,7.41-.03.76s26.5,12.26,29.19,14.45c2.67,2.19,4.73,9.21,2.29,9.99Z"/>
            <path class="cls-18" d="m242.77,443.3c-2.44.79-72.06-.1-74.69-1.82-1.01-.64-1.47-10.79-1.68-23.07,0-.13,0-.26,0-.38-.05-2.53-.08-5.14-.09-7.78,0-.36,0-.73-.01-1.09l45.36.12-.05,1.42-.28,7.41-.03.76s26.5,12.26,29.19,14.45c2.67,2.19,4.73,9.21,2.29,9.99Z"/>
            <g>
              <path class="cls-21" d="m242.78,443.3c-1.26.41-20.17.37-38.66,0-3.72-.07-7.41-.16-10.94-.25-13.19-.36-24.08-.9-25.09-1.56-1-.63-1.46-10.5-1.67-22.56,0-.17-.01-.34-.01-.51,0-.13,0-.27-.01-.39h.05l44.87.08-.02.77s26.5,12.25,29.19,14.45c2.67,2.19,4.73,9.21,2.29,9.99Z"/>
              <path class="cls-5" d="m242.78,443.3c-1.26.41-20.17.37-38.66,0-3.72-.07-7.41-.16-10.94-.25-13.19-.36-24.08-.9-25.09-1.56-1-.63-1.46-10.5-1.67-22.56,0-.17-.01-.34-.01-.51,0-.13,0-.27-.01-.39h.05l44.87.08-.02.77s26.5,12.25,29.19,14.45c2.67,2.19,4.73,9.21,2.29,9.99Z"/>
              <g>
                <path class="cls-23" d="m242.02,440.59c-11.73-.44-59.09-1.1-70.73-.64-.09,0-.1.07,0,.07,11.62.69,58.99.96,70.72.76.25,0,.25-.18,0-.19Z"/>
                <path class="cls-23" d="m216.32,418.29c-4.61-.92-10.26-.28-13.84,2.96-.14.13.04.32.19.28,4.57-1.38,8.84-2.25,13.62-2.65.34-.03.36-.52.03-.58Z"/>
                <path class="cls-23" d="m219.63,420.34c-4.61-.92-10.26-.28-13.84,2.96-.14.13.04.32.19.27,4.57-1.38,8.84-2.25,13.62-2.65.34-.03.36-.52.03-.58Z"/>
                <path class="cls-23" d="m222.93,422.39c-4.61-.92-10.26-.28-13.84,2.96-.14.13.04.32.19.27,4.57-1.38,8.84-2.25,13.62-2.65.34-.03.36-.52.03-.58Z"/>
              </g>
              <path class="cls-19" d="m204.11,443.3c-3.72-.07-7.41-.16-10.94-.25-13.19-.36-24.08-.9-25.09-1.56-1-.63-1.46-10.5-1.67-22.56,0-.17-.01-.34-.01-.51,0-.13,0-.27-.01-.39h.05c6.15,4.31,27.81,18.73,37.67,25.28Z"/>
            </g>
          </g>
          <g>
            <path class="cls-21" d="m214,418.13h-50.14s10.07-118.49,9.68-120.54c-.5-2.62-3.46-14.47-7.41-29.96-1.24-4.85-2.57-10.04-3.95-15.43-3.74-14.57-7.87-30.49-11.46-44.35-5.39-20.76-9.6-31.45-9.6-31.45h42.49s34.93,100.01,36.32,120.68c1.21,18.03-5.93,121.05-5.93,121.05Z"/>
            <path class="cls-1" d="m214,418.13h-50.14s10.07-118.49,9.68-120.54c-.5-2.62-3.46-14.47-7.41-29.96-1.24-4.85-2.57-10.04-3.95-15.43-3.74-14.57-7.87-30.49-11.46-44.35-5.39-20.76-9.6-31.45-9.6-31.45h42.49s34.93,100.01,36.32,120.68c1.21,18.03-5.93,121.05-5.93,121.05Z"/>
            <g>
              <path class="cls-23" d="m211.78,409.58c-7.66-.16-5.46-.22-13.12-.29-3.75-.04-28.38-.24-31.88.34-.08.01-.08.14,0,.16,3.5.58,28.13.36,31.88.32,7.66-.08,5.46-.14,13.12-.3.14,0,.14-.22,0-.22Z"/>
              <path class="cls-23" d="m182.97,290.44c-1.65-7.25-4.1-14.35-6.24-21.46-4.35-14.45-8.73-28.9-13.13-43.34-2.2-7.22-12.39-34.23-13.4-37.83-.41-1.46-.63-.66-.11,1.2,1.06,3.74,18.48,57.3,22.88,71.97,2.21,7.36,4.43,14.71,6.64,22.06,1.06,3.51,2.09,7.05,2.71,10.67.65,3.78.68,7.6.45,11.42-.48,7.67-1.37,15.33-2.07,22.99-.71,7.67-1.42,15.34-2.12,23.01-1.41,15.26-2.82,31.92-4.19,47.18-.17,1.94-.34,3.87-.49,5.81-.05.65.93.6,1-.02,1.65-15.09,2.91-31.62,4.32-46.74,1.41-15.04,2.81-30.08,4.22-45.13.35-3.78.75-7.56.76-11.36,0-3.52-.44-7-1.22-10.43Z"/>
            </g>
            <path class="cls-23" d="m178.78,176.4c-2.94,22.82-8.56,60.19-12.65,91.24-9.59-37.61-25.02-91.23-25.02-91.23h37.67Z"/>
          </g>
        </g>
        <g>
          <g>
            <path class="cls-4" d="m190.92,442.47c-2.44.8-72.06.16-74.7-1.54-1.01-.63-1.51-10.78-1.76-23.06,0-.13,0-.26,0-.38-.06-2.53-.1-5.14-.11-7.78,0-.36,0-.73-.02-1.09-.17-17.73,1.11-36.12,1.11-36.12l45.51.29-1.26,35.78-.05,1.42-.25,7.41-.02.76s26.54,12.16,29.24,14.35c2.68,2.18,4.76,9.19,2.32,9.98Z"/>
            <path class="cls-18" d="m190.92,442.47c-2.44.8-72.06.16-74.7-1.54-1.01-.63-1.51-10.78-1.76-23.06,0-.13,0-.26,0-.38-.06-2.53-.1-5.14-.11-7.78,0-.36,0-.73-.02-1.09l45.36-.05-.05,1.42-.25,7.41-.02.76s26.54,12.16,29.24,14.35c2.68,2.18,4.76,9.19,2.32,9.98Z"/>
            <g>
              <path class="cls-21" d="m190.92,442.47c-2.44.8-72.06.16-74.7-1.54-1.01-.63-1.51-10.78-1.76-23.06,0-.13,0-.26,0-.38l44.92-.09-.02.76s26.54,12.16,29.24,14.35c2.68,2.18,4.76,9.19,2.32,9.98Z"/>
              <path class="cls-5" d="m190.92,442.47c-2.44.8-72.06.16-74.7-1.54-1.01-.63-1.51-10.78-1.76-23.06,0-.13,0-.26,0-.38l44.92-.09-.02.76s26.54,12.16,29.24,14.35c2.68,2.18,4.76,9.19,2.32,9.98Z"/>
              <g>
                <path class="cls-23" d="m190.15,439.77c-11.73-.39-59.1-.88-70.73-.38-.09,0-.1.07,0,.07,11.62.65,58.99.75,70.73.5.25,0,.25-.18,0-.19Z"/>
                <path class="cls-23" d="m164.37,417.56c-4.61-.9-10.27-.25-13.82,3.01-.14.13.04.32.19.27,4.57-1.39,8.83-2.28,13.61-2.7.34-.03.35-.52.02-.58Z"/>
                <path class="cls-23" d="m167.69,419.6c-4.61-.9-10.27-.25-13.82,3.01-.14.13.04.32.19.27,4.57-1.39,8.83-2.28,13.61-2.7.34-.03.35-.52.02-.58Z"/>
                <path class="cls-23" d="m171,421.64c-4.61-.9-10.27-.25-13.82,3.01-.14.13.04.32.19.27,4.57-1.39,8.83-2.28,13.61-2.7.34-.03.35-.52.02-.58Z"/>
              </g>
            </g>
          </g>
          <g>
            <path class="cls-21" d="m183.31,176.4s-.98,14.9-5.63,31.01c-.37,1.33-.78,2.64-1.21,3.9,0,0-3.76,1.76-11.16,6.3,0,0-.49,16.36-.97,34.6-.54,20.4-1.1,43.14-.98,47.97.43,18.05-2.23,117.31-2.23,117.31l-50.13.21s9.04-110.85,8.97-117.46c-.1-10.63,2.17-53.3,4.11-87.56,0,0-2.35-7.86-2.2-10.42.96-15.64,4.6-25.84,4.6-25.84h56.82Z"/>
            <path class="cls-1" d="m183.31,176.4s-.98,14.9-5.63,31.01c-.37,1.33-.78,2.64-1.21,3.9,0,0-3.76,1.76-11.16,6.3,0,0-.49,16.36-.97,34.6-.54,20.4-1.1,43.14-.98,47.97.43,18.05-2.23,117.31-2.23,117.31l-50.13.21s9.04-110.85,8.97-117.46c-.1-10.63,2.17-53.3,4.11-87.56,0,0-2.35-7.86-2.2-10.42.96-15.64,4.6-25.84,4.6-25.84h56.82Z"/>
            <g>
              <path class="cls-23" d="m159.41,408.57c-7.66-.13-5.46-.2-13.12-.24-3.75-.02-28.38-.12-31.88.47-.08.01-.08.14,0,.16,3.5.56,28.13.24,31.88.19,7.66-.11,5.46-.16,13.12-.35.14,0,.14-.22,0-.22Z"/>
              <path class="cls-23" d="m130.71,183.68c-.92,27.97-1.89,50.51-3.13,78.47-1.25,28.05-2.93,56.1-5.27,84.08-1.31,15.63-2.54,37.63-4.22,53.23-.01.1.15.14.16.04,3.64-27.75,5.67-62.05,7.46-89.97,1.79-27.92,3-55.88,3.94-83.84.53-15.81.94-26.21,1.41-42.02,0-.23-.34-.2-.35.02Z"/>
              <path class="cls-23" d="m132.64,201.85c1.23-.32,2.55-.42,3.81-.62,1.02-.16,2.03-.34,3.03-.56,1.89-.42,3.81-1.04,5.35-2.25,2.5-1.96,5.37-11.86,5.72-12.49.6-1.08.78-.13.78-.03,0,1.15-2.63,9.82-3.65,11.44-1.86,2.96-5.19,4.15-8.51,4.57-.95.12-1.91.19-2.87.24-1.19.07-2.45.17-3.63.03-.18-.02-.23-.28-.04-.33Z"/>
              <g>
                <path class="cls-23" d="m176.31,211.55c-4.89,1.68-9.61,4.07-14.12,6.58-.18.1-.06.37.13.29,4.76-2.04,9.61-4,14.24-6.3.36-.18.12-.7-.26-.57Z"/>
                <path class="cls-23" d="m177.75,178.97c-.01-.16-.3-.2-.3-.02.04,5.65-.32,10.61-.8,15.89-.22,2.45-2.19,15.99-6.44,15-.71-.17-1.07-.87-1.19-1.94-.13-1.29.35-2.87.56-4.15.47-2.83.85-5.68,1.09-8.54.45-5.34.48-10.69-.17-16.02-.02-.17-.27-.16-.27.02,0,7.4-.19,14.78-1.29,22.11-.53,3.52-2.31,8.82,1.38,9.37,3.75.55,6.18-8.33,6.64-10.76,1.28-6.78,1.33-14.1.79-20.96Z"/>
                <path class="cls-23" d="m170.32,210.2c-.38.91-.69,1.86-.96,2.81-.2.74-.48,1.54-.4,2.31.02.15.21.16.29.06.5-.63.71-1.5.99-2.24.32-.87.66-1.73.96-2.61.2-.58-.66-.89-.89-.32Z"/>
              </g>
            </g>
          </g>
        </g>
      </g>
      <g>
        <g>
          <g>
            <path class="cls-4" d="m162.37,119.39c8.61,17.34,29.75,47.8,38.02,40.2,12.37-11.37,21.25-39.51,24.3-49.36,1.71-5.52-25.99-11.57-27.49-6.56-2.14,7.12-6.92,23.74-9.04,25.91-1.11,1.14-14.5-12.67-21.62-18.45-10.26-8.33-6.91,2.72-4.16,8.26Z"/>
            <g>
              <g>
                <path class="cls-4" d="m203.05,106.77c-.19-3.11-.51-20.38.08-24.43,1.07-7.44,3.83-14.9,6.97-15.14,2.51-.2,3.14,4.25,3.14,4.25,0,0,2.31-4.48,5.4-3.74,3.09.75,1.64,5.94,1.64,5.94,0,0,2.71-4.43,5.74-3.47,3.03.96.7,5.94.7,5.94,0,0,2.29-4.17,4.45-2.32,2.6,2.22-2.48,9.42-3.26,13.88-.12.68-.25,11.42-1.59,18.32-.66,3.42-3.05,5.74-3.05,5.74l-20.23-4.98Z"/>
                <g>
                  <path class="cls-23" d="m227.09,76.06c-3.73,5.31-4.44,8.27-4.76,14.65,0,.12-.19.14-.2.01-.26-6.27.1-10.12,4.71-14.86.23-.23.42-.06.25.19Z"/>
                  <path class="cls-23" d="m220.57,73.43c-2.9,6.11-3.44,9.37-3.71,16.07,0,.09-.16.1-.17,0-.28-6.59-.15-10.45,3.55-16.17.17-.26.46-.18.33.1Z"/>
                  <path class="cls-23" d="m213.22,71.68c-2.22,6.18-2.87,9.75-2.13,16.27.02.15-.21.19-.24.04-1.4-6.58-.63-11.04,2.17-16.36.19-.36.33-.34.19.05Z"/>
                </g>
              </g>
              <path class="cls-4" d="m199.85,107.4s-4.04-7.05-5.13-10.54c-1.09-3.49-.37-17.99,2.77-18.01,4.05-.03,5.29,8.42,5.35,12.64,0,0,9.38-.08,11.58,5.8,2.2,5.87-14.57,10.11-14.57,10.11Z"/>
              <path class="cls-23" d="m202.64,88.46c.19,1,.33,2.01.47,3.01l-.25-.25c4.37.21,8.72,1.95,11.88,5,1.08.99,1.91,2.22,2.62,3.46-.98-1.06-1.94-2.11-3.07-2.96-3.29-2.64-7.32-4.25-11.46-4.98,0,0-.25-.04-.25-.04,0-1.08,0-2.16.06-3.25h0Z"/>
            </g>
          </g>
          <g>
            <path class="cls-7" d="m194.58,105.74l28.63,19.49s-19.2,37.48-26.13,37.69c-11.04.34-28.09-26.76-34.08-38.52-6-11.76-8.32-24.82,5.28-12.73,11.73,10.44,18.91,15.98,19.26,15.82.35-.16,7.05-21.75,7.05-21.75Z"/>
            <path class="cls-23" d="m187.76,126.81c-1.07,3.11-1.78,6.33-2.44,9.55-.33,1.6-.57,3.21-.81,4.82-.23,1.58-.43,3.22-.45,4.82,0,.06.09.06.1,0,.43-1.56.73-3.18,1.03-4.77.3-1.6.63-3.19.92-4.8.59-3.2,1.3-6.39,1.79-9.6.02-.1-.12-.12-.15-.03Z"/>
            <path class="cls-23" d="m194.87,113.84c1.35.77,2.64,1.67,3.94,2.52,1.3.85,2.59,1.72,3.88,2.6,2.56,1.77,5.12,3.54,7.65,5.36.69.5,1.38.99,2.07,1.5.73.54,1.4,1.18,2.13,1.72.06.04,0,.13-.06.09-.64-.42-1.33-.75-1.98-1.16-.67-.42-1.33-.86-1.99-1.31-1.29-.87-2.58-1.74-3.86-2.63-2.56-1.76-5.12-3.54-7.63-5.38-1.42-1.04-2.87-2.05-4.23-3.18-.08-.07,0-.18.09-.13Z"/>
            <path class="cls-19" d="m162.99,124.39c6,11.77,23.03,38.86,34.07,38.53,2.57-.09,6.84-5.31,11.19-11.85l-49.28-42.72c-.18.15-.39.31-.66.46-.53,3.13,1.59,9.52,4.67,15.57Z"/>
          </g>
        </g>
        <g>
          <path class="cls-18" d="m122.13,195.28c.17.18,70.48-2.92,71.08-3.67.85-1.06-21.28-73.38-28.94-82.45-1.64-1.94-6.76-2.26-11.06-1.52-1.19.2-2.32.49-3.3.84-.02.01-.06.02-.11.04-.99.37-1.83.82-2.39,1.31-11.59,10.18-17.46,41.16-19.36,51.36-3.14,16.81-6.53,33.45-5.92,34.08Z"/>
          <path class="cls-7" d="m153.22,107.65s14.35,26.15,15.73,34.21c1.38,8.06,2.19,56.71,2.19,56.71l-54.35,2.52s8.2-28.8,8.23-30.61c0,0,6.22-33.22,13.25-47.63,7.98-16.37,14.95-15.21,14.95-15.21Z"/>
          <path class="cls-7" d="m164.72,108.78s10.42,27.23,11.05,29.83c.63,2.59,13.29,58.7,13.29,58.7l6.34-4.07-6.86-23.28s-18.24-54.7-23.82-61.18Z"/>
        </g>
        <g>
          <g>
            <path class="cls-4" d="m164.68,117.88c-3.29.78-11.29-3.99-13.64-8.7-.16-.32.98-11.17,1.07-13.71.02-.52,15.73,4.45,15.73,4.45,0,0-1.76,5.25-1.9,9.66,0,.37.02.71.07,1.04,0,.05.02.11.02.17.25,1.98,2.17,6.24-1.35,7.08Z"/>
            <path class="cls-23" d="m166.02,110.63c0,.05,0,.11,0,.17-.5.05-1.04.06-1.63.02-9.34-.56-11.37-12.34-11.73-15.33,2.81.51,15.17,4.42,15.17,4.42,0,0-1.76,5.25-1.9,9.67,0,.37.02.71.08,1.04Z"/>
          </g>
          <g>
            <path class="cls-4" d="m146.51,77.38c-1.01,5.8,3.94,21.59,8.36,24.69,6.41,4.51,15.91,3.84,19.49-3.64,3.47-7.25-3.35-27.7-8.2-30.43-7.14-4.01-18.15.81-19.65,9.38Z"/>
            <path class="cls-16" d="m174.37,98.43c-3.58,7.47-13.08,8.15-19.49,3.64-1.79-1.26-3.67-4.61-5.21-8.52l2.66-6.84s2.55,4.47,4.84,5.6c4.1,2.02,10.04.5,11.38-3.01l1.84-.25s3.31,1.91,4.41-1.43c.73,4.33.75,8.34-.44,10.82Z"/>
            <path class="cls-23" d="m149.18,91.22c2.47.11,3.3-2.17,3.56-3.76.26-1.58-2.29-10.28-1.67-12.71.62-2.43,2.76-4.19,4.8-4.07,2.04.12,6.02,1.54,7.4,1.08,1.38-.46.08-3.07,1.06-3.29,2.16-.5,5.67,4.29,6.61,6.57,0,0-2.06-10.5-13.53-8.57-10.25,1.73-11.24,9.01-11.42,12.25-.33,6.21,3.19,12.5,3.19,12.5Z"/>
            <g>
              <path class="cls-4" d="m152.47,89.64s-4.39-4.68-6.57-3.04c-2.18,1.64,1.65,8.79,4.58,9.43,2.92.63,3.56-2.06,3.56-2.06l-1.57-4.32Z"/>
              <path class="cls-23" d="m147.05,88.62s-.04.07,0,.08c2.06.51,3.34,2.16,4.33,3.93-.68-.64-1.53-.92-2.39-.09-.05.04.01.12.07.1.77-.29,1.37-.23,2,.33.45.4.79.93,1.14,1.41.12.16.42.02.32-.17,0-.01-.01-.03-.02-.04-.31-2.49-2.74-5.68-5.44-5.55Z"/>
            </g>
            <g>
              <g>
                <path class="cls-23" d="m163.12,84.68s-.07.08-.05.12c.36,1.05.6,2.32-.26,2.97-.03.02,0,.07.03.06,1.12-.53.79-2.21.28-3.15Z"/>
                <path class="cls-23" d="m161.82,83.86c-1.75.4-.83,3.87.8,3.51,1.6-.36.67-3.84-.8-3.51Z"/>
              </g>
              <g>
                <path class="cls-23" d="m169.4,83.2s.1.03.11.07c.25,1.09.72,2.29,1.79,2.39.03,0,.04.06,0,.06-1.23.15-1.84-1.45-1.91-2.52Z"/>
                <path class="cls-23" d="m170.06,81.82c1.7-.59,2.76,2.84,1.19,3.39-1.55.54-2.61-2.9-1.19-3.39Z"/>
              </g>
              <path class="cls-23" d="m160.48,83.57c.49-.12.92-.32,1.39-.49.53-.2.98-.3,1.32-.78.19-.26.11-.72-.13-.92-.54-.48-1.25-.4-1.9-.19-.71.23-1.19.58-1.59,1.2-.39.6.26,1.34.91,1.18Z"/>
              <path class="cls-23" d="m170.6,79.12c-.5.05-.97.01-1.48,0-.57,0-1.02.05-1.51-.28-.26-.18-.34-.64-.2-.91.35-.63,1.04-.8,1.72-.83.74-.03,1.32.14,1.91.59.57.43.21,1.35-.45,1.41Z"/>
              <path class="cls-23" d="m164.61,94.94c.32.18.67.46,1.07.39.38-.07.78-.35,1.09-.58.03-.02.07,0,.06.04-.17.49-.69.9-1.21.95-.51.04-.86-.31-1.1-.73-.03-.06.04-.1.09-.08Z"/>
              <path class="cls-23" d="m165.1,91.37c.85.77,1.87,1.05,2.88.98.45-.03.9-.13,1.33-.29.09-.03.17-.06.24-.1.08-.03.14-.06.23-.1.12-.05.16-.17.15-.3h0s-.02-.08-.04-.12h0s-.03-.1-.03-.1c-.2-.84-.61-2.07-.61-2.07.34.07,2.07.35,1.93-.07-1.17-3.53-2.47-7.45-4.38-10.72-.06-.11-.23-.04-.19.08.99,3.44,2.58,6.67,3.62,10.11-.54-.06-1.44-.19-1.87-.06-.11.07.85,2.38.91,2.76,0,0,0,.02,0,.04-1.35.55-2.51.41-4.11-.17-.1-.04-.16.06-.08.12Z"/>
              <g>
                <path class="cls-23" d="m168.74,92.11s-.54,1.12-1.47,1.67c-.34.2-.73.33-1.16.3-.89-.06-1.07-.84-1.04-1.53.02-.57.18-1.1.18-1.1,0,0,1.47.92,3.48.66Z"/>
                <path class="cls-13" d="m167.27,93.78c-.34.2-.73.33-1.16.3-.89-.06-1.07-.84-1.04-1.53.93-.08,1.95.36,2.2,1.23Z"/>
              </g>
            </g>
          </g>
          <g>
            <polygon class="cls-18" points="166.08 110.01 165.12 116.85 151.22 104.9 150.45 108.77 164.29 122.74 165.4 117.62 168.8 120.44 167.87 112.88 166.08 110.01"/>
            <path class="cls-23" d="m150.45,108.77c4.75,4.52,9.39,9.14,14,13.8l-.39.11,1.14-5.11.07-.33.26.22,3.37,2.86-.26.14c-.29-2.52-.53-5.05-.78-7.58.39,2.64.79,5.28,1.14,7.93l-.31-.25-3.44-2.78.33-.11-1.09,5.12-.09.42c-4.72-4.75-9.4-9.54-13.97-14.43h0Z"/>
          </g>
          <path class="cls-7" d="m150.52,109.21l-.27-4.29s7.24,5.86,7.87,6.92c.63,1.06,2.6,12.78,2.6,12.78,0,0-8.49-10.58-10.2-15.4Z"/>
        </g>
        <g>
          <g>
            <path class="cls-4" d="m141.29,134.44c-7.39-11.06-14.18-25.01-23.11-40.63-9.96-17.43-18.42-35.46-20.49-39.25-2.66-4.87,27.44-7.39,28.75-3.81.84,2.29,7.71,19.63,13.94,35.47,6.23,15.84,9.55,33.58,11.97,44.92,2.8,13.09-5.62,11.46-11.07,3.31Z"/>
            <g>
              <path class="cls-4" d="m93.69,46.43c.87,5.69,7.2,16.65,9.74,18.7,2.54,2.05,21.52-8.09,22.08-11.39.56-3.31-3.85-22.26-8.17-26.24-4.32-3.98-24.55,13.03-23.65,18.93Z"/>
              <g>
                <path class="cls-4" d="m122.77,34.96c-2.39,1.89-3.82-.17-3.82-.17,0,0,2.78,5.23.45,7.67-2.25,2.35-5.33-1.38-5.55-1.64.14.28,2.58,5.15-.02,7.36-2.7,2.3-5.15-1.97-5.3-2.25.05.31.71,4.35-1.65,5.59-4.04,2.12-5.99-8.19-9.13-10.14,0,0-3.91,4.94-4.06,5.06,0,0-2.06-9.76.81-13.85,1.51-2.15,3.82-1.17,3.82-1.17,0,0-1.01-3.08.98-4.88,1.02-.92,3.41-.11,3.41-.11,0,0-.71-2.5,1.16-3.99,1.49-1.2,3.65-.2,3.65-.2,0,0-1.06.16,1.83-1.8,4.99-3.37,11.57,10.59,14.18,11.1,1.29.25.28,2.61-.77,3.43Z"/>
                <g>
                  <path class="cls-23" d="m107.88,22.34s0-.1.05-.07c4.73,2.9,9.03,7.53,11.17,12.67.07.17-.09,1-.18.82-2.26-4.6-6.57-9.6-11.04-13.42Z"/>
                  <path class="cls-23" d="m102.67,26.34s.02-.12.08-.09c4.85,3.01,9.56,8.36,11.33,14.58.06.21-.1.47-.19.23-1.49-4.05-7.18-11.3-11.22-14.72Z"/>
                  <path class="cls-23" d="m108.5,46.4c-1.93-5.9-5.55-10.59-9.97-14.88-.06-.06.03-.13.09-.1,2.73,1.51,5.26,4.53,7.03,7.05,1.7,2.41,2.74,4.93,3.06,7.86.01.11-.17.19-.21.07Z"/>
                </g>
                <path class="cls-23" d="m119.05,34.82c.08.2-.57.02-.49.23.83,2.24,2.11,6.31.44,7.4-1.34.87-3.43-.33-4.06-1.11l-1.57-1.95.8,2.38c.35,1.04.57,2.18.56,3.27,0,1.09-.3,2.17-1.05,2.8-.77.68-1.77.82-2.62.26-.86-.52-1.58-1.46-2.08-2.39l-1.41-2.61.48,2.91c.13.79.17,1.65.09,2.45-.08.8-.3,1.6-.77,2.15-.46.54-1.22.84-1.88.65-.69-.19-1.32-.79-1.85-1.41-1.08-1.29-1.9-2.83-2.79-4.32-.44-.75-.88-1.5-1.35-2.23-.48-.72-.99-1.48-1.74-1.94.69.53,1.1,1.32,1.53,2.06.41.76.79,1.54,1.17,2.32.76,1.56,1.54,3.12,2.62,4.56.56.69,1.18,1.42,2.17,1.76,1.02.34,2.15-.09,2.8-.86.67-.78.92-1.74,1.03-2.65.1-.92.08-1.81-.06-2.73l-.93.31c.59,1.11,1.3,2.12,2.43,2.85.56.36,1.29.57,2,.47.72-.09,1.33-.43,1.83-.87,1.04-.93,1.34-2.34,1.33-3.55-.01-1.25-.26-2.42-.67-3.59l-.77.43c.83.96,3.02,2.55,5.27,1.47,2.72-1.85.1-7.53-.45-8.53Z"/>
              </g>
              <g>
                <path class="cls-4" d="m125.52,53.74s6.05-14.74,4.26-19.82c-1.8-5.08-13.46-7.71-17.86-7.99-6.08-.39-5.74,4.01-3.19,6.09,2.96,2.41,8.4,4.4,8.78,4.55,0,0-7.03,6.15-5.91,12.86,1.12,6.71,13.93,4.31,13.93,4.31Z"/>
                <path class="cls-23" d="m120.38,27.65c-3.44-.72-7.08-1.71-10.56-1.27-2.67.53-3.16,2.79-1.36,4.7.74.83,1.75,1.48,2.74,2.13,2.23,1.43,4.69,2.5,7.22,3.2-2.94,2.07-5.25,5.12-6.32,8.58-.33,1.07-.53,2.19-.63,3.33-.14-3.44,1.17-6.89,3.32-9.59.72-.92,1.5-1.75,2.45-2.5l.15.75c-2.41-.63-4.62-1.68-6.71-2.97-1.52-1-3.25-2.15-3.96-3.98-.89-2.15.82-4.14,2.95-4.37,3.69-.32,7.25.85,10.7,1.99h0Z"/>
              </g>
            </g>
          </g>
          <g>
            <path class="cls-7" d="m99.81,67.23l30.03-15.62s11.17,28.67,14.69,38.59c3.52,9.91,7.75,34.73,8.81,43.8,1.05,9.07-5.38,9.65-11.54,1.88-6.16-7.77-21.16-36.71-21.84-37.51-.67-.8-20.16-31.13-20.16-31.13Z"/>
            <path class="cls-23" d="m117.88,66.18c-1.88,1.03-3.74,2.1-5.59,3.16-.89.51-1.79,1.02-2.66,1.56-.94.58-1.95,1.11-2.85,1.75-.06.05-.02.13.06.11,1.03-.41,2.01-.98,3.01-1.46.93-.44,1.83-.93,2.75-1.4,1.9-.99,3.8-1.98,5.67-3.01,3.76-2.07,7.44-4.24,11.11-6.46.09-.05.02-.19-.08-.14-3.84,1.9-7.65,3.84-11.42,5.89Z"/>
            <g>
              <path class="cls-23" d="m137.83,72.31c3.22,8.1,6.86,16.09,9.2,24.49,2.03,8.49,3.52,17.08,4.62,25.74-1.64-7.54-3.69-18.14-5.56-25.5-2.24-8.4-5.78-16.39-8.26-24.73h0Z"/>
              <path class="cls-23" d="m149.98,112.09c1.1,1.86,1.9,3.86,2.39,5.97-1.11-1.86-1.9-3.86-2.39-5.97h0Z"/>
            </g>
          </g>
        </g>
      </g>
    </g>
  </g>
  <g id="Character_4" data-name="Character 4">
    <g>
      <g>
        <g>
          <g>
            <path class="cls-17" d="m398.4,372.45s.72,45.29.72,45.32c-.11,8.49-.36,15.93-.85,19.76,0,.02,0,.04,0,.06-.18,1.45-.4,2.37-.66,2.61-.02.02-.03.04-.05.05-2.55,1.68-70.4,2.77-72.78,2.01-2.39-.75-.4-7.6,2.19-9.74,2.62-2.14,28.4-14.18,28.4-14.18l-.29-45.91h43.32Z"/>
            <path class="cls-2" d="m399.29,408.66s-.17,9.08-.17,9.11c-.11,8.49-.36,15.93-.85,19.76,0,.02,0,.04,0,.06-.27,1.43-.5,2.37-.66,2.61-.02.02-.03.04-.05.05-2.55,1.68-70.4,2.77-72.78,2.01-2.39-.75-.4-7.6,2.19-9.74,2.62-2.14,28.4-14.18,28.4-14.18l.04-9.25,43.88-.44Z"/>
            <g>
              <g>
                <path class="cls-23" d="m351.22,418.33c4.53-.7,10.01.16,13.34,3.48.13.13-.05.31-.2.26-4.4-1.54-8.51-2.56-13.15-3.17-.33-.04-.32-.52,0-.57Z"/>
                <path class="cls-23" d="m347.91,420.19c4.53-.7,10.01.16,13.34,3.47.13.13-.05.31-.2.26-4.4-1.54-8.51-2.56-13.15-3.17-.33-.04-.32-.52,0-.57Z"/>
                <path class="cls-23" d="m344.6,422.05c4.53-.7,10.01.16,13.34,3.47.13.13-.05.31-.2.26-4.4-1.54-8.51-2.56-13.14-3.17-.33-.04-.32-.52,0-.57Z"/>
              </g>
              <path class="cls-21" d="m324.77,442.28c2.38.76,70.2.91,72.76-.78.98-.62,1.43-11.76,1.59-23.73,0-.13,0-.25,0-.38l-43.78.22.03.74s-25.78,12.03-28.4,14.18c-2.59,2.14-4.58,8.99-2.2,9.74Z"/>
              <path class="cls-23" d="m325.5,439.63c11.43-.47,57.59-1.26,68.93-.85.09,0,.09.07,0,.07-11.32.71-57.48,1.13-68.92.97-.24,0-.24-.18,0-.19Z"/>
              <path class="cls-19" d="m358.81,417.72l-25.47,24.93c-4.85-.09-8.08-.22-8.57-.38-2.38-.76-.4-7.6,2.2-9.74,2.61-2.14,28.4-14.19,28.4-14.19l-.03-.74,3.34-.02.13.13Z"/>
            </g>
          </g>
          <g>
            <path class="cls-23" d="m400.69,417.2l-49.47.58s-1.14-83.72-1.09-110.38c.06-30.45,4.62-121.29,4.62-121.29l36.7.36s5.81,12.88,7.99,28.68c.58,4.24-.08,16.61-1.55,22.26l-1.31,74,4.11,105.8Z"/>
            <path class="cls-7" d="m358.03,364.33c-.44-13.22-.7-29.45-.93-42.68-.46-26.45-.39-52.92.21-79.37.33-14.84.88-29.68,1.46-44.51,0-.17-.25-.16-.26,0-1.67,26.55-2.46,53.15-2.75,79.75-.29,26.46-.04,55.93,1.01,82.37.59,14.84,1.34,29.69,2.6,44.49.01.13.21.13.2,0-.47-13.35-1.09-26.7-1.53-40.05Z"/>
            <path class="cls-7" d="m357.73,408.23c9.86-.67,19.78-.68,29.66-.49,2.79.05,5.58.13,8.38.27.1,0,.1.15,0,.16-9.86.61-19.78.73-29.66.53-2.79-.06-5.59-.14-8.37-.3-.11,0-.1-.16,0-.16Z"/>
          </g>
        </g>
        <g>
          <g>
            <path class="cls-17" d="m331.22,375.79s-.17,42.6-.17,42.63c-.11,8.49-.36,15.93-.85,19.76,0,.02,0,.04,0,.06-.18,1.45-.4,2.37-.66,2.61-.02.02-.03.04-.05.05-2.55,1.68-70.4,2.77-72.78,2.01-2.39-.75-.4-7.6,2.19-9.74,2.62-2.14,28.4-14.18,28.4-14.18l2.49-43.09,41.42-.12Z"/>
            <path class="cls-2" d="m331.22,409.31s-.17,9.08-.17,9.11c-.11,8.49-.36,15.93-.85,19.76,0,.02,0,.04,0,.06-.27,1.43-.5,2.37-.66,2.61-.02.02-.03.04-.05.05-2.55,1.68-70.4,2.77-72.78,2.01-2.39-.75-.4-7.6,2.19-9.74,2.62-2.14,28.4-14.18,28.4-14.18l.04-9.25,43.88-.44Z"/>
            <g>
              <g>
                <path class="cls-23" d="m283.14,418.98c4.53-.7,10.01.16,13.34,3.47.13.13-.05.31-.2.26-4.4-1.54-8.51-2.56-13.14-3.17-.33-.04-.32-.52,0-.57Z"/>
                <path class="cls-23" d="m279.83,420.84c4.53-.7,10.01.16,13.34,3.47.13.13-.05.31-.2.26-4.4-1.54-8.51-2.56-13.15-3.17-.33-.04-.32-.52,0-.57Z"/>
                <path class="cls-23" d="m276.52,422.7c4.53-.7,10.01.16,13.34,3.48.13.13-.05.31-.2.26-4.4-1.54-8.51-2.56-13.14-3.17-.33-.04-.32-.52,0-.57Z"/>
              </g>
              <path class="cls-21" d="m256.7,442.93c2.38.76,70.47,1.18,73.02-.5.98-.62,1.16-12.03,1.32-24.01,0-.12,0-.25,0-.38l-43.78.22.03.74s-25.78,12.03-28.4,14.18c-2.59,2.14-4.58,8.99-2.2,9.74Z"/>
              <path class="cls-23" d="m257.42,440.08c11.44-.4,57.6-.92,68.93-.44.09,0,.09.07,0,.07-11.33.64-57.49.79-68.93.56-.24,0-.24-.18,0-.19Z"/>
            </g>
          </g>
          <g>
            <path class="cls-23" d="m369.69,233.24s-27.12,64.22-29.52,74.49c-2.27,9.69-6.28,110.69-6.28,110.69l-48.35-.37s7.11-102.09,8.01-112.45c1.18-13.6,13.02-44.62,25.58-77.78,5.32-14.05,12.47-27.83,16.23-41.9l54.96.54s-.72,24.82-12.19,42.66c0,0-5.14,2.32-8.43,4.12Z"/>
            <g>
              <path class="cls-7" d="m289.99,408.98c9.87-.48,19.79-.31,29.67.07,2.79.11,5.58.24,8.37.43.1,0,.09.15,0,.16-9.87.42-19.79.35-29.67-.04-2.79-.11-5.58-.25-8.37-.45-.11,0-.1-.16,0-.16Z"/>
              <g>
                <path class="cls-7" d="m357.07,234.34c2.54-.02,5.07-.17,7.58-.61,2.53-.45,4.89-1.26,7.36-1.96,2.33-.66,4.81-.74,7.2-1.1,2.43-.37,4.85-.98,7.07-2.03.1-.05.19.11.09.16-2.2,1.1-4.42,2.14-6.78,2.86-2.42.74-4.95.82-7.41,1.39-2.53.59-4.97,1.39-7.57,1.66-2.52.27-5.06.23-7.56-.2-.1-.02-.06-.17.03-.17Z"/>
                <path class="cls-7" d="m352.34,274.45c.53-1.5,1.03-3.01,1.59-4.5,1.13-3.02,2.29-6.05,3.54-9.05,2.5-5.96,4.85-11.95,7.49-17.88,1.49-3.36,2.84-6.76,4.59-10.06.04-.08.2-.04.17.04-.89,3.08-2.14,6.08-3.26,9.11-1.12,3.03-2.32,6.04-3.52,9.05-2.39,5.98-4.72,11.98-7.32,17.92-.73,1.66-1.48,3.32-2.26,4.97-.8,1.68-1.44,3.43-2.4,5.06-.05.09-.22.05-.19-.05.38-1.57,1.04-3.09,1.58-4.63Z"/>
              </g>
            </g>
            <path class="cls-7" d="m342.27,189.29c.03-.17.18-.06.16.06-.42,4.43-1.19,9.23-2.75,13.43,0,0-4.67,12.95-4.67,12.95l-9.37,25.88c-6.95,19.43-14.18,38.77-20.61,58.37-.78,2.16-1.03,4.36-1.21,6.65-2.21,24.89-5.46,70.53-7.56,95.98,0,.09-.24.2-.24,0,0-.4,1.8-27.44,1.8-27.44,1.14-16.34,2.62-38.86,3.92-54.91.36-4.57.72-9.15,1.14-13.72.17-2.3.45-4.66,1.23-6.85,9.11-27.52,20.33-56.84,30.45-84.13,0,0,4.9-12.86,4.9-12.86,1.67-4.27,2.3-8.88,2.81-13.41h0Z"/>
          </g>
        </g>
      </g>
      <g>
        <g>
          <g>
            <path class="cls-17" d="m341.98,131.47c3.06.24,9.62-5.29,12.26-10.04.18-.33-.3-3.78-.68-7.99-.22-2.56-.41-5.42-.39-8.04l-16.45,3.88s1.58,5.5,1.52,10.07c0,.38-.05.74-.12,1.07,0,.05-.02.11-.02.18-.35,2.04-.9,10.5,3.89,10.87Z"/>
            <path class="cls-23" d="m338.1,120.6c.51.08,1.07.11,1.69.1,9.12-.14,11.71-11.17,12.35-15.05l-15.41,3.64s1.58,5.5,1.52,10.06c0,.38-.05.73-.12,1.07,0,.05-.02.12-.02.18Z"/>
          </g>
          <g>
            <path class="cls-23" d="m336.6,77.36s-3.77,1-5.34,4.24c-1.57,3.24-1.33,9.1-1.33,9.1l6.67-13.34Z"/>
            <path class="cls-17" d="m354.22,102.6c-1.99,4.48-4.42,8.4-6.57,9.7-6.93,4.19-16.68,2.81-19.84-5.16-2.14-5.41,1.39-17.13,5.48-24.52,0,0,0,0,.01-.02,1.75-3.16,3.6-5.53,5.15-6.26,7.65-3.62,18.67,2.14,19.6,11.09.35,3.34-1.4,9.67-3.83,15.17Z"/>
            <g>
              <g>
                <path class="cls-23" d="m339.43,94.38s.07.08.05.13c-.42,1.07-.72,2.37.13,3.08.03.02,0,.08-.03.06-1.14-.6-.72-2.32-.15-3.27Z"/>
                <path class="cls-23" d="m340.8,93.59c1.79.49.68,4.04-.98,3.59-1.63-.45-.52-4,.98-3.59Z"/>
              </g>
              <g>
                <path class="cls-23" d="m333.33,92.65s-.1.03-.11.07c-.31,1.11-.85,2.33-1.96,2.38-.03,0-.05.06,0,.06,1.27.21,1.97-1.42,2.08-2.52Z"/>
                <path class="cls-23" d="m332.7,91.19c-1.73-.69-2.97,2.82-1.37,3.45,1.57.63,2.82-2.88,1.37-3.45Z"/>
              </g>
              <path class="cls-23" d="m342.65,92.49c-.45-.27-.81-.6-1.22-.91-.47-.36-.87-.59-1.07-1.17-.11-.31.11-.74.4-.87.68-.31,1.36-.01,1.94.39.63.44,1,.94,1.21,1.68.2.71-.67,1.24-1.25.88Z"/>
              <path class="cls-23" d="m331.92,89.22c.52.07,1.01.06,1.53.08.59.02,1.05.1,1.57-.22.28-.17.38-.64.24-.93-.33-.67-1.04-.87-1.74-.93-.76-.06-1.37.09-2,.52-.61.42-.28,1.38.4,1.48Z"/>
              <path class="cls-23" d="m337.23,104.86c-.34.18-.72.45-1.13.36-.39-.09-.79-.4-1.1-.65-.03-.02-.08,0-.07.04.15.51.67.96,1.21,1.03.53.07.91-.28,1.17-.7.04-.06-.04-.11-.09-.08Z"/>
              <path class="cls-23" d="m337.1,101.21c-.91.76-1.98,1-3.02.88-.46-.05-.93-.18-1.37-.36-.09-.03-.17-.07-.25-.11-.08-.03-.15-.07-.23-.11-.12-.06-.16-.19-.14-.32h0s.02-.08.05-.12h0s.03-.1.03-.1c.24-.85.73-2.12.73-2.12-.36.06-2.16.27-1.99-.16,1.36-3.59,2.88-7.59,5-10.88.06-.11.24-.03.19.09-1.17,3.51-2.96,6.78-4.19,10.28.56-.03,1.49-.13,1.93.02.11.07-.98,2.42-1.06,2.81,0,0,0,.02,0,.04,1.37.63,2.57.53,4.25,0,.1-.04.17.06.07.13Z"/>
              <g>
                <path class="cls-23" d="m333.35,101.46s.43,1.25,1.35,1.93c.34.25.73.44,1.19.45.95.04,1.22-.76,1.28-1.49.05-.61-.06-1.18-.06-1.18,0,0-1.66.8-3.75.28Z"/>
                <path class="cls-12" d="m334.69,103.4c.34.25.73.44,1.19.45.95.04,1.22-.76,1.28-1.49-.97-.2-2.1.15-2.47,1.04Z"/>
              </g>
            </g>
            <g>
              <path class="cls-23" d="m352.45,101.77c-2.98-.68-.87-8.83-.87-8.83,0,0-5.72-2.34-4.47-10.16,0,0-9.3.9-12.66-4.61-3.36-5.51,11.1-13.63,22.29.06,0,0,6.23,2.7,5.93,8.25-.3,5.55-6.62,16.11-10.22,15.29Z"/>
              <path class="cls-23" d="m347.53,81.96c.05-.07.17,0,.13.08-2.2,4.84-.06,10.26,5.45,11.23.19.03.15.3-.04.29-5.58-.41-9.24-6.97-5.55-11.59Z"/>
              <path class="cls-23" d="m345.15,70.82s0,.02,0,.02c-1.88-.19-3.82-.33-5.69.06-2.81.58-6.84,2.87-5.81,6.34,1.41,4.77,8,5.16,12.09,5.09.27,0,.33.37.06.42-4.3.79-12.5-.68-12.9-6.19-.45-6.11,8.21-6.61,12.26-5.74Z"/>
            </g>
            <g>
              <path class="cls-17" d="m350.92,99.57s4.87-4.51,6.99-2.67c2.13,1.85-2.34,8.95-5.4,9.39-3.06.44-3.53-2.38-3.53-2.38l1.93-4.34Z"/>
              <path class="cls-23" d="m356.59,98.91s.04.07,0,.08c-2.16.37-3.6,1.99-4.75,3.74.75-.61,1.64-.84,2.47.08.04.05-.02.12-.08.09-.78-.35-1.39-.34-2.08.2-.49.38-.88.9-1.28,1.38-.13.16-.43,0-.32-.2,0-.01.02-.03.03-.04.5-2.54,3.23-5.66,6.01-5.33Z"/>
            </g>
          </g>
          <path class="cls-18" d="m335.98,129l.11-8.96,17.96-7.4,1.94,6.34s-2.19,5.75-6.66,9.84c-4.46,4.09-9.77,4.27-13.36.18Z"/>
        </g>
        <path class="cls-7" d="m397.19,202.94c-.14.21-69.37,6.68-70.13,6.03-1.06-.92.11-67.65,9.74-84.79,2.41-4.29,13.57-8.59,18.73-5.74,18.05,9.97,42.16,83.75,41.66,84.5Z"/>
        <g>
          <g>
            <path class="cls-17" d="m347.82,128.27c-11.7-7.94-26.48-15.27-43.01-24.89-18.45-10.73-25.68-17.73-29.69-19.96-5.16-2.87-21.49,21.53-17.69,22.95,2.43.91,22.34,13.81,39.13,20.55,16.79,6.75,35.62,10.41,47.66,13.09,13.9,3.08,12.22-5.89,3.61-11.74Z"/>
            <g>
              <path class="cls-17" d="m275.86,87.56s-1.96-6.85-5.56-13.45c-2.01-3.68-6.02-9.69-8.73-11.72-4.06-3.04-22.98-13.14-25.53-8.61-2.31,4.1,15.05,10.72,15.05,10.72,0,0-16.92-8.23-18.79-2.77-1.87,5.45,18.73,10.32,18.73,10.32,0,0-17.58-8.06-18.61-2.13-.78,4.48,17.63,9.94,17.63,9.94,0,0-15.15-6.83-16.16-2.25-1.11,5.05,15.57,11.16,15.57,11.16-.6,12.05,4.11,14.56,7.98,17.6,1.03.81,18.43-18.82,18.43-18.82Z"/>
              <g>
                <path class="cls-23" d="m257.12,66.98c-1.95-1.04-3.92-2.1-5.96-2.96-2.04-.86-4.11-1.65-6.22-2.32-5.17-1.64-8.67-1.85-8.45-1.82,5.07.87,12.42,3.84,14.46,4.7,2.03.86,4.11,1.62,6.15,2.47.05.02.08-.05.03-.08Z"/>
                <path class="cls-23" d="m254.15,74.39c-2.55-1.22-5.04-2.52-7.64-3.63-2.59-1.1-5.15-1.92-7.81-2.84-.21-.07-.18.06.03.14,2.62,1.02,4.97,2.17,7.58,3.23,2.6,1.05,5.26,2.01,7.82,3.15.04.02.06-.04.02-.06Z"/>
                <path class="cls-23" d="m252.74,81.22c-3.8-2.06-7.98-3.42-12.11-4.65-.21-.06-.15.11.06.18,4.06,1.47,7.25,2.59,11.98,4.6.07.03.15-.09.07-.13Z"/>
              </g>
            </g>
          </g>
          <g>
            <path class="cls-7" d="m276.69,83.64l-16.85,31.8s30.4,12.11,40.91,15.92c10.51,3.82,36.86,8.51,46.49,9.71,9.63,1.19,10.3-5.64,2.09-12.25-8.22-6.61-38.86-22.79-39.71-23.51-.84-.72-32.94-21.67-32.94-21.67Z"/>
            <path class="cls-23" d="m275.44,102.85c1.11-1.99,2.26-3.96,3.41-5.92.55-.94,1.1-1.89,1.68-2.82.63-1,1.19-2.07,1.89-3.02.05-.07.14-.02.11.06-.44,1.09-1.06,2.13-1.57,3.19-.48.98-1,1.94-1.51,2.91-1.07,2.01-2.13,4.02-3.25,6.01-2.23,3.98-4.57,7.88-6.96,11.76-.06.09-.2.02-.15-.08,2.05-4.07,4.14-8.11,6.36-12.09Z"/>
            <g>
              <path class="cls-23" d="m321.54,136.83c9.07,2.01,18.23,3.43,27.45,4.44-8.05-1.61-36.43-6.77-27.45-4.44Z"/>
              <path class="cls-23" d="m337.85,139.67c2,1.14,4.14,1.95,6.39,2.43-2-1.14-4.14-1.95-6.39-2.43h0Z"/>
            </g>
          </g>
        </g>
      </g>
    </g>
  </g>
  <g id="Character_1" data-name="Character 1">
    <g>
      <g>
        <g>
          <path class="cls-20" d="m108.79,132.03c-4.87,13.19-12.6,27.65-20.43,44.99-8.73,19.35-18.91,37.78-20.87,41.9-2.52,5.31-25.97-17.8-23.72-21.15,1.44-2.14,47.11-64.05,55.31-73.16,9.46-10.52,13.29-2.3,9.7,7.42Z"/>
          <g>
            <g>
              <path class="cls-20" d="m46.94,194.41c-2.36,2.41-14.86,16.31-17.25,20.03-4.4,6.85-7.43,14.9-5.03,17.32,1.91,1.94,5.58-1.25,5.58-1.25,0,0-1.29,5.3,1.77,6.89,3.06,1.58,5.55-3.69,5.55-3.69,0,0-.92,5.54,2.24,6.9,3.16,1.36,4.78-4.36,4.78-4.36,0,0-1.08,5.03,2,5.05,3.7.03,4.65-9.47,7.18-13.66.38-.64,12.15-9.07,15.95-15.66,1.89-3.27,2.02-5.5,2.02-5.5l-24.79-12.07Z"/>
              <g>
                <path class="cls-23" d="m44.67,236.18c2.05-6.16,3.43-8.7,7.58-13.99.08-.1-.2-.2-.3-.11-4.39,4.61-6.36,7.77-7.55,14.08-.06.31.17.31.26.02Z"/>
                <path class="cls-23" d="m37.75,233.77c1.96-7.05,3.83-10.1,8.36-15.78.06-.08-.07-.2-.14-.12-4.9,5.19-7.53,8.44-8.56,15.74-.05.33.25.48.34.15Z"/>
                <path class="cls-23" d="m30.49,230.35c2.12-6.78,3.9-10.28,8.8-15.42.12-.12-.05-.3-.18-.19-5.51,4.75-7.76,9.11-8.82,15.53-.07.44.07.51.2.09Z"/>
              </g>
            </g>
            <g>
              <path class="cls-20" d="m69.77,209.38s-.1,8.79-1,12.65c-.9,3.85-9.52,16.99-12.46,15.28-3.8-2.2-.31-10.76,1.94-14.73,0,0-8.79-5.07-7.62-11.76,1.17-6.69,19.14-1.44,19.14-1.44Z"/>
              <path class="cls-23" d="m56.78,225.51c.39-1.03.81-2.04,1.24-3.06l.09.34c-3.94-2.61-7.04-6.61-8.32-11.17-.46-1.51-.57-3.11-.57-4.66.32,1.53.63,3.03,1.21,4.45,1.61,4.28,4.49,8.01,7.97,10.95l.19.16c-.59,1.01-1.18,2.01-1.81,2.99h0Z"/>
            </g>
          </g>
        </g>
        <g>
          <path class="cls-21" d="m73.83,211.65l-28.81-18.41s-.05-4.17,2.7-8.42c5.67-8.76,16.96-21.93,21.2-28.1,6.3-9.16,24.91-28.19,32.01-34.72,7.11-6.53,11.6-1.39,8.77,8.71-2.83,10.1-18.28,40.89-18.54,41.97-.19.77-6.24,21.52-11.22,32.61-1.97,4.38-6.11,6.37-6.11,6.37Z"/>
          <path class="cls-23" d="m63.63,195.65c1.92,1.21,3.86,2.37,5.8,3.53.93.56,1.86,1.12,2.81,1.65,1.02.57,2.03,1.23,3.09,1.73.07.03.13-.05.07-.11-.9-.74-1.94-1.35-2.9-2.03-.89-.63-1.8-1.21-2.71-1.81-1.89-1.24-3.78-2.48-5.71-3.68-3.85-2.4-7.75-4.68-11.69-6.93-.09-.05-.18.08-.09.14,3.73,2.57,7.49,5.09,11.32,7.5Z"/>
          <path class="cls-19" d="m109.7,130.7c-2.82,10.1-18.27,40.9-18.54,41.97-.19.77-6.24,21.51-11.22,32.61-1.97,4.38-6.11,6.36-6.11,6.36l-28.81-18.41s-.02-1.52.58-3.66l57.41-69.22c5.86-3.8,9.23,1.27,6.69,10.33Z"/>
        </g>
      </g>
      <g>
        <g>
          <g>
            <path class="cls-20" d="m66.12,346.92s-21.85,38.64-21.86,38.66c-3.51,7.79-6.45,14.68-7.63,18.39,0,.02-.02.04-.02.06-.45,1.4-.65,2.33-.51,2.67,0,.03,0,.05.02.07,1.61,2.62,63.06,32.48,65.55,32.8,2.5.33,3.6-6.76,2.14-9.82-1.48-3.07-19.88-25.02-19.88-25.02l21.45-38.79-39.27-19.02Z"/>
            <path class="cls-18" d="m100.69,439.35c-2.49-.32-62.96-29.96-64.57-32.57-.02-.03-.02-.05-.03-.07-.14-.33.07-1.27.5-2.66,0-.03,0-.04.02-.06,1.19-3.71,4.13-10.61,7.63-18.4,0-.01,3.68-6.75,5.15-9.1l39.08,20.2-4.55,8.04s17.43,21.73,18.9,24.79c1.47,3.06.36,10.15-2.14,9.83Z"/>
            <g>
              <path class="cls-21" d="m101.81,438.51c-2.51-.38-63.73-31.92-65.3-34.6-.61-1.01,3.46-10.2,8.71-21.16.06-.11.11-.23.17-.34l39.73,19.91-.36.66s18.03,22.55,19.45,25.69c1.4,3.11.12,10.24-2.39,9.85Z"/>
              <g>
                <path class="cls-2" d="m102.34,435.78c-10.19-5.57-51.82-27.08-62.31-31.81-.09-.04-.11.02-.03.06,9.98,5.74,51.78,26.91,62.26,31.91.22.11.3-.05.09-.17Z"/>
                <path class="cls-23" d="m88.01,404.81c-3.67-2.85-8.96-4.79-13.55-3.49-.18.05-.1.3.05.33,4.66.8,8.82,1.92,13.22,3.67.31.12.54-.3.28-.5Z"/>
                <path class="cls-23" d="m90.03,408.08c-3.67-2.85-8.96-4.79-13.55-3.49-.18.05-.1.3.05.33,4.66.8,8.82,1.92,13.22,3.67.31.12.54-.3.28-.5Z"/>
                <path class="cls-23" d="m92.05,411.36c-3.67-2.85-8.96-4.79-13.55-3.49-.18.05-.1.3.05.33,4.66.8,8.82,1.92,13.22,3.67.31.12.54-.3.28-.5Z"/>
              </g>
              <path class="cls-2" d="m51.96,394.47c-3.3-4.51-10.3.61-7,5.12,3.3,4.51,10.3-.61,7-5.12Z"/>
              <path class="cls-19" d="m87.44,406.36l4.4,27.49c5.54,2.76,9.37,4.57,9.96,4.66,2.51.39,3.79-6.74,2.4-9.85-1.07-2.37-11.68-15.89-16.76-22.3Z"/>
              <path class="cls-21" d="m103.88,436.8c.88.99-1.25,4.54-2.2,4.43-.94-.11-67.55-34.8-68.55-35.64-1-.84,1.51-4.69,2.94-4.22,1.42.47,67.81,35.43,67.81,35.43Z"/>
              <path class="cls-14" d="m103.88,436.8c.88.99-1.25,4.54-2.2,4.43-.94-.11-67.55-34.8-68.55-35.64-1-.84,1.51-4.69,2.94-4.22,1.42.47,67.81,35.43,67.81,35.43Z"/>
            </g>
          </g>
          <g>
            <path class="cls-23" d="m49.31,372.87l44.04,23.51s55.58-79.21,56.69-100.03c1.54-28.74-23.01-119.99-23.01-119.99l-39.15-.27s15.91,93.84,14.62,109.85c-.68,8.38-53.2,86.92-53.2,86.92Z"/>
            <g>
              <path class="cls-7" d="m97.19,387.29c-2.27-1.63-23.14-13.73-39.03-21.45-.11-.05-.18.1-.08.16,4.82,3.18,35.98,20.25,39,21.46.1.04.22-.1.12-.17Z"/>
              <path class="cls-7" d="m107.94,265.9c-1.82-13.73-3.82-27.44-6.1-41.11-2.29-13.72-4.71-27.44-7.58-41.06-.35-1.66-.72-3.32-1.08-4.98-.06-.26-.45-.18-.4.08,2.41,13.51,4.89,27.01,7.11,40.55,2.22,13.54,4.29,27.11,6.15,40.71.46,3.37.91,6.73,1.34,10.11.45,3.48.96,6.97,1,10.49.04,3.38-.49,6.66-1.68,9.83-1.17,3.11-2.83,5.99-4.51,8.84-7.08,11.98-38.8,64.34-39.62,65.86-.05.1.08.2.15.1,7.61-11.81,31.22-49.53,38.4-61.71,3.24-5.49,6.95-11.05,8.01-17.46,1.1-6.66-.32-13.63-1.2-20.24Z"/>
            </g>
          </g>
        </g>
        <g>
          <g>
            <path class="cls-20" d="m96.66,372.87s-.44,44.66-.44,44.69c.24,8.54.6,16.03,1.14,19.88,0,.02,0,.04,0,.06.2,1.45.44,2.38.7,2.62.02.02.03.04.05.05,2.59,1.65,70.91,1.75,73.29.96,2.39-.79.3-7.66-2.35-9.77-2.67-2.12-28.8-13.86-28.8-13.86l.02-44.63h-43.63Z"/>
            <path class="cls-18" d="m96.31,408.4s-.09,9.14-.09,9.17c.24,8.54.6,16.03,1.14,19.88,0,.02,0,.04,0,.06.29,1.43.54,2.38.7,2.62.02.02.03.04.05.05,2.59,1.65,70.91,1.75,73.29.96,2.39-.79.3-7.66-2.35-9.77-2.67-2.12-28.8-13.86-28.8-13.86v-9.31s-43.96.2-43.96.2Z"/>
            <g>
              <path class="cls-21" d="m171.45,441.06c-2.42.77-71.28-.44-73.87-2.16-1-.63-1.4-10.68-1.55-22.83,0-.13,0-.25,0-.38l44.43.29-.03.75s26.15,12.25,28.8,14.44c2.63,2.17,4.63,9.13,2.21,9.89Z"/>
              <g>
                <path class="cls-2" d="m170.72,438.37c-11.6-.49-58.45-1.37-69.95-.97-.09,0-.09.07,0,.07,11.49.74,58.34,1.23,69.95,1.09.24,0,.25-.18,0-.19Z"/>
                <path class="cls-23" d="m144.17,416.93c-4.55-.93-10.15-.33-13.7,2.86-.14.12.04.32.19.27,4.53-1.34,8.76-2.18,13.48-2.56.33-.03.35-.51.03-.58Z"/>
                <path class="cls-23" d="m147.43,418.98c-4.55-.93-10.15-.33-13.7,2.86-.14.12.04.32.19.27,4.53-1.34,8.76-2.18,13.48-2.56.33-.03.35-.51.03-.58Z"/>
                <path class="cls-23" d="m150.69,421.02c-4.55-.93-10.15-.33-13.7,2.86-.14.12.04.32.19.27,4.53-1.34,8.76-2.18,13.48-2.56.33-.03.35-.51.03-.58Z"/>
              </g>
              <path class="cls-21" d="m172.55,438.61c1.22.5.89,4.63-.01,4.95-.9.32-75.97-1.34-77.24-1.64-1.27-.31-.72-4.88.76-5.09,1.49-.21,76.49,1.79,76.49,1.79Z"/>
              <path class="cls-14" d="m172.55,438.61c1.22.5.89,4.63-.01,4.95-.9.32-75.97-1.34-77.24-1.64-1.27-.31-.72-4.88.76-5.09,1.49-.21,76.49,1.79,76.49,1.79Z"/>
              <path class="cls-2" d="m107.27,423.6c-4.95-2.58-8.97,5.1-4.02,7.69,4.95,2.58,8.97-5.1,4.02-7.69Z"/>
            </g>
          </g>
          <g>
            <path class="cls-23" d="m126.54,176.28s0,.01-.01.04c-.26.81-14.33,39.36-15.65,39.97-1.5.69,31.08,55.41,33.01,80.84,1.23,16.26-1.18,108.28-1.18,108.28h-47.63s2.29-82.73,3.38-108.94c.42-10.16-32.7-60.77-33.11-92.29-.13-9.93,7.01-28.08,7.01-28.08l54.2.18Z"/>
            <g>
              <path class="cls-7" d="m98.71,295.76c0-.42-.33-.56-.36-.13-1.08,14.19-1.33,28.3-2,42.5-.68,14.17-.29,17.58-.92,31.75-.36,8.02-.02,16.06-.2,24.08,0,.12.18.14.2.02,1.48-14.14,3.29-90.2,3.3-98.23Z"/>
              <path class="cls-7" d="m143.88,297.69c-.11-3.49-.33-7-.96-10.44-.61-3.37-1.68-6.63-2.94-9.81-2.63-6.64-5.74-13.11-8.72-19.59-3.01-6.57-6.08-13.12-9.26-19.61-1.79-3.65-3.58-7.3-5.39-10.93-1.83-3.68-3.8-7.3-5.72-10.93-.08-.14-.3-.04-.23.11,3.05,6.55,6.07,13.13,9.12,19.68,3.05,6.55,6.05,13.13,9.05,19.71,2.95,6.47,5.91,12.95,8.69,19.49,1.33,3.14,2.58,6.32,3.4,9.63.84,3.4,1.2,6.89,1.4,10.37.46,8.14.69,16.3,1.49,24.41.01.1.18.09.18-.01.24-7.35.13-14.74-.09-22.09Z"/>
              <path class="cls-7" d="m139.24,396c-2.77-.36-23.87-1.09-41.53-.34-.12,0-.11.17,0,.18,5.75.51,38.26.73,41.5.36.11-.01.15-.19.02-.21Z"/>
              <g>
                <path class="cls-7" d="m117.45,214.15c-5.1,1.19-10.09,3.11-14.89,5.16-.19.08-.1.37.1.31,5-1.57,10.08-3.03,14.99-4.87.39-.14.19-.69-.2-.6Z"/>
                <path class="cls-7" d="m122.26,181.5c0-.17-.28-.23-.3-.05-.54,5.69-1.42,10.65-2.44,15.92-.48,2.44-3.86,15.87-8.03,14.44-.7-.24-.99-.98-.99-2.07,0-1.31.65-2.85,1-4.12.77-2.8,1.44-5.63,1.98-8.49,1.01-5.33,1.58-10.71,1.48-16.14,0-.18-.26-.19-.28-.01-.76,7.45-1.71,14.86-3.58,22.13-.9,3.49-3.23,8.65.42,9.57,3.72.94,7.08-7.75,7.79-10.15,1.99-6.69,2.79-14.06,2.96-21.02Z"/>
                <path class="cls-7" d="m111.56,212.18c-.48.88-.89,1.8-1.25,2.73-.28.72-.64,1.5-.64,2.28,0,.15.2.19.29.09.57-.58.87-1.43,1.23-2.16.41-.84.85-1.67,1.24-2.52.26-.57-.57-.96-.86-.42Z"/>
              </g>
              <path class="cls-7" d="m103.59,309.76c.24-6.77,1-13.87-1.22-20.41-1.1-3.24-2.77-6.24-4.34-9.27-1.65-3.18-3.27-6.38-4.86-9.6-6.36-12.85-12.36-25.91-17.72-39.22-2.58-6.41-4.89-12.99-5.81-19.86-.96-7.19-.28-14.55,1.33-21.6.4-1.76.83-3.52,1.31-5.26.04-.13-.15-.2-.2-.07-2.14,6.68-3.62,13.62-3.72,20.66-.09,6.78,1.39,13.36,3.58,19.75,2.28,6.65,5.14,13.11,7.96,19.55,2.9,6.63,5.91,13.22,9.05,19.75,3.12,6.5,6.44,12.88,9.73,19.29,1.59,3.1,3.04,6.28,3.66,9.73.63,3.52.53,7.1.39,10.66-.56,14.98-1.85,64.83-2.04,79.78-.02,1.9-.05,3.79-.07,5.69,0,.17.25.19.26.02.95-14.91,2.17-64.65,2.7-79.58Z"/>
              <path class="cls-7" d="m92.9,185.98c0-.11-.17-.09-.18.01-.56,4.12-.88,8.4-2.87,12.14-1.83,3.43-5.01,5.64-8.48,7.19-2.01.9-4.1,1.6-6.18,2.28-.15.05-.12.28.05.25,3.94-.82,7.94-1.74,11.37-3.95,3.67-2.37,5.55-6.16,6.15-10.4.35-2.49.32-5.01.15-7.52Z"/>
            </g>
          </g>
        </g>
      </g>
      <g>
        <path class="cls-23" d="m123.71,80.86c-6.65,9.7-.35,16.95-3.36,20.16-7.86,8.38-1.75,10.64-3.76,13.63-1.65,2.45-8.79,4.91-5.49,12.95l33.44-2.87c.54-5.58-5.25-8.06-5.92-11.91-.67-3.85,3.61-8.12-4.46-15.78-5.24-4.97-7.26-20.84-10.45-16.18Z"/>
        <g>
          <path class="cls-21" d="m132.07,165.35l1.87,16.91-64.95-5.16s20.58-45.94,30.68-55.14c8.02-7.31,16.57-5.96,21.57.08,1.26,1.53,13.43,23.01,14.44,31.53.87,7.51-3.61,11.79-3.61,11.79Z"/>
          <g>
            <path class="cls-23" d="m119.84,160.97c1.72.26,3.45.64,5.16,1.4.85.38,1.69.83,2.53,1.31.42.24.84.46,1.26.67.43.22.89.42,1.33.42.04,0,.05.12,0,.12-.42.04-.83.08-1.26.01-.41-.06-.82-.22-1.22-.39-.86-.37-1.72-.81-2.58-1.19-1.74-.77-3.47-1.55-5.23-2.08-.08-.02-.08-.29,0-.28Z"/>
            <path class="cls-23" d="m115.81,164.16c1.38-.35,2.79-.57,4.2-.61.71-.02,1.41.05,2.12.15.34.05.68.11,1.02.18.37.07.75.25,1.12.31.04,0,.05.12,0,.12-.35-.04-.7.03-1.05.04-.35,0-.7,0-1.06,0-.71,0-1.41.02-2.12,0-1.41-.03-2.82-.02-4.23.05-.08,0-.08-.21-.01-.23Z"/>
          </g>
        </g>
        <g>
          <g>
            <path class="cls-20" d="m109.97,137.44c22.2,9.48,48.03,12.23,53.65,10.19,6.18-2.24,20.73-13.38,33-25.75,2.51-2.53-18.84-20.14-21.63-17.54-7.31,6.82-20.27,20.74-23.79,21.83-3.26,1.01-23.71-.07-36.13.9-11.92.93-15.43,5.96-5.11,10.37Z"/>
            <g>
              <path class="cls-20" d="m172.79,107.25s2.89-10.61,5.11-17.46c1.24-3.82,3.94-10.18,6.14-12.58,3.28-3.58,19.28-16.44,22.49-12.63,2.9,3.45-12.25,12.76-12.25,12.76,0,0,14.46-10.74,17.19-5.95,2.73,4.8-15.79,13.04-15.79,13.04,0,0,15.1-10.71,17.13-5.31,1.53,4.08-14.82,12.48-14.82,12.48,0,0,13.05-9.11,14.8-4.99,1.94,4.56-12.67,13.26-12.67,13.26,2.7,11.23-.6,17.69-3.5,22-.7,1.04-23.83-14.63-23.83-14.63Z"/>
              <g>
                <path class="cls-23" d="m189.03,80.74c1.65-1.32,3.32-2.67,5.08-3.85,1.76-1.17,3.57-2.28,5.44-3.29,4.58-2.46,7.83-3.28,7.63-3.21-4.62,1.72-11,5.82-12.77,6.99-1.76,1.17-3.58,2.25-5.34,3.42-.04.03-.08-.04-.04-.07Z"/>
                <path class="cls-23" d="m193.15,87.19c2.18-1.6,4.29-3.27,6.55-4.77,2.24-1.49,4.5-2.72,6.84-4.05.18-.1.18.03,0,.14-2.29,1.43-4.29,2.93-6.56,4.38-2.26,1.45-4.6,2.82-6.8,4.36-.03.02-.07-.03-.03-.05Z"/>
                <path class="cls-23" d="m195.69,93.36c3.21-2.61,6.9-4.63,10.57-6.52.18-.09.16.07-.02.18-3.55,2.1-6.36,3.73-10.46,6.46-.06.04-.16-.06-.09-.11Z"/>
              </g>
            </g>
          </g>
          <g>
            <path class="cls-21" d="m170.82,106.77l24.92,19.28s.98,2.61-4.1,7.24c-5.08,4.62-17.55,13.59-28.89,15.73-11.34,2.14-42.07-5.73-52-10.45-9.93-4.72-10.02-10.14,2.34-12.14,12.36-2,34.26-.67,36.54-1.27s12.53-12.9,15.35-15.4c2.81-2.5,5.86-3,5.86-3Z"/>
            <path class="cls-23" d="m155.35,150.22c-2.8-.09-5.56-.62-8.31-1.12-2.17-.4-20.18-4.92-22.33-5.37-1.44.13-2.92.03-4.36-.12-.05,0-.05-.1,0-.1,1.1.03,2.2,0,3.3,0-.28-.06-.56-.11-.84-.17-3.2-.65-6.37-1.42-9.53-2.29-.06-.02-.05-.11.02-.1,5.52.99,26.88,6.16,32.4,7.12,2.73.47,5.46.99,8.22,1.2,2.84.22,5.7-.05,8.48-.62,3.13-.64,6.21-1.61,9.25-2.59.23-.07.37.27.14.36-5.24,2.07-10.73,3.96-16.44,3.78Z"/>
          </g>
        </g>
        <g>
          <g>
            <path class="cls-20" d="m110,120.86c.23,1.1,5.29,8.27,10.28,8.14,1.62-.05,1.77-8.92,1.77-8.92l.16-.65,2.24-9.14-10.64-7.14-1.54-.95s-.45,2.54-.97,5.71c-.03.15-.05.29-.08.45-.03.18-.07.35-.09.51-.08.47-.17.96-.24,1.44-.06.37-.12.72-.16,1.11-.06.39-.1.76-.16,1.15-.48,3.83-.65,7.81-.55,8.28Z"/>
            <path class="cls-23" d="m111.29,107.91c2.48,7.36,8.26,10.45,10.92,11.51l2.24-9.14-10.64-7.14-1.54-.95s-.45,2.54-.97,5.71Z"/>
          </g>
          <g>
            <path class="cls-20" d="m133.26,90.32c7.01,14.95-1.15,20.83-4.37,22.34-2.93,1.37-13.07,5.66-21.59-8.48-8.52-14.14-3.79-22.13,2.74-25.61,6.53-3.49,16.21-3.19,23.22,11.75Z"/>
            <g>
              <path class="cls-23" d="m131.97,91.04c-.38.08-.75.1-1.13.14-.43.05-.78.13-1.18-.08-.22-.11-.32-.46-.23-.68.21-.52.73-.71,1.25-.79.57-.09,1.02,0,1.52.28.48.28.28,1.02-.22,1.12Z"/>
              <path class="cls-23" d="m121.42,94.05c.35-.17.65-.38.98-.58.37-.23.69-.37.89-.79.1-.22-.03-.56-.23-.68-.48-.28-1.01-.11-1.47.14-.5.28-.81.62-1.03,1.15-.2.51.4.98.86.75Z"/>
              <g>
                <g>
                  <path class="cls-23" d="m124.75,96.26s-.06.08-.05.12c.42,1.04.73,2.31-.1,3.01-.03.02,0,.07.03.06,1.1-.59.68-2.27.11-3.19Z"/>
                  <path class="cls-23" d="m123.41,95.51c-1.74.5-.62,3.95.99,3.49,1.59-.45.47-3.9-.99-3.49Z"/>
                </g>
                <path class="cls-23" d="m122.79,95.91c-.24.29-.42.73-.77.89-.41.18-.84-.08-1.23-.34-.04-.03-.06.01-.05.06.21.66.68,1.26,1.42,1.13.68-.12.95-.86.9-1.57,0-.13-.18-.28-.27-.16Z"/>
              </g>
              <g>
                <g>
                  <path class="cls-23" d="m130.51,94s.1.02.11.07c.3,1.08.84,2.27,1.92,2.32.03,0,.05.06,0,.06-1.24.21-1.93-1.38-2.04-2.45Z"/>
                  <path class="cls-23" d="m131.11,92.58c1.68-.68,2.91,2.74,1.35,3.37-1.53.62-2.76-2.8-1.35-3.37Z"/>
                </g>
                <path class="cls-23" d="m131.9,92.55c.33.08.72.32,1.05.22.38-.11.53-.58.64-1.02.01-.05.05-.03.07.02.25.65.28,1.4-.3,1.75-.53.32-1.15-.09-1.54-.68-.07-.11-.05-.33.09-.29Z"/>
              </g>
              <path class="cls-23" d="m126.9,104.99c.31.21.64.52,1.05.48.39-.04.81-.3,1.14-.5.03-.02.07.01.06.05-.21.48-.76.86-1.29.86-.52,0-.84-.38-1.05-.81-.03-.06.05-.1.1-.07Z"/>
              <path class="cls-23" d="m130.49,99.92s.63,1.57.82,2.34c.02.07-.16.15-.42.23-.01,0-.02.01-.03,0-1.31.55-2.79.41-3.89-.49-.07-.06,0-.17.09-.13,1.2.49,2.36.41,3.57.13,0-.23-1.16-2.66-1.04-2.7.41-.14,1.31-.06,1.84-.04-1.21-3.32-2.94-6.41-4.1-9.74-.04-.12.13-.2.19-.1,2.05,3.12,3.52,6.9,4.86,10.3.17.42-1.55.23-1.89.18Z"/>
              <g>
                <path class="cls-23" d="m130.74,102.23s-.43,1.22-1.32,1.89c-.33.25-.71.43-1.17.44-.93.04-1.2-.74-1.25-1.47-.04-.6.06-1.15.06-1.15,0,0,1.62.79,3.67.28Z"/>
                <path class="cls-12" d="m129.42,104.12c-.33.25-.71.43-1.17.44-.93.04-1.2-.74-1.25-1.47.95-.19,2.06.15,2.42,1.02Z"/>
              </g>
            </g>
            <path class="cls-23" d="m116.35,76.78c-7.74.57-13.87,3.12-16.41,7.34-5.31,8.8.33,21.69-2.13,24.65-6.43,7.71-.99,9.37-2.59,12.08-1.31,2.22-7.42,4.73-4.13,11.57l31.95-3.66c.18-4.9-4.99-6.76-5.77-10.09-.78-3.33,2.73-7.26-4.7-13.53-4.82-4.07,3.78-28.36,3.78-28.36Z"/>
            <path class="cls-23" d="m106.26,104.28c1.88-.36,6.28-1.22,8.4-4.19,1.17-1.64,1.92-4.1,1.71-8.09-.37-6.98,2.96-12.49,11.03-10.5,0,0-.15-6.52-4.93-7.84-4.78-1.32-7.88,3.88-7.88,3.88,0,0-9.39,1.51-12.44,9.73-3.06,8.22,4.12,17.01,4.12,17.01Z"/>
            <g>
              <path class="cls-20" d="m112.71,102.44s-5.16-3.59-6.91-1.58c-1.75,2.01,3.37,8.09,6.3,8.1,2.93.01,2.99-2.7,2.99-2.7l-2.38-3.82Z"/>
              <path class="cls-23" d="m107.31,102.57s-.03.07.01.07c2.08.07,3.64,1.39,4.95,2.89-.78-.47-1.65-.57-2.31.4-.03.05.04.11.08.08.68-.43,1.26-.5,1.98-.09.51.29.95.73,1.38,1.12.14.13.4-.06.27-.23,0-.01-.02-.02-.03-.04-.8-2.32-3.78-4.89-6.33-4.21Z"/>
            </g>
          </g>
        </g>
      </g>
    </g>
  </g>
</svg>