<?xml version="1.0" encoding="UTF-8"?>
<svg xmlns="http://www.w3.org/2000/svg" viewBox="0 0 500 438.78">
  <defs>
    <style>
      .cls-1 {
        fill: #f0f0f0;
      }

      .cls-2, .cls-3, .cls-4, .cls-5, .cls-6 {
        fill: #fff;
      }

      .cls-7, .cls-5, .cls-6, .cls-8 {
        opacity: .5;
      }

      .cls-9 {
        fill: #a24e3f;
      }

      .cls-3 {
        opacity: .4;
      }

      .cls-10 {
        fill: #f5f5f5;
      }

      .cls-4, .cls-11 {
        opacity: .3;
      }

      .cls-12, .cls-13 {
        opacity: .2;
      }

      .cls-14 {
        opacity: .8;
      }

      .cls-14, .cls-6 {
        isolation: isolate;
      }

      .cls-15 {
        fill: #e0e0e0;
      }

      .cls-16 {
        fill: #e6e6e6;
      }

      .cls-17 {
        stroke: #263238;
      }

      .cls-17, .cls-8, .cls-18, .cls-13 {
        fill: none;
      }

      .cls-17, .cls-18, .cls-13 {
        stroke-width: .5px;
      }

      .cls-17, .cls-13 {
        stroke-linecap: round;
        stroke-linejoin: round;
      }

      .cls-19 {
        fill: #ebebeb;
      }

      .cls-20 {
        fill: #407bff;
      }

      .cls-21 {
        fill: #ff7c77;
      }

      .cls-8 {
        stroke: #fff;
      }

      .cls-8, .cls-18 {
        stroke-miterlimit: 10;
      }

      .cls-22 {
        fill: #ffbeb8;
      }

      .cls-18, .cls-13 {
        stroke: #000;
      }

      .cls-23 {
        fill: #263238;
      }
    </style>
  </defs>
  <g id="Background_complete" data-name="Background complete">
    <g>
      <g>
        <path class="cls-15" d="m443.92,275h-180.75c-3.23,0-5.86-2.63-5.86-5.86V5.86c0-3.23,2.63-5.86,5.86-5.86h180.75c3.23,0,5.86,2.63,5.86,5.86v263.27c0,3.23-2.63,5.86-5.86,5.86ZM263.17.25c-3.09,0-5.61,2.52-5.61,5.61v263.27c0,3.09,2.52,5.61,5.61,5.61h180.75c3.09,0,5.61-2.52,5.61-5.61V5.86c0-3.09-2.52-5.61-5.61-5.61h-180.75Z"/>
        <path class="cls-15" d="m235.49,275H54.75c-3.23,0-5.86-2.63-5.86-5.86V5.86c0-3.23,2.63-5.86,5.86-5.86h180.75c3.23,0,5.86,2.63,5.86,5.86v263.27c0,3.23-2.63,5.86-5.86,5.86ZM54.75.25c-3.09,0-5.61,2.52-5.61,5.61v263.27c0,3.09,2.52,5.61,5.61,5.61h180.75c3.09,0,5.61-2.52,5.61-5.61V5.86c0-3.09-2.52-5.61-5.61-5.61H54.75Z"/>
      </g>
      <rect class="cls-15" y="312.25" width="500" height=".25"/>
    </g>
    <path class="cls-15" d="m465.03,390.77c-.43-1.12-1.5-1.89-2.67-2.13-8.7-1.79-16.91-.56-25.77.14-27.07,1.02-86.54-11.06-112.96-.81-27.86,10.82-48.05,11.26-81.27,2.74,3.56,5.64-5.13,9.07-8.48,10.83-3.55,1.85-6.76,6.58-3.6,9.54,1.01.95,2.41,1.37,3.8,1.38,12.15.09,23.31-8.18,35.32-6.97,6.57.66,12.48,4.1,18.59,6.63,6.11,2.52,13.27,4.11,19.16,1.11,4.99-2.54,8.23-7.98,13.53-9.77,5.12-1.72,10.67.45,15.57,2.72,4.9,2.27,10.21,4.75,15.5,3.63s9.46-7.91,6.04-12.09c11.87-1.41,23.69,2.15,35.32,4.92,8.98,2.14,18.51,3.78,27.49,2.36,3.95-.62,4.71-5.92,1.14-7.71-.99-.49-2.02-.9-3.08-1.21,13.59,2.01,27.49,1.92,41.05-.28,2.79-.45,6.42-2.21,5.32-5.04Z"/>
    <path class="cls-15" d="m427.83,401.84c0,1.32-3.75,2.4-8.38,2.4s-8.38-1.07-8.38-2.4,3.75-2.4,8.38-2.4,8.38,1.07,8.38,2.4Z"/>
    <path class="cls-15" d="m224.14,396.65c0,3.23-12.9,5.84-28.81,5.84s-28.81-2.62-28.81-5.84,12.9-5.84,28.81-5.84,28.81,2.62,28.81,5.84Z"/>
    <rect class="cls-15" x="51.67" y="329.43" width="16.06" height=".25"/>
    <rect class="cls-15" x="170.35" y="326.72" width="53.53" height=".25"/>
    <rect class="cls-15" x="68.73" y="338.72" width="36.25" height=".25"/>
    <rect class="cls-15" x="378.35" y="326.59" width="43.19" height=".25"/>
    <rect class="cls-15" x="430.45" y="326.59" width="6.33" height=".25"/>
    <rect class="cls-15" x="316.21" y="332.82" width="53.89" height=".25"/>
    <path class="cls-16" d="m189.46,117.5c-1.68-1.27-4.13-1.41-5.95-.35-2.41-4.88-9.14-7.03-13.94-4.46-1.25-5.26-6.43-9.3-11.83-9.23-5.4.07-10.48,4.23-11.61,9.51-.18.84-.3,1.76-.9,2.37-.98,1-2.6.66-4,.55-4.37-.34-8.78,2.73-9.97,6.95l60.25-.22c.53-2.04-.38-3.86-2.06-5.13Z"/>
    <path class="cls-1" d="m283.86,39.39c-2.34-1.77-5.75-1.97-8.28-.49-3.36-6.78-12.71-9.77-19.37-6.2-1.74-7.31-8.94-12.92-16.45-12.83-7.51.09-14.57,5.88-16.14,13.22-.25,1.17-.41,2.45-1.25,3.3-1.36,1.39-3.62.92-5.55.77-6.08-.47-12.2,3.8-13.86,9.67l83.76-.3c.73-2.84-.53-5.37-2.87-7.14Z"/>
    <path class="cls-15" d="m176.12,68.04c-2.82-2.13-6.94-2.37-9.99-.59-4.05-8.19-15.34-11.8-23.39-7.49-2.1-8.82-10.79-15.6-19.86-15.49-9.07.11-17.59,7.1-19.48,15.97-.3,1.41-.5,2.95-1.51,3.98-1.64,1.67-4.37,1.11-6.71.93-7.34-.57-14.73,4.58-16.73,11.67l101.13-.37c.89-3.42-.64-6.49-3.46-8.62Z"/>
    <path class="cls-1" d="m402.32,172.86c-2.36-1.78-5.8-1.98-8.35-.49-3.38-6.84-12.82-9.86-19.55-6.26-1.76-7.37-9.02-13.04-16.59-12.95-7.58.09-14.7,5.93-16.28,13.34-.25,1.18-.42,2.47-1.26,3.33-1.37,1.4-3.65.93-5.6.78-6.14-.48-12.31,3.83-13.98,9.75l84.5-.31c.74-2.86-.53-5.42-2.89-7.2Z"/>
    <path class="cls-19" d="m295.13,79.73c-1.2-.91-2.95-1.01-4.25-.25-1.72-3.48-6.53-5.02-9.96-3.19-.89-3.76-4.59-6.64-8.45-6.6-3.86.05-7.49,3.02-8.29,6.8-.13.6-.21,1.26-.64,1.7-.7.71-1.86.47-2.85.4-3.13-.24-6.27,1.95-7.12,4.97l43.05-.16c.38-1.46-.27-2.76-1.47-3.67Z"/>
    <path class="cls-15" d="m443.56,146.06c-1.2-.91-2.95-1.01-4.25-.25-1.72-3.48-6.53-5.02-9.96-3.19-.89-3.76-4.59-6.64-8.45-6.6-3.86.05-7.49,3.02-8.29,6.8-.13.6-.21,1.26-.64,1.7-.7.71-1.86.47-2.85.4-3.13-.24-6.27,1.95-7.12,4.97l43.05-.16c.38-1.46-.27-2.76-1.47-3.67Z"/>
    <path class="cls-1" d="m119.64,154.83c-1.2-.91-2.95-1.01-4.25-.25-1.72-3.48-6.53-5.02-9.96-3.19-.89-3.76-4.59-6.64-8.45-6.6-3.86.05-7.49,3.02-8.29,6.8-.13.6-.21,1.26-.64,1.7-.7.71-1.86.47-2.85.4-3.13-.24-6.27,1.95-7.12,4.97l43.05-.16c.38-1.46-.27-2.76-1.47-3.67Z"/>
    <path class="cls-19" d="m431.54,36.45c-1.2-.91-2.95-1.01-4.25-.25-1.72-3.48-6.53-5.02-9.96-3.19-.89-3.76-4.59-6.64-8.45-6.6-3.86.05-7.49,3.02-8.29,6.8-.13.6-.21,1.26-.64,1.7-.7.71-1.86.47-2.85.4-3.13-.24-6.27,1.95-7.12,4.97l43.05-.16c.38-1.46-.27-2.76-1.47-3.67Z"/>
    <g>
      <path class="cls-15" d="m410.76,297.94c-5.87.64-11.66,2.86-17.52,2.14-13.05-1.61-19.8-16.11-30.23-24.12-15.21-11.69-38.01-8.19-53.63,2.96-15.62,11.15-19.04,16.99-28.67,33.58l164.72-.03c-4.61-14.15-19.87-16.13-34.67-14.52Z"/>
      <path class="cls-15" d="m414.05,250.12c-.6-3.88-2.49-7.43-5.37-10.09-.65,1.25-1.8,2.17-3.17,2.52.78-1.21,1.28-2.58,1.48-4-2.01-1.57-4.27-2.75-6.53-3.47,6.48.03,12.94-.9,19.16-2.8-7.59-5.66-16.63-6.35-22.1-3.12,1.81-2.37,3.53-4.82,5.13-7.35-.65-.24-1.33-.44-2.01-.57.83-.26,1.71-.37,2.58-.3.61-.93,1.23-1.91,1.87-2.92-8.79,1.91-15.31,8.7-13.24,14.49-4.82-6.49-16.71-3.64-24.46,5.01l4.36-.24c.47-1,1.12-1.89,1.93-2.64-.27.82-.48,1.67-.62,2.52,4.01-.18,8.01-.56,11.99-1.13-6.25,3.65-10.62,13-9.26,23.69,6.22-5.93,11.33-12.89,15.16-20.56-.75,3.13-.59,6.83.53,10.26.45.07.9.1,1.35.09-.36.21-.74.39-1.14.55.53,1.45,1.23,2.83,2.1,4.1.7.26,1.43.45,2.17.56-.46.19-.94.33-1.43.43,1.04,1.3,2.29,2.41,3.71,3.29,2.11-4.14,1.96-8.72.82-12.82,10.68,26.11,6.75,64.73,6.75,64.73h8.32s2.74-39.08-11.92-64.24c3.34,2.49,7.37,4.23,11.86,3.99Zm-21.02-15.48s0,0,0,0h0s0,0,0,0c0,0,0,0,0-.01,0,0,0,0,.01.01Z"/>
      <path class="cls-15" d="m429.17,269.66c-7.7,13.21-6.26,33.73-6.26,33.73h4.37s-2.06-20.28,3.54-33.99c-.6,2.16-.68,4.56.43,6.73.74-.46,1.4-1.04,1.95-1.73-.26-.05-.51-.13-.75-.23.39-.06.77-.16,1.14-.3.46-.67.83-1.39,1.1-2.15-.21-.08-.41-.18-.6-.29.24,0,.48-.01.71-.05.59-1.8.67-3.75.28-5.39,2.01,4.02,4.69,7.68,7.96,10.79.71-5.61-1.58-10.52-4.86-12.44,2.09.3,4.19.5,6.3.59-.08-.45-.19-.89-.33-1.32.42.39.77.86,1.01,1.39l2.29.12c-4.07-4.54-10.31-6.04-12.84-2.63,1.09-3.04-2.34-6.61-6.95-7.61.34.53.66,1.04.98,1.53.46-.03.92.02,1.36.16-.36.07-.71.17-1.06.3.84,1.33,1.74,2.61,2.69,3.86-2.88-1.69-7.62-1.33-11.61,1.64,3.27.99,6.66,1.48,10.06,1.47-1.19.38-2.37,1-3.43,1.82.1.75.37,1.47.78,2.1-.72-.19-1.32-.67-1.66-1.32-1.51,1.4-2.51,3.26-2.82,5.3,2.36.12,4.47-.79,6.23-2.1Zm4.82-6.04s0,0,0,0c0,0,0,0,0,0h0,0s0,0,0,0Z"/>
      <path class="cls-15" d="m321.75,254.71c-.31-2.03-1.31-3.9-2.82-5.3-.34.66-.95,1.14-1.66,1.32.41-.64.67-1.35.78-2.1-1.06-.82-2.24-1.45-3.43-1.82,3.4.01,6.79-.47,10.06-1.47-3.99-2.97-8.73-3.33-11.61-1.64.95-1.25,1.85-2.53,2.69-3.86-.34-.13-.7-.23-1.06-.3.44-.14.9-.19,1.36-.16.32-.49.64-1,.98-1.53-4.61,1-8.04,4.57-6.95,7.61-2.53-3.41-8.78-1.91-12.84,2.63l2.29-.12c.25-.52.59-.99,1.01-1.39-.14.43-.25.88-.33,1.32,2.11-.1,4.21-.3,6.3-.59-3.28,1.92-5.57,6.83-4.86,12.44,3.27-3.11,5.95-6.77,7.96-10.79-.4,1.64-.31,3.59.28,5.39.24.04.47.05.71.05-.19.11-.39.21-.6.29.28.76.65,1.49,1.1,2.16.37.14.75.24,1.14.3-.24.1-.49.17-.75.23.55.68,1.2,1.27,1.95,1.73,1.11-2.17,1.03-4.58.43-6.73,5.61,13.71,3.54,33.99,3.54,33.99h4.37s1.44-20.52-6.26-33.73c1.75,1.31,3.87,2.22,6.23,2.1Zm-11.04-8.13h0s0,0,0,0c0,0,0,0,0,0,0,0,0,0,0,0Z"/>
      <path class="cls-15" d="m337.67,226.05c-11.72,20.13-9.53,51.38-9.53,51.38h6.65s-3.14-30.89,5.4-51.77c-.91,3.29-1.03,6.95.65,10.26,1.13-.7,2.13-1.59,2.97-2.63-.39-.08-.77-.19-1.14-.34.59-.09,1.17-.24,1.74-.45.7-1.02,1.26-2.12,1.68-3.28-.31-.12-.62-.27-.91-.44.36,0,.72-.02,1.08-.07.89-2.75,1.02-5.71.42-8.21,3.06,6.13,7.15,11.7,12.12,16.44,1.09-8.55-2.4-16.03-7.4-18.95,3.18.45,6.38.76,9.59.9-.12-.68-.28-1.36-.5-2.02.64.6,1.17,1.32,1.54,2.11l3.48.19c-6.2-6.91-15.7-9.2-19.56-4,1.65-4.63-3.56-10.06-10.59-11.59.51.81,1.01,1.59,1.49,2.33.7-.05,1.4.03,2.06.24-.55.11-1.08.26-1.61.46,1.28,2.02,2.65,3.98,4.1,5.87-4.38-2.58-11.61-2.03-17.68,2.5,4.98,1.51,10.15,2.26,15.33,2.24-1.81.57-3.61,1.52-5.23,2.77.16,1.14.56,2.23,1.18,3.2-1.09-.28-2.01-1.02-2.54-2.02-2.31,2.13-3.82,4.97-4.3,8.07,3.59.19,6.82-1.2,9.48-3.19Zm7.34-9.2s0,0,0,.01c0,0,0,0,0,0,0,0,0,0,0,0,0,0,0,0,0,0h0s0,0,0-.01Z"/>
    </g>
    <g>
      <path class="cls-19" d="m118.34,293.22c7.6.82,24.15,9.44,37.84,18.83l-82.69-.04c5.97-18.31,25.7-20.87,44.85-18.79Z"/>
      <path class="cls-19" d="m129.42,226.18c-18.97,32.56-15.42,83.11-15.42,83.11h10.76s-5.08-49.96,8.73-83.74c-1.47,5.32-1.67,11.24,1.06,16.59,1.83-1.13,3.45-2.57,4.8-4.25-.63-.13-1.25-.31-1.85-.55.96-.14,1.9-.39,2.81-.73,1.13-1.65,2.04-3.43,2.72-5.31-.51-.2-1-.43-1.47-.71.59.01,1.17-.03,1.75-.12,1.44-4.44,1.66-9.23.68-13.28,4.95,9.92,11.56,18.93,19.61,26.6,1.76-13.83-3.89-25.93-11.98-30.65,5.14.73,10.32,1.22,15.51,1.46-.19-1.11-.46-2.2-.81-3.26,1.04.97,1.89,2.13,2.49,3.42l5.64.3c-10.02-11.19-25.4-14.88-31.65-6.48,2.67-7.49-5.76-16.28-17.13-18.75.83,1.31,1.63,2.57,2.42,3.78,1.13-.08,2.26.05,3.34.39-.89.18-1.75.42-2.6.74,2.06,3.27,4.29,6.43,6.63,9.5-7.09-4.17-18.78-3.28-28.6,4.04,8.05,2.45,16.41,3.65,24.8,3.62-2.93.93-5.85,2.46-8.45,4.49.26,1.84.91,3.61,1.91,5.18-1.77-.46-3.26-1.64-4.1-3.26-3.73,3.44-6.18,8.04-6.95,13.06,5.8.3,11.02-1.95,15.34-5.17Zm11.87-14.88s0,.01,0,.02c0,0,0,0,0,0h0s0,0,0,0c0,0,0,0,0,0,0,0,0-.01.01-.02Z"/>
      <path class="cls-19" d="m102.57,259.34c-.41-2.63-1.69-5.05-3.65-6.86-.44.85-1.23,1.47-2.15,1.71.53-.82.87-1.75,1.01-2.72-1.37-1.07-2.9-1.87-4.44-2.36,4.4.02,8.79-.61,13.02-1.9-5.16-3.84-11.3-4.31-15.02-2.12,1.23-1.61,2.4-3.27,3.48-4.99-.44-.17-.9-.3-1.37-.39.57-.18,1.16-.25,1.75-.21.41-.63.83-1.3,1.27-1.98-5.97,1.3-10.4,5.91-9,9.85-3.28-4.41-11.35-2.47-16.62,3.4l2.96-.16c.32-.68.76-1.29,1.31-1.79-.18.56-.32,1.13-.42,1.71,2.73-.13,5.45-.38,8.15-.77-4.25,2.48-7.21,8.83-6.29,16.1,4.23-4.03,7.7-8.76,10.3-13.97-.51,2.13-.4,4.64.36,6.97.3.05.61.07.92.06-.25.14-.51.27-.77.37.36.99.84,1.92,1.43,2.79.48.18.97.31,1.47.38-.31.13-.64.23-.97.29.71.88,1.56,1.64,2.52,2.23,1.43-2.81,1.33-5.92.56-8.71,7.25,17.74,4.59,43.97,4.59,43.97h5.65s1.86-26.55-8.1-43.64c2.27,1.69,5.01,2.87,8.06,2.71Zm-14.28-10.52h0,0s0,0,0,0c0,0,0,0,0,0,0,0,0,0,0,0Z"/>
    </g>
  </g>
  <g id="Shadow">
    <path class="cls-10" d="m404.81,430.62c0,4.51-73.64,8.16-164.47,8.16s-164.47-3.65-164.47-8.16,73.64-8.16,164.47-8.16,164.47,3.65,164.47,8.16Z"/>
  </g>
  <g id="Lines">
    <path class="cls-17" d="m263.88,405.98c24.84,5.03,51.06,3.07,74.88-5.6"/>
    <path class="cls-17" d="m298.12,416.57c10.09,1.46,20.57.12,29.97-3.82"/>
  </g>
  <g id="Sun">
    <g id="freepik--Sun--inject-5">
      <g>
        <path class="cls-20" d="m391.82,78.52c0,2.99-4.33,5.37-5.06,8.12-.74,2.75,1.77,7.07.33,9.56-1.44,2.49-6.4,2.44-8.45,4.49-2.05,2.04-1.96,7-4.49,8.45s-6.71-1.09-9.56-.33c-2.85.76-5.14,5.06-8.12,5.06s-5.37-4.33-8.12-5.06c-2.75-.74-7.06,1.78-9.56.33-2.5-1.45-2.43-6.4-4.49-8.45-2.05-2.05-6.99-1.95-8.45-4.49-1.47-2.54,1.09-6.74.33-9.58-.76-2.84-5.06-5.13-5.06-8.12s4.33-5.36,5.06-8.11c.74-2.75-1.77-7.07-.33-9.56,1.44-2.49,6.4-2.44,8.45-4.5,2.05-2.05,1.96-6.99,4.49-8.45,2.53-1.47,6.71,1.1,9.56.33s5.14-5.06,8.12-5.06,5.37,4.33,8.12,5.06c2.75.73,7.06-1.77,9.56-.33,2.5,1.44,2.43,6.4,4.49,8.45,2.05,2.05,6.99,1.96,8.45,4.5,1.47,2.54-1.09,6.71-.33,9.56.76,2.85,5.06,5.15,5.06,8.13Z"/>
        <g class="cls-14">
          <path class="cls-2" d="m391.82,78.52c0,2.99-4.33,5.37-5.06,8.12-.74,2.75,1.77,7.07.33,9.56-1.44,2.49-6.4,2.44-8.45,4.49-2.05,2.04-1.96,7-4.49,8.45s-6.71-1.09-9.56-.33c-2.85.76-5.14,5.06-8.12,5.06s-5.37-4.33-8.12-5.06c-2.75-.74-7.06,1.78-9.56.33-2.5-1.45-2.43-6.4-4.49-8.45-2.05-2.05-6.99-1.95-8.45-4.49-1.47-2.54,1.09-6.74.33-9.58-.76-2.84-5.06-5.13-5.06-8.12s4.33-5.36,5.06-8.11c.74-2.75-1.77-7.07-.33-9.56,1.44-2.49,6.4-2.44,8.45-4.5,2.05-2.05,1.96-6.99,4.49-8.45,2.53-1.47,6.71,1.1,9.56.33s5.14-5.06,8.12-5.06,5.37,4.33,8.12,5.06c2.75.73,7.06-1.77,9.56-.33,2.5,1.44,2.43,6.4,4.49,8.45,2.05,2.05,6.99,1.96,8.45,4.5,1.47,2.54-1.09,6.71-.33,9.56.76,2.85,5.06,5.15,5.06,8.13Z"/>
        </g>
      </g>
      <circle class="cls-20" cx="356.46" cy="78.52" r="25.27" transform="translate(-7.15 110.42) rotate(-17.44)"/>
      <circle class="cls-6" cx="356.46" cy="78.52" r="25.27" transform="translate(-7.15 110.42) rotate(-17.44)"/>
    </g>
  </g>
  <g id="Character">
    <g>
      <g>
        <g>
          <g>
            <g id="freepik--fishes-1--inject-2">
              <path class="cls-23" d="m165.52,294.52s-9.91,3.43-9.52,4.41c.39.98,7.09,4.7,7.09,4.7l-.48,1.82s-6.75,4.16-6.33,5.47c.41,1.31,2.62,1.56,2.62,1.56-.28,5.24-.2,10.08,2.58,14.59l2.91.39,2.65,1.11s6.01-5.77,8.05-10.13c0,0,2.85,1.51,3.26.38.42-1.13-2.45-9.32-2.45-9.32l-7.83-13.79-2.55-1.2Z"/>
              <path class="cls-23" d="m178.99,297.45s7.17,9.39,5.23,9.3c-.93.78-3.17.53-4.16-1.1l-2.48-4.52,1.41-3.68Z"/>
              <path class="cls-20" d="m175.52,279.57s-20.15,13.99-12.98,48.74c.17,1.56-.25,3.13-1.18,4.4.55,1.05,1.85,1.45,2.9.9.05-.03.1-.05.15-.08.08-1.69.52-3.35,1.29-4.86,0,0,8.39-8.33,13.16-26.25,4.77-17.92-1.99-23.93-1.99-23.93l.59,2.92-1.95-1.82Z"/>
              <path class="cls-4" d="m161.38,332.65c.93-1.27,1.35-2.84,1.18-4.4-7.17-34.74,12.98-48.74,12.98-48.74l1.3,1.21-14.12,53c-.57-.18-1.04-.56-1.34-1.08Z"/>
              <path class="cls-11" d="m169.51,288.01s2.58,7.39,9.5,2.53c0,0-2.88,4.39-6.37,3.19-3.5-1.2-3.13-5.72-3.13-5.72Z"/>
              <path class="cls-23" d="m173.49,286.92c.74,0,1.33-.4,1.26-1-.06-.6-.66-.99-1.39-.98-.74,0-1.33.4-1.27.98.06.58.63,1,1.4,1Z"/>
            </g>
            <path class="cls-23" d="m171.86,296.11h1.12s2.22,7.84.04,9.8c-1.07.96-3,6.53-4.39,6.75-1.4.21,3.23-16.55,3.23-16.55Z"/>
          </g>
          <path class="cls-23" d="m162.2,330.49s-10.02,6.15-9.71,7.32c.31,1.17,7.2-2.16,8.69-1.76,1.49.4,3.95,6.75,5.05,6.71,1.09-.04-1.65-11.61-1.65-11.61l-1.12-.93-1.25.27Z"/>
        </g>
        <g>
          <g>
            <g id="freepik--fishes-1--inject-2-2" data-name="freepik--fishes-1--inject-2">
              <path class="cls-23" d="m163.79,314.23s5.53-8.91,4.6-9.42c-.92-.51-8.47.82-8.47.82l-.77-1.72s2.61-7.48,1.47-8.24c-1.15-.76-3.01.44-3.01.44-3.09-4.25-6.2-7.95-11.21-9.69l-2.51,1.53-2.76.81s-1.02,8.27.14,12.94c0,0-3.16.62-2.77,1.76.39,1.14,7.78,5.69,7.78,5.69l14.77,5.76,2.74-.68Z"/>
              <path class="cls-23" d="m151.49,320.45s-11.48-2.77-9.92-3.92c.23-1.19,2.12-2.41,3.92-1.77l4.78,1.94,1.23,3.75Z"/>
              <path class="cls-20" d="m165.46,332.15s6.81-23.56-20.66-46.01c-1.12-1.1-1.78-2.59-1.86-4.15-1.09-.47-2.35.04-2.82,1.13-.02.05-.04.1-.06.16,1.01,1.36,1.71,2.92,2.06,4.58,0,0-1.26,11.76,6.34,28.68,7.6,16.92,16.64,17.32,16.64,17.32l-2.3-1.89,2.66.19Z"/>
              <path class="cls-4" d="m142.96,282.02c.08,1.57.74,3.05,1.86,4.15,27.47,22.45,20.66,46.01,20.66,46.01l-1.77-.12-22.47-50.03c.55-.22,1.17-.22,1.72,0Z"/>
              <path class="cls-11" d="m164.8,321.8s-6.66-4.11-8.97,4.03c0,0-.53-5.22,2.94-6.49,3.47-1.27,6.04,2.46,6.04,2.46Z"/>
              <path class="cls-23" d="m162.4,325.15c-.57.47-.78,1.15-.35,1.57.43.42,1.13.35,1.7-.12.57-.47.78-1.15.36-1.56-.41-.41-1.12-.37-1.72.11Z"/>
            </g>
            <path class="cls-23" d="m157.87,316.99l-.87.71s-6.67-4.68-6.22-7.58c.22-1.42-1.79-6.96-.85-8.01.95-1.05,7.93,14.88,7.93,14.88Z"/>
          </g>
          <path class="cls-23" d="m143.68,284.23s3.9-11.09,2.92-11.8c-.98-.71-4.23,6.21-5.63,6.84-1.41.63-7.32-2.74-8.15-2.03-.82.72,8.6,7.97,8.6,7.97l1.45.02.8-1Z"/>
        </g>
        <g>
          <g>
            <path class="cls-23" d="m181.09,356.29l6.67-51.63h-54.75l6.67,51.63c-.58.16-1.01.68-1.01,1.31,0,.76.62,1.38,1.38,1.38h40.67c.76,0,1.38-.62,1.38-1.38,0-.63-.43-1.14-1.01-1.31Z"/>
            <path class="cls-3" d="m181.09,356.29l6.67-51.63h-54.75l6.67,51.63c-.58.16-1.01.68-1.01,1.31,0,.76.62,1.38,1.38,1.38h40.67c.76,0,1.38-.62,1.38-1.38,0-.63-.43-1.14-1.01-1.31Z"/>
          </g>
          <polygon class="cls-12" points="187.76 304.66 133.01 304.66 133.97 312.07 187.24 308.71 187.76 304.66"/>
          <g>
            <path class="cls-23" d="m191.51,302.22h-4.25c-1.09-13.88-12.73-24.84-26.88-24.84s-25.79,10.96-26.88,24.84h-4.25c-1.17,0-2.14.96-2.14,2.14s.96,2.14,2.14,2.14h62.26c1.17,0,2.14-.96,2.14-2.14s-.96-2.14-2.14-2.14Zm-31.13-23.63c13.49,0,24.57,10.42,25.66,23.63h-51.33c1.09-13.21,12.17-23.63,25.66-23.63Z"/>
            <path class="cls-3" d="m191.51,302.22h-4.25c-1.09-13.88-12.73-24.84-26.88-24.84s-25.79,10.96-26.88,24.84h-4.25c-1.17,0-2.14.96-2.14,2.14s.96,2.14,2.14,2.14h62.26c1.17,0,2.14-.96,2.14-2.14s-.96-2.14-2.14-2.14Zm-31.13-23.63c13.49,0,24.57,10.42,25.66,23.63h-51.33c1.09-13.21,12.17-23.63,25.66-23.63Z"/>
          </g>
        </g>
        <g class="cls-7">
          <path class="cls-2" d="m142.72,314.78c.98,2.55,2.31,5.12,4.57,6.65,2.1,1.51,5.26,2.01,7.29.18.91-.66,1.05-1.75,1.9-2.47,1.03-.8,2.66-.54,3.36.59,2.02,3.08,1.26,7.06,1.43,10.34.05,2.52,1.01,5.45,3.61,6.22,1.18.36,2.47-.06,3.39-.94,3.09-2.99,2.19-7.59,3.53-11.46.89-2.53,3.36-5.22,6.27-4.56-2.85-.41-5.07,2.23-5.8,4.71-1.26,4.32,0,11.13-5.34,13.1-2.27.73-4.66-.83-5.65-2.82-2.32-4.44.43-9.92-2.19-14.11-.6-.98-2.18-.86-2.61.28-1.79,3.56-6.67,3.67-9.48,1.34-2.28-1.76-3.51-4.43-4.28-7.05h0Z"/>
        </g>
        <circle class="cls-8" cx="154.68" cy="337.34" r="2.19"/>
      </g>
      <g>
        <g>
          <g>
            <path class="cls-22" d="m161.13,162.41l27.5,3.06s20.28-22.62,20.28-22.07,7.4,21.84,7.4,21.84c0,0-17.72,17.2-23.52,18.87-5.79,1.67-32.55-11.52-32.55-11.52l.88-10.18Z"/>
            <path class="cls-22" d="m165.03,164.17s-9.37-6.85-11.84-5.94c-2.48.92-14.55,2.6-13.05,5.84.19.42,4.45.07,4.57.43.13.38-2.62.58-3.58,1.6-1.25,1.32,1.48,5.61,3.55,5.48,4.55-.27,8.04-1.04,8.04-1.04,0,0,5.66,3.67,9.6,2.87,3.94-.8,2.71-9.25,2.71-9.25Z"/>
            <path class="cls-13" d="m160.39,169.9c-2.94,0-5.74-2.13-6.53-4.96-2.14.8-4.39,1.3-6.66,1.47-.59.04-1.26.04-1.67-.4-.42-.45-.35-1.19-.02-1.7.34-.51.88-.83,1.42-1.13,2.45-1.35,5.07-2.38,7.79-3.07"/>
            <path class="cls-22" d="m153.18,158.23s-12.01.39-12.85,1.6c-.85,1.21,5.23.78,5.23.78l7.62-2.39Z"/>
          </g>
          <path class="cls-20" d="m238.29,138.35c-2.57,22.81-33.97,42.1-33.97,42.1-6.66-.73-13.21-11.75-14.15-18.96,0,0,19.26-26.97,29.04-32.3,9.05-4.94,20.26-1.22,19.08,9.16Z"/>
          <g class="cls-11">
            <path d="m238.29,138.35c-2.57,22.81-33.97,42.1-33.97,42.1-6.66-.73-13.21-11.75-14.15-18.96,0,0,19.26-26.97,29.04-32.3,9.05-4.94,20.26-1.22,19.08,9.16Z"/>
          </g>
          <path class="cls-12" d="m205.6,179.68l5.54-29.48-10.34,28.96s1.46,1.28,3.52,1.29c.11,0,1.28-.77,1.28-.77Z"/>
        </g>
        <g>
          <g>
            <path class="cls-20" d="m232.23,284.22c5.66-21.81,20.44-47.8,11.09-68.8l-40.07-9.3s-1.56,52.39-1.84,72.79c-.29,21.21,4.19,47.62,4.19,47.62l22.78.24s2.51-18.08,3.84-42.56Z"/>
            <path class="cls-4" d="m232.23,284.22c5.66-21.81,20.44-47.8,11.09-68.8l-40.07-9.3s-1.56,52.39-1.84,72.79c-.29,21.21,4.19,47.62,4.19,47.62l22.78.24s2.51-18.08,3.84-42.56Z"/>
            <path class="cls-12" d="m243.46,236.07c.19,5.04-.08,10.22-.63,15.44-1.98,6.86-4.52,13.73-6.79,20.39-2.98-18.87-2.99-40.85,7.42-35.83Z"/>
            <path class="cls-20" d="m274.8,277.16c1.97-22.05,2.46-53.94,2.69-73.92l-44.72,10.98s5.31,45.03,9.29,65.37c4.13,21.15,8.8,47.24,8.8,47.24l22.95.88s2.15-23.62,1-50.55Z"/>
            <path class="cls-12" d="m204.2,266.61c-.98,0-1.78.39-2.66.96-.25,11-.19,21.26.63,30.71.65.29,1.33.45,2.03.45,4.75,0,8.6-7.19,8.6-16.06s-3.85-16.06-8.6-16.06Z"/>
            <path class="cls-12" d="m242.75,268.56c-.97.16-1.61.64-2.39,1.34,1.84,10.78,3.89,20.94,5.52,30.24.69.18,1.39.23,2.08.11,4.69-.77,7.32-8.49,5.88-17.24-1.44-8.75-6.41-15.22-11.09-14.45Z"/>
            <path class="cls-4" d="m274.8,277.16c1.97-22.05,2.46-53.94,2.69-73.92l-44.72,10.98s5.31,45.03,9.29,65.37c4.13,21.15,8.8,47.24,8.8,47.24l22.95.88s2.15-23.62,1-50.55Z"/>
          </g>
          <g>
            <path class="cls-23" d="m227.78,345.07c-.11,1.25,1.97,6.89,1.54,11.3-.1,1.03-.2,2-.28,2.85h0c-.19,1.9-.31,3.2-.31,3.2l-7.84.07s-1.59-.83-2.52-.71c-.93.12-4.15.76-4.15.76l-20.81.18c.16-.87.36-1.65.59-2.34.28-.84.6-1.56.97-2.16,1.27-2.11,3.02-2.88,4.93-3.02,2.91-.21,7.5-3.52,7.5-3.52l-3.94-27.93,26.12-.67-1.81,21.97Z"/>
            <path class="cls-12" d="m218.37,361.78c.93-.12,2.52.71,2.52.71l7.84-.07s.13-1.3.31-3.2h0c.03-.31.06-.66.1-1-.77.1-1.51.22-1.51.22l-5.08-3.73-3.39-.9-2.37.45-2.03,1.5-.68,2.07h-3.61l-2.43,1.07c-3.84-1.24-4.65-1.26-4.65-1.26l-1.98,1.36c-.59,0-6.19.79-6.53.9l-.68-.07c-.07.17-.13.35-.19.54-.23.69-.43,1.47-.59,2.34l20.81-.18s3.22-.64,4.15-.76Z"/>
            <path class="cls-12" d="m220.81,352.16l1.03,1.03h1.07l.72-1.03-.65-1.14s-.41-.41-.52-.41-1.65,1.55-1.65,1.55Z"/>
            <polygon class="cls-12" points="211.28 354.48 209.98 355.36 211.28 356.41 212.8 356.41 212.59 355.15 211.28 354.48"/>
            <polygon class="cls-12" points="211.19 353.3 211.79 353.81 212.13 353.05 211.87 352.66 211.35 352.58 211.19 353.3"/>
          </g>
          <g>
            <path class="cls-23" d="m273.5,345.07c-.11,1.25,1.97,6.89,1.54,11.3-.1,1.03-.2,2-.28,2.85h0c-.19,1.9-.31,3.2-.31,3.2l-7.84.07s-1.59-.83-2.52-.71c-.93.12-4.15.76-4.15.76l-20.81.18c.16-.87.36-1.65.59-2.34.28-.84.6-1.56.97-2.16,1.27-2.11,3.02-2.88,4.93-3.02,2.91-.21,7.5-3.52,7.5-3.52l-3.94-27.93,26.12-.67-1.81,21.97Z"/>
            <path class="cls-12" d="m264.09,361.78c.93-.12,2.52.71,2.52.71l7.84-.07s.13-1.3.31-3.2h0c.03-.31.06-.66.1-1-.77.1-1.51.22-1.51.22l-5.08-3.73-3.39-.9-2.37.45-2.03,1.5-.68,2.07h-3.61l-2.43,1.07c-3.84-1.24-4.65-1.26-4.65-1.26l-1.98,1.36c-.59,0-6.19.79-6.53.9l-.68-.07c-.07.17-.13.35-.19.54-.23.69-.43,1.47-.59,2.34l20.81-.18s3.22-.64,4.15-.76Z"/>
            <path class="cls-12" d="m266.53,352.16l1.03,1.03h1.07l.72-1.03-.65-1.14s-.41-.41-.52-.41-1.65,1.55-1.65,1.55Z"/>
            <polygon class="cls-12" points="257 354.48 255.7 355.36 257 356.41 258.52 356.41 258.31 355.15 257 354.48"/>
            <polygon class="cls-12" points="256.91 353.3 257.51 353.81 257.85 353.05 257.59 352.66 257.07 352.58 256.91 353.3"/>
          </g>
        </g>
        <g>
          <path class="cls-20" d="m227.58,125.25c12-1.25,28.04-1.1,40.48.64,7.76,1.09,13.25,5.92,12.3,21.82-1.91,32.26,1.23,64.71-2.88,76.31,0,0-59.06,8.95-76.08-7.44,2.92-36.13,8.95-70.2,15.31-83.62,2.03-4.29,6.14-7.23,10.87-7.72Z"/>
          <path class="cls-11" d="m227.58,125.25c12-1.25,28.04-1.1,40.48.64,7.76,1.09,13.25,5.92,12.3,21.82-1.91,32.26,1.23,64.71-2.88,76.31,0,0-59.06,8.95-76.08-7.44,2.92-36.13,8.95-70.2,15.31-83.62,2.03-4.29,6.14-7.23,10.87-7.72Z"/>
        </g>
        <g>
          <g>
            <path class="cls-20" d="m247.1,76.14c-7.95,1.44-17.81,11.36-17.81,11.36,0,0-.1,8.68,9.15,14.62s16.62,5.82,20.51,2.16c3.22-3.02,2.69-14.85,2.41-18.87-.07-1.02-.42-2.01-1.06-2.8-1.39-1.72-3.43-2.87-5.71-3.18,0,0-2.23-4.15-7.49-3.29Z"/>
            <path class="cls-12" d="m247.1,76.14c-7.95,1.44-17.81,11.36-17.81,11.36,0,0-.1,8.68,9.15,14.62s16.62,5.82,20.51,2.16c3.22-3.02,2.69-14.85,2.41-18.87-.07-1.02-.42-2.01-1.06-2.8-1.39-1.72-3.43-2.87-5.71-3.18,0,0-2.23-4.15-7.49-3.29Z"/>
            <path class="cls-12" d="m240.97,78.52c.23-.13,14.7,3.11,20.6,12.86v2.79s-22.42-14.57-22.42-14.57l1.82-1.08Z"/>
            <path class="cls-20" d="m234.8,78.52c-16.44-2.45-18.42,18.15-.56,29.09,17.87,10.94,36.92,9.45,36.59,2.11-.37-8.36-10.94-27.42-36.04-31.19Z"/>
            <path class="cls-12" d="m258.88,99.47s2.48,4.26,2.73,7.91c.35,4.99-4.3,8.03-4.3,8.03l-3.74-.43.49-6.38,4.82-9.13Z"/>
          </g>
          <path class="cls-23" d="m234.6,90.67c-4.4,3.33-6.1,5.02-6.1,5.02,0,0,1.29.4,2.15,0-1.82,3.17-1.11,7.5-.2,8.78,4.49-4.21,4.14-13.81,4.14-13.81Z"/>
          <path class="cls-5" d="m234.6,90.67c-4.4,3.33-6.1,5.02-6.1,5.02,0,0,1.29.4,2.15,0-1.82,3.17-1.11,7.5-.2,8.78,4.49-4.21,4.14-13.81,4.14-13.81Z"/>
          <path class="cls-22" d="m256.05,124.74c-3-2.69-2.87-7.3-2.5-14.08l-18.42,9.94c.95,1.89,1.19,3.61.85,5.26l4.47,8.74s15.98-9.32,15.6-9.85Z"/>
          <path class="cls-12" d="m235.4,121.18l14.54-3.64c-3.67,5.78-10.29,8.95-13.85,7.55.11-1.24-.1-2.53-.69-3.91Z"/>
          <path class="cls-22" d="m241.42,88.01c7.04.69,16.93,6.95,16.07,14.57-1,8.85-3.33,14.59-9.36,17.56-11.97,5.9-17.82.21-18.8-8.9-.88-8.2,2.13-24.21,12.08-23.23Z"/>
          <path class="cls-23" d="m253.49,93.63c.46,3.81-.08,7.52-2.13,8.55,2.74.08,3.73-.45,3.73-.45,0,0-4.87,3.69-1.6,6.07,3.74-2.14,6.26-5.76,6.26-5.76,0,0-.63-4.91-6.26-8.41Z"/>
          <path class="cls-12" d="m244.8,102.14s1.92-.66,3.36.24c-1.85.23-3.36-.24-3.36-.24Z"/>
          <path class="cls-12" d="m244.8,102.94s1.84-.22,2.89.97c-1.68-.18-2.89-.97-2.89-.97Z"/>
          <path class="cls-21" d="m236.13,102.56l.04,6.53s-2.1.52-3.35-.62c.7-3.34,3.3-5.91,3.3-5.91Z"/>
          <path class="cls-23" d="m253.49,93.63c-3.3-.15-12.08-2.64-12.08-2.64,0,0,1.23-.87,2.59-.99-4.41.08-6.77,2.25-12.96,1.03.92-1.66,5.86-4.14,12.33-3.06,6.47,1.08,10.12,5.66,10.12,5.66Z"/>
          <path class="cls-5" d="m253.49,93.63c.46,3.81-.08,7.52-2.13,8.55,2.74.08,3.73-.45,3.73-.45,0,0-4.87,3.69-1.6,6.07,3.74-2.14,6.26-5.76,6.26-5.76,0,0-.63-4.91-6.26-8.41Z"/>
          <path class="cls-5" d="m253.49,93.63c-3.3-.15-12.08-2.64-12.08-2.64,0,0,1.23-.87,2.59-.99-4.41.08-6.77,2.25-12.96,1.03.92-1.66,5.86-4.14,12.33-3.06,6.47,1.08,10.12,5.66,10.12,5.66Z"/>
          <path class="cls-22" d="m260.01,108.98c-.91,2.23-2.77,3.81-4.61,4.53-2.77,1.08-3.5-1.9-3-4.68.45-2.5,1.46-5.51,4.37-5.4,2.87.1,4.29,3.01,3.25,5.55Z"/>
          <path class="cls-23" d="m244.43,102.93c-.08.91-.63,1.6-1.22,1.54-.59-.06-1.01-.84-.93-1.75.08-.91.63-1.6,1.22-1.54.59.06,1.01.84.93,1.75Z"/>
          <path class="cls-23" d="m234.99,102.01c-.08.91-.63,1.6-1.22,1.54-.59-.06-1.01-.84-.93-1.75.08-.91.63-1.6,1.22-1.54.59.06,1.01.84.93,1.75Z"/>
          <path class="cls-23" d="m245.33,98.24c-.14.04-.3.01-.42-.1-1.4-1.31-2.94-.96-2.95-.95-.23.05-.46-.09-.52-.31-.06-.23.08-.46.31-.51.08-.02,2-.46,3.74,1.16.17.16.18.43.02.6-.05.06-.12.09-.18.11Z"/>
          <path class="cls-23" d="m253.64,105.88s-1.2-1.13-2.62.77c-1.42,1.9-.25,4.62-4.53,3.34-3.68-1.09-5.19-1.58-7.4.09-4.27-.42-8.21.09-9.2.76-.95-1.26-.64-3.13-.54-5.89-1.33,5.63-3.11,10.48-1.48,12.59,0,0,.45-.85.73-1.08,0,2.57,1.78,5.62,3.95,6.89.27-.94.27-1.58.27-1.58,0,0,2.03,1.15,6.38,1.05-.23.47-.58,1.03-1.02,1.29,1.41-.15,4.26-.9,5.96-1.86.22-.04.43-.08.66-.13-.5.75-.59,1.46-.45,2.12,7.63-2.12,8.62-9.32,8.05-12.17-.64-3.16,1.24-6.18,1.24-6.18Z"/>
          <path class="cls-5" d="m253.64,105.88s-1.2-1.13-2.62.77c-1.42,1.9-.25,4.62-4.53,3.34-3.68-1.09-5.19-1.58-7.4.09-4.27-.42-8.21.09-9.2.76-.95-1.26-.64-3.13-.54-5.89-1.33,5.63-3.11,10.48-1.48,12.59,0,0,.45-.85.73-1.08,0,2.57,1.78,5.62,3.95,6.89.27-.94.27-1.58.27-1.58,0,0,2.03,1.15,6.38,1.05-.23.47-.58,1.03-1.02,1.29,1.41-.15,4.26-.9,5.96-1.86.22-.04.43-.08.66-.13-.5.75-.59,1.46-.45,2.12,7.63-2.12,8.62-9.32,8.05-12.17-.64-3.16,1.24-6.18,1.24-6.18Z"/>
          <path class="cls-17" d="m238.49,111.58c1.47.14,2.68-.49,3.92-1.49"/>
          <path class="cls-13" d="m258.2,107.02c-.31-.56-1.02-.82-1.66-.72-.63.1-1.19.5-1.62.98-.51.58-.86,1.29-1.02,2.05"/>
          <path class="cls-23" d="m230.19,97.53c-.08-.02-.15-.07-.2-.14-.15-.18-.12-.45.06-.6,1.82-1.5,3.69-.91,3.78-.89.22.07.35.31.28.54-.07.22-.31.35-.53.28-.08-.03-1.53-.47-2.99.74-.11.09-.26.12-.39.08Z"/>
        </g>
        <g>
          <path class="cls-18" d="m247.18,175.13c-9.35,14.31-32.38,33.84-62.29,28.93-29.92-4.91-34.27-38.16-34.27-38.16.79,12.99,5.4,25.78,14.52,35.06,5.39,5.48,12.97,8.48,20.61,9.31,7.64.83,15.38-.35,22.82-2.3,8.7-2.28,17.25-5.66,24.39-11.13,7.14-5.47,12.8-13.2,14.59-22.01-13.76,11.63-31.35,19.56-49.35,18.8-18-.77-37.9-11.86-44.52-28.62"/>
          <line class="cls-18" x1="150.62" y1="169.52" x2="155.05" y2="168.07"/>
          <line class="cls-18" x1="151.77" y1="174.77" x2="157.52" y2="172.21"/>
          <line class="cls-18" x1="152.91" y1="180.24" x2="160.39" y2="176.3"/>
          <line class="cls-18" x1="154.91" y1="185.34" x2="164.34" y2="180.37"/>
          <line class="cls-18" x1="157.63" y1="191.25" x2="169.14" y2="183.67"/>
          <line class="cls-18" x1="161.71" y1="197.08" x2="173.81" y2="186.58"/>
          <line class="cls-18" x1="166.65" y1="202.29" x2="178.42" y2="188.88"/>
          <line class="cls-18" x1="171.92" y1="206.37" x2="182.99" y2="190.67"/>
          <line class="cls-18" x1="178.59" y1="209.03" x2="188.28" y2="191.99"/>
          <line class="cls-18" x1="187.34" y1="210.42" x2="194.01" y2="193.44"/>
          <path class="cls-18" d="m152.21,165.49s9.26,34.37,43.48,33.94c0,0,28.7.75,51.49-24.3"/>
          <line class="cls-18" x1="196.73" y1="210.42" x2="199.08" y2="193.66"/>
          <line class="cls-18" x1="204.58" y1="208.93" x2="204.58" y2="193.47"/>
          <line class="cls-18" x1="212.44" y1="206.87" x2="209.97" y2="192.92"/>
          <line class="cls-18" x1="223.28" y1="202.71" x2="218.54" y2="190.89"/>
          <line class="cls-18" x1="230.61" y1="198.52" x2="224.81" y2="188.69"/>
          <line class="cls-18" x1="238.32" y1="191.99" x2="231.68" y2="185.43"/>
          <line class="cls-18" x1="237.07" y1="182.46" x2="243.01" y2="185.93"/>
          <circle class="cls-20" cx="212.44" cy="206.87" r="2.81"/>
          <path class="cls-20" d="m241.03,192.89c0,1.55-1.26,2.81-2.81,2.81s-2.81-1.26-2.81-2.81,1.26-2.81,2.81-2.81,2.81,1.26,2.81,2.81Z"/>
          <circle class="cls-20" cx="179.09" cy="209.57" r="2.81"/>
          <path class="cls-20" d="m160.27,192.51c0,1.55-1.26,2.81-2.81,2.81s-2.81-1.26-2.81-2.81,1.26-2.81,2.81-2.81,2.81,1.26,2.81,2.81Z"/>
          <path class="cls-20" d="m154.49,168c0,1.55-1.26,2.81-2.81,2.81s-2.81-1.26-2.81-2.81,1.26-2.81,2.81-2.81,2.81,1.26,2.81,2.81Z"/>
        </g>
        <g>
          <path class="cls-22" d="m274.78,138.86c1.26,2.06,12.95-.52,16.56,9.96,3.62,10.48,13.14,33.79,10.65,42.13-2.49,8.34-45.63-11.74-45.63-11.74l1.15-11.41,22.17,4.55-4.91-33.49Z"/>
          <path class="cls-20" d="m271.38,126.7c21.66,7.59,33.47,44.98,33.47,44.98-2.2,6.33-18.79,1.17-26.03.47,0,0-17.61-18.18-20.63-28.89-2.8-9.92,3.32-20.02,13.19-16.56Z"/>
          <g class="cls-11">
            <path d="m271.38,126.7c21.66,7.59,33.47,44.98,33.47,44.98-2.2,6.33-18.79,1.17-26.03.47,0,0-17.61-18.18-20.63-28.89-2.8-9.92,3.32-20.02,13.19-16.56Z"/>
          </g>
          <path class="cls-12" d="m278.82,172.15l-6.18-13.23s.82,11.83,1.54,12.18l4.64,1.05Z"/>
          <path class="cls-22" d="m252.46,166.55s-5.29-2.61-9.48-2.83c-4.19-.22-6.11,9.57-6.11,9.57-.35,7.25,5.88,4.85,5.88,4.85,1.08,3.86,4.77,2.43,4.77,2.43.84,3.9,3.54,2.33,3.54,2.33.83-4.15,5.3-3.69,5.3-3.69l10.42,4.15,16.29-8.26-30.61-8.55Z"/>
        </g>
      </g>
      <g>
        <path class="cls-9" d="m38.55,312.61s43.37,52.27,108.88,64.52c38.72,7.24,247.6,3.23,247.6,3.23l29.03-42.74s-229.05-5.65-385.51-25Z"/>
        <path class="cls-12" d="m147.42,377.13c6.71,1.26,18.55,2.17,33.51,2.83l119.3,1.45c51.11-.22,94.78-1.06,94.78-1.06l28.84-42.46-1.5-.08c-26.24,35.29-165.07,29.01-232.48,26.71-97.88-3.34-151.34-51.92-151.34-51.92,0,0,43.37,52.27,108.88,64.52Z"/>
      </g>
      <g>
        <g>
          <path class="cls-18" d="m252.97,180.23l-3.84,1.88s-6.89,207.73-5.66,208.31c26.15,6.54,52.32,9.43,78.54-.63,24.61-11.43,73.41-6.11,121.94-.98,0,.56-190.97-208.58-190.97-208.58Z"/>
          <line class="cls-18" x1="250.36" y1="181.51" x2="319.88" y2="390.58"/>
          <line class="cls-18" x1="251.56" y1="180.45" x2="356.08" y2="383.21"/>
          <path class="cls-18" d="m243.52,373.81s33.95,9.71,61,3.74c27.05-5.98,69.85-15.13,125.95-3.26"/>
          <path class="cls-18" d="m243.52,358.85s33.95,9.71,61,3.74c24.34-5.38,61.43-13.33,109.49-6.22"/>
          <path class="cls-18" d="m244.18,344.06s33.29,9.53,60.34,3.56c21.68-4.79,53.47-11.62,94.12-8.03"/>
          <path class="cls-18" d="m244.41,329.33s33.06,9.3,60.11,3.32c19.19-4.24,45.54-10,79.71-8.8"/>
          <path class="cls-18" d="m244.78,314.28s32.69,9.38,59.74,3.4c16.37-3.62,38.5-8.4,65.85-8.98"/>
          <path class="cls-18" d="m245.29,299.45s32.18,9.24,59.23,3.27c13.74-3.04,31.55-6.89,53.11-8.4"/>
          <path class="cls-18" d="m245.88,284.75s31.59,8.97,58.64,2.99c10.94-2.42,24.45-5.35,40.38-7.21"/>
          <path class="cls-18" d="m246.2,269.88s31.28,8.87,58.33,2.9c7.98-1.76,17.32-3.8,27.97-5.5"/>
          <path class="cls-18" d="m246.8,254.92s30.67,8.87,57.73,2.89c4.99-1.1,10.04-2.36,16.09-3.53"/>
          <path class="cls-18" d="m247.06,240.01s30.41,8.8,57.46,2.82c1.52-.33,3.08-.68,4.69-1.03"/>
          <path class="cls-18" d="m247.59,225.17s25.03,7.27,50.01,3.92"/>
          <path class="cls-18" d="m248.2,210.54s16.72,4.76,36.56,4.51"/>
          <path class="cls-18" d="m248.69,195.49s9.11,2.66,21.89,3.93"/>
          <polyline class="cls-18" points="297.83 395.87 249.13 182.12 274.86 395.92"/>
          <polyline class="cls-18" points="415.64 385.91 252.97 180.23 383.8 383.21"/>
          <path class="cls-20" d="m287.79,214.65c0,1.37-1.11,2.47-2.47,2.47s-2.47-1.11-2.47-2.47,1.11-2.47,2.47-2.47,2.47,1.11,2.47,2.47Z"/>
          <path class="cls-20" d="m303.7,231.61c0,1.37-1.11,2.47-2.47,2.47s-2.47-1.11-2.47-2.47,1.11-2.47,2.47-2.47,2.47,1.11,2.47,2.47Z"/>
          <path class="cls-20" d="m317.83,247.17c0,1.37-1.11,2.47-2.47,2.47s-2.47-1.11-2.47-2.47,1.11-2.47,2.47-2.47,2.47,1.11,2.47,2.47Z"/>
          <path class="cls-20" d="m335.77,265.81c0,1.37-1.11,2.47-2.47,2.47s-2.47-1.11-2.47-2.47,1.11-2.47,2.47-2.47,2.47,1.11,2.47,2.47Z"/>
          <path class="cls-20" d="m354.89,289.24c0,1.37-1.11,2.47-2.47,2.47s-2.47-1.11-2.47-2.47,1.11-2.47,2.47-2.47,2.47,1.11,2.47,2.47Z"/>
          <path class="cls-20" d="m376.49,311.71c0,1.37-1.11,2.47-2.47,2.47s-2.47-1.11-2.47-2.47,1.11-2.47,2.47-2.47,2.47,1.11,2.47,2.47Z"/>
          <path class="cls-20" d="m246.2,329.32c0,1.37-1.11,2.47-2.47,2.47s-2.47-1.11-2.47-2.47,1.11-2.47,2.47-2.47,2.47,1.11,2.47,2.47Z"/>
          <path class="cls-20" d="m244.82,303.12c-1.37.05-2.51-1.02-2.56-2.39-.05-1.37,1.02-2.51,2.39-2.56,1.37-.05,2.51,1.02,2.56,2.39.05,1.37-1.02,2.51-2.39,2.56Z"/>
          <path class="cls-20" d="m246.19,279.63c-1.37.05-2.51-1.02-2.56-2.39-.05-1.37,1.02-2.51,2.39-2.56,1.37-.05,2.51,1.02,2.56,2.39.05,1.37-1.02,2.51-2.39,2.56Z"/>
          <path class="cls-20" d="m246.43,253.63c-1.37.05-2.51-1.02-2.56-2.39-.05-1.37,1.02-2.51,2.39-2.56,1.37-.05,2.51,1.02,2.56,2.39.05,1.37-1.02,2.51-2.39,2.56Z"/>
          <path class="cls-20" d="m247.38,227.64c-1.37.05-2.51-1.02-2.56-2.39-.05-1.37,1.02-2.51,2.39-2.56,1.37-.05,2.51,1.02,2.56,2.39.05,1.37-1.02,2.51-2.39,2.56Z"/>
          <path class="cls-20" d="m248.49,200.61c-1.37.05-2.51-1.02-2.56-2.39-.05-1.37,1.02-2.51,2.39-2.56,1.37-.05,2.51,1.02,2.56,2.39.05,1.37-1.02,2.51-2.39,2.56Z"/>
          <path class="cls-20" d="m246,358.85c0,1.37-1.11,2.47-2.47,2.47s-2.47-1.11-2.47-2.47,1.11-2.47,2.47-2.47,2.47,1.11,2.47,2.47Z"/>
          <circle class="cls-20" cx="243.52" cy="388.1" r="2.47"/>
          <path class="cls-20" d="m393.71,331.5c0,1.37-1.11,2.47-2.47,2.47s-2.47-1.11-2.47-2.47,1.11-2.47,2.47-2.47,2.47,1.11,2.47,2.47Z"/>
          <path class="cls-20" d="m416.49,356.37c0,1.37-1.11,2.47-2.47,2.47s-2.47-1.11-2.47-2.47,1.11-2.47,2.47-2.47,2.47,1.11,2.47,2.47Z"/>
          <path class="cls-20" d="m437.73,379.5c0,1.37-1.11,2.47-2.47,2.47s-2.47-1.11-2.47-2.47,1.11-2.47,2.47-2.47,2.47,1.11,2.47,2.47Z"/>
        </g>
        <g>
          <g>
            <g id="freepik--fishes-1--inject-2-3" data-name="freepik--fishes-1--inject-2">
              <path class="cls-23" d="m309.82,278.91s-8.68,3.01-8.34,3.86c.34.86,6.21,4.12,6.21,4.12l-.42,1.6s-5.91,3.64-5.55,4.79c.36,1.15,2.29,1.37,2.29,1.37-.25,4.59-.17,8.83,2.26,12.78l2.55.34,2.32.97s5.26-5.06,7.05-8.88c0,0,2.49,1.33,2.86.34.36-.99-2.15-8.17-2.15-8.17l-6.86-12.08-2.24-1.05Z"/>
              <path class="cls-23" d="m321.63,281.48s6.28,8.23,4.58,8.15c-.82.68-2.77.47-3.64-.97l-2.17-3.96,1.24-3.23Z"/>
              <path class="cls-20" d="m318.59,265.81s-17.65,12.26-11.37,42.7c.15,1.37-.22,2.74-1.03,3.85.48.92,1.62,1.27,2.54.79.04-.02.09-.05.13-.07.07-1.48.45-2.93,1.13-4.25,0,0,7.35-7.3,11.53-23,4.18-15.7-1.74-20.97-1.74-20.97l.52,2.55-1.71-1.6Z"/>
              <path class="cls-4" d="m306.19,312.32c.81-1.11,1.18-2.48,1.03-3.85-6.28-30.44,11.37-42.7,11.37-42.7l1.14,1.06-12.37,46.43c-.5-.16-.91-.49-1.17-.94Z"/>
              <path class="cls-11" d="m313.32,273.21s2.26,6.47,8.33,2.22c0,0-2.52,3.84-5.58,2.79-3.06-1.05-2.74-5.01-2.74-5.01Z"/>
              <path class="cls-23" d="m316.8,272.25c.64,0,1.16-.35,1.11-.87-.06-.52-.58-.87-1.22-.86s-1.16.35-1.11.86c.05.51.55.87,1.23.87Z"/>
            </g>
            <path class="cls-23" d="m315.38,280.3h.98s1.95,6.87.04,8.59c-.94.84-2.63,5.72-3.85,5.91-1.22.19,2.83-14.5,2.83-14.5Z"/>
          </g>
          <path class="cls-23" d="m306.92,310.42s-8.78,5.39-8.51,6.41c.27,1.03,6.31-1.89,7.61-1.54,1.3.35,3.46,5.91,4.42,5.88.96-.03-1.44-10.18-1.44-10.18l-.98-.82-1.1.24Z"/>
        </g>
        <g>
          <g>
            <g id="freepik--fishes-1--inject-2-4" data-name="freepik--fishes-1--inject-2">
              <path class="cls-23" d="m296.02,338.45s-6.61-4.3-7.01-3.61c-.4.69.48,6.38.48,6.38l-1.3.55s-5.58-2.08-6.17-1.23c-.59.85.28,2.27.28,2.27-3.24,2.25-6.07,4.54-7.47,8.27l1.11,1.91.56,2.09s6.2.9,9.73.1c0,0,.42,2.39,1.28,2.11.86-.28,4.4-5.76,4.4-5.76l4.57-11.01-.47-2.07Z"/>
              <path class="cls-23" d="m300.5,347.8s-2.26,8.59-3.11,7.4c-.89-.2-1.78-1.63-1.27-2.98l1.54-3.56,2.84-.86Z"/>
              <path class="cls-20" d="m309.52,337.49s-17.61-5.49-34.92,14.8c-.85.82-1.97,1.3-3.15,1.33-.37.81,0,1.77.8,2.14.04.02.08.03.12.05,1.04-.74,2.23-1.24,3.48-1.48,0,0,8.82,1.13,21.66-4.31,12.84-5.44,13.29-12.23,13.29-12.23l-1.46,1.7.18-2Z"/>
              <path class="cls-4" d="m271.48,353.6c1.18-.03,2.31-.51,3.15-1.33,17.31-20.3,34.92-14.8,34.92-14.8l-.12,1.33-37.97,16.09c-.16-.42-.15-.88.02-1.29Z"/>
              <path class="cls-11" d="m301.73,337.82s-3.19,4.94,2.89,6.81c0,0-3.93.32-4.83-2.31-.9-2.63,1.95-4.5,1.95-4.5Z"/>
              <path class="cls-23" d="m304.21,339.68c.34.43.85.6,1.17.29.33-.31.28-.85-.06-1.28-.34-.43-.85-.6-1.17-.3-.32.3-.3.83.05,1.29Z"/>
            </g>
            <path class="cls-23" d="m298.01,342.95l.52.67s-3.63,4.94-5.8,4.55c-1.06-.19-5.26,1.24-6.03.51-.77-.73,11.31-5.73,11.31-5.73Z"/>
          </g>
          <path class="cls-23" d="m273.15,353.1s-8.28-3.11-8.83-2.39c-.55.73,4.6,3.28,5.05,4.34.45,1.07-2.18,5.46-1.65,6.09.53.63,6.13-6.34,6.13-6.34l.04-1.09-.74-.62Z"/>
        </g>
        <g>
          <g>
            <g id="freepik--fishes-1--inject-2-5" data-name="freepik--fishes-1--inject-2">
              <path class="cls-23" d="m327.1,328.1s3.98,6.81,4.64,6.38c.66-.43,2.44-5.92,2.44-5.92l1.41.09s4.05,4.37,4.96,3.87c.91-.5.77-2.16.77-2.16,3.91-.56,7.47-1.32,10.39-4.03l-.14-2.2.43-2.12s-5.13-3.59-8.65-4.46c0,0,.7-2.32-.19-2.46-.9-.14-6.52,3.17-6.52,3.17l-9.03,7.79-.51,2.06Z"/>
              <path class="cls-23" d="m327.29,317.74s5.88-6.65,6.1-5.21c.71.58.85,2.26-.21,3.23l-2.97,2.49-2.92-.5Z"/>
              <path class="cls-20" d="m314.61,322.9s13.26,12.82,37.84,2.47c1.13-.35,2.35-.27,3.41.23.69-.56.8-1.58.24-2.27-.03-.03-.05-.07-.08-.1-1.26.19-2.55.11-3.77-.24,0,0-7.37-4.98-21.29-5.88-13.92-.91-17.36,4.96-17.36,4.96l2.06-.86-1.06,1.7Z"/>
              <path class="cls-4" d="m355.83,325.6c-1.07-.5-2.29-.58-3.41-.23-24.58,10.35-37.84-2.47-37.84-2.47l.71-1.13,41.15,2.68c-.05.44-.26.85-.6,1.14Z"/>
              <path class="cls-11" d="m321.71,326.1s5.07-2.98.48-7.38c0,0,3.66,1.48,3.28,4.24-.38,2.75-3.76,3.14-3.76,3.14Z"/>
              <path class="cls-23" d="m320.33,323.33c-.11-.54-.49-.92-.92-.78-.43.14-.63.63-.52,1.17.11.54.49.92.91.79.42-.13.64-.61.53-1.18Z"/>
            </g>
            <path class="cls-23" d="m327.34,323.19l-.16-.83s5.46-2.78,7.22-1.46c.87.65,5.26,1.26,5.62,2.26.36,1-12.68.03-12.68.03Z"/>
          </g>
          <path class="cls-23" d="m354.11,325.3s6,6.5,6.81,6.1c.82-.4-2.64-5-2.56-6.15.08-1.16,4.4-3.9,4.21-4.7-.19-.8-8.33,2.91-8.33,2.91l-.52.96.39.88Z"/>
        </g>
        <g>
          <g>
            <g>
              <g id="freepik--fishes-1--inject-2-6" data-name="freepik--fishes-1--inject-2">
                <path class="cls-23" d="m266.07,279.36s-3.38,7.35-2.63,7.66c.76.3,6.41-1.44,6.41-1.44l.76,1.24s-1.29,5.98-.34,6.45c.95.47,2.27-.62,2.27-.62,2.77,2.96,5.51,5.5,9.51,6.36l1.77-1.41,2.04-.88s0-6.43-1.34-9.9c0,0,2.36-.78,1.96-1.61s-6.5-3.61-6.5-3.61l-11.86-3.01-2.03.78Z"/>
                <path class="cls-23" d="m274.89,273.42s9.06,1.02,7.97,2.06c-.07.94-1.39,2.05-2.83,1.73l-3.84-1.03-1.3-2.75Z"/>
                <path class="cls-23" d="m263.08,265.79s-2.97,18.7,20.21,33.26c.96.74,1.61,1.81,1.82,3,.88.25,1.8-.25,2.05-1.13.01-.04.02-.08.03-.13-.9-.95-1.59-2.08-2.02-3.31,0,0-.16-9.13-7.59-21.36-7.43-12.23-14.39-11.68-14.39-11.68l1.94,1.23-2.06.11Z"/>
                <path class="cls-4" d="m285.09,302.03c-.21-1.19-.86-2.27-1.82-3-23.18-14.57-20.21-33.26-20.21-33.26l1.37-.07,21.98,36.17c-.4.22-.87.28-1.32.17Z"/>
                <path class="cls-11" d="m264.58,273.65s5.49,2.51,6.49-3.94c0,0,.91,3.95-1.63,5.25-2.54,1.31-4.86-1.31-4.86-1.31Z"/>
                <path class="cls-23" d="m266.09,270.86c.39-.41.49-.95.12-1.24-.37-.28-.9-.16-1.29.25-.39.41-.49.95-.13,1.23.36.28.89.18,1.3-.25Z"/>
              </g>
              <path class="cls-23" d="m270.34,276.67l.6-.62s5.55,2.95,5.48,5.21c-.03,1.11,2.04,5.16,1.41,6.05-.63.89-7.5-10.64-7.5-10.64Z"/>
            </g>
            <path class="cls-23" d="m284.33,300.41s-1.93,8.87-1.11,9.32c.82.45,2.64-5.16,3.66-5.78,1.02-.62,5.87,1.4,6.43.77.56-.63-7.35-5.29-7.35-5.29l-1.12.12-.52.85Z"/>
          </g>
          <path class="cls-4" d="m263.08,265.79s-2.97,18.7,20.21,33.26c.96.74,1.61,1.81,1.82,3,.88.25,1.8-.25,2.05-1.13.01-.04.02-.08.03-.13-.9-.95-1.59-2.08-2.02-3.31,0,0-.16-9.13-7.59-21.36-7.43-12.23-14.39-11.68-14.39-11.68l1.94,1.23-2.06.11Z"/>
        </g>
        <g>
          <g>
            <g>
              <g id="freepik--fishes-1--inject-2-7" data-name="freepik--fishes-1--inject-2">
                <path class="cls-23" d="m359.55,344.33s-3.9-5.77-4.47-5.35c-.56.42-1.8,5.36-1.8,5.36h-1.25s-3.83-3.61-4.6-3.12c-.77.49-.55,1.95-.55,1.95-3.41.72-6.5,1.61-8.92,4.16l.25,1.94-.26,1.89s4.74,2.86,7.88,3.42c0,0-.48,2.09.32,2.16.8.07,5.56-3.17,5.56-3.17l7.5-7.39.33-1.84Z"/>
                <path class="cls-23" d="m359.98,353.48s-4.79,6.21-5.07,4.95c-.66-.47-.89-1.94,0-2.86l2.47-2.37,2.61.27Z"/>
                <path class="cls-23" d="m370.86,348.19s-12.44-10.52-33.5.05c-.97.38-2.05.38-3.02,0-.58.53-.61,1.44-.08,2.01.03.03.05.05.08.08,1.1-.24,2.24-.24,3.34,0,0,0,6.79,3.95,19.11,3.93,12.32-.02,15.01-5.39,15.01-5.39l-1.77.88.83-1.56Z"/>
                <path class="cls-4" d="m334.37,348.23c.97.38,2.05.38,3.02,0,21.06-10.57,33.5-.05,33.5-.05l-.56,1.04-36.43.05c.02-.39.18-.77.46-1.04Z"/>
                <path class="cls-11" d="m364.41,345.78s-4.3,2.93,0,6.53c0,0-3.31-1.09-3.14-3.54.17-2.45,3.13-2.99,3.13-2.99Z"/>
                <path class="cls-23" d="m365.79,348.14c.13.47.48.78.86.64.37-.14.52-.59.39-1.06-.13-.47-.48-.78-.85-.64-.36.14-.53.58-.4,1.07Z"/>
              </g>
              <path class="cls-23" d="m359.62,348.68l.19.72s-4.65,2.77-6.28,1.71c-.8-.52-4.71-.8-5.08-1.66-.38-.86,11.17-.77,11.17-.77Z"/>
            </g>
            <path class="cls-23" d="m335.9,348.39s-5.67-5.37-6.36-4.97,2.62,4.25,2.62,5.27c0,1.02-3.65,3.7-3.44,4.39.21.69,7.17-3.05,7.17-3.05l.41-.88-.39-.76Z"/>
          </g>
          <path class="cls-4" d="m370.86,348.19s-12.44-10.52-33.5.05c-.97.38-2.05.38-3.02,0-.58.53-.61,1.44-.08,2.01.03.03.05.05.08.08,1.1-.24,2.24-.24,3.34,0,0,0,6.79,3.95,19.11,3.93,12.32-.02,15.01-5.39,15.01-5.39l-1.77.88.83-1.56Z"/>
        </g>
        <g>
          <g>
            <g>
              <g id="freepik--fishes-1--inject-2-8" data-name="freepik--fishes-1--inject-2">
                <path class="cls-23" d="m288.83,242.28s-3.9-5.77-4.47-5.35c-.56.42-1.8,5.36-1.8,5.36h-1.25s-3.83-3.61-4.6-3.12c-.77.49-.55,1.95-.55,1.95-3.41.72-6.5,1.61-8.92,4.16l.25,1.94-.26,1.89s4.74,2.86,7.88,3.42c0,0-.48,2.09.32,2.16.8.07,5.56-3.17,5.56-3.17l7.5-7.39.33-1.84Z"/>
                <path class="cls-23" d="m289.27,251.43s-4.79,6.21-5.07,4.95c-.66-.47-.89-1.94,0-2.86l2.47-2.37,2.61.27Z"/>
                <path class="cls-23" d="m300.14,246.13s-12.44-10.52-33.5.05c-.97.38-2.05.38-3.02,0-.58.53-.61,1.44-.08,2.01.03.03.05.05.08.08,1.1-.24,2.24-.24,3.34,0,0,0,6.79,3.95,19.11,3.93,12.32-.02,15.01-5.39,15.01-5.39l-1.77.88.83-1.56Z"/>
                <path class="cls-4" d="m263.65,246.17c.97.38,2.05.38,3.02,0,21.06-10.57,33.5-.05,33.5-.05l-.56,1.04-36.43.05c.02-.39.18-.77.46-1.04Z"/>
                <path class="cls-11" d="m293.69,243.72s-4.3,2.93,0,6.53c0,0-3.31-1.09-3.14-3.54.17-2.45,3.13-2.99,3.13-2.99Z"/>
                <path class="cls-23" d="m295.07,246.09c.13.47.48.78.86.64.37-.14.52-.59.39-1.06-.13-.47-.48-.78-.85-.64-.36.14-.53.58-.4,1.07Z"/>
              </g>
              <path class="cls-23" d="m288.9,246.62l.19.72s-4.65,2.77-6.28,1.71c-.8-.52-4.71-.8-5.08-1.66-.38-.86,11.17-.77,11.17-.77Z"/>
            </g>
            <path class="cls-23" d="m265.18,246.34s-5.67-5.37-6.36-4.97c-.7.4,2.62,4.25,2.62,5.27,0,1.02-3.65,3.7-3.44,4.39.21.69,7.17-3.05,7.17-3.05l.41-.88-.39-.76Z"/>
          </g>
          <path class="cls-4" d="m300.14,246.13s-12.44-10.52-33.5.05c-.97.38-2.05.38-3.02,0-.58.53-.61,1.44-.08,2.01.03.03.05.05.08.08,1.1-.24,2.24-.24,3.34,0,0,0,6.79,3.95,19.11,3.93,12.32-.02,15.01-5.39,15.01-5.39l-1.77.88.83-1.56Z"/>
        </g>
        <g>
          <g>
            <g>
              <g id="freepik--fishes-1--inject-2-9" data-name="freepik--fishes-1--inject-2">
                <path class="cls-23" d="m317.23,367.57s-6.38-2.8-6.63-2.15c-.25.65,1.33,5.49,1.33,5.49l-1.06.67s-5.16-1.02-5.55-.19c-.39.83.57,1.94.57,1.94-2.51,2.43-4.65,4.82-5.33,8.28l1.24,1.5.79,1.74s5.53-.1,8.5-1.3c0,0,.7,2.02,1.42,1.66.71-.36,3.01-5.65,3.01-5.65l2.41-10.25-.7-1.74Z"/>
                <path class="cls-23" d="m322.47,375.08s-.75,7.81-1.65,6.89c-.81-.04-1.78-1.17-1.53-2.41l.83-3.32,2.35-1.16Z"/>
                <path class="cls-23" d="m328.85,364.8s-16.13-2.27-28.32,17.89c-.62.84-1.53,1.41-2.56,1.61-.21.76.24,1.54,1,1.75.04,0,.07.02.11.03.8-.79,1.76-1.4,2.82-1.78,0,0,7.85-.27,18.26-6.85s9.83-12.56,9.83-12.56l-1.03,1.69-.13-1.77Z"/>
                <path class="cls-4" d="m298,384.29c1.02-.2,1.94-.77,2.56-1.61,12.19-20.17,28.32-17.89,28.32-17.89l.08,1.18-30.8,19.45c-.2-.34-.26-.75-.17-1.13Z"/>
                <path class="cls-11" d="m322.11,366.21s-2.08,4.77,3.49,5.52c0,0-3.38.84-4.54-1.32-1.16-2.16,1.05-4.2,1.05-4.2Z"/>
                <path class="cls-23" d="m324.54,367.47c.36.33.83.4,1.06.08.24-.32.12-.78-.24-1.11-.36-.33-.83-.4-1.06-.09-.23.31-.14.77.23,1.12Z"/>
              </g>
              <path class="cls-23" d="m319.6,371.21l.55.51s-2.46,4.82-4.4,4.8c-.95-.01-4.41,1.83-5.19,1.31-.78-.53,9.04-6.61,9.04-6.61Z"/>
            </g>
            <path class="cls-23" d="m299.38,383.6s-7.66-1.53-8.04-.82c-.38.71,4.48,2.2,5.03,3.06.55.87-1.12,5.07-.57,5.55.55.47,4.44-6.4,4.44-6.4l-.12-.96-.73-.43Z"/>
          </g>
          <path class="cls-4" d="m328.85,364.8s-16.13-2.27-28.32,17.89c-.62.84-1.53,1.41-2.56,1.61-.21.76.24,1.54,1,1.75.04,0,.07.02.11.03.8-.79,1.76-1.4,2.82-1.78,0,0,7.85-.27,18.26-6.85s9.83-12.56,9.83-12.56l-1.03,1.69-.13-1.77Z"/>
        </g>
      </g>
    </g>
  </g>
</svg>