<?xml version="1.0" encoding="UTF-8"?>
<svg xmlns="http://www.w3.org/2000/svg" xmlns:xlink="http://www.w3.org/1999/xlink" viewBox="0 0 777.95 633.4">
  <defs>
    <style>
      .cls-1 {
        fill: #fff;
      }

      .cls-2 {
        fill: #73b7ba;
        opacity: .1;
      }

      .cls-3 {
        stroke-width: .66px;
      }

      .cls-3, .cls-4, .cls-5, .cls-6, .cls-7, .cls-8, .cls-9, .cls-10, .cls-11 {
        fill: none;
      }

      .cls-3, .cls-4, .cls-5, .cls-6, .cls-7, .cls-9, .cls-10, .cls-11 {
        stroke-miterlimit: 10;
      }

      .cls-3, .cls-6, .cls-9, .cls-10 {
        stroke: #fcaf58;
      }

      .cls-4 {
        stroke-width: 5.96px;
      }

      .cls-4, .cls-5, .cls-7 {
        stroke-linecap: round;
      }

      .cls-4, .cls-7, .cls-11 {
        stroke: #fff;
      }

      .cls-12 {
        clip-path: url(#clippath-2);
      }

      .cls-13 {
        fill: #268a8c;
      }

      .cls-14 {
        clip-path: url(#clippath-1);
      }

      .cls-5 {
        stroke: #268a8c;
        stroke-width: 2.55px;
      }

      .cls-15 {
        opacity: .11;
      }

      .cls-16 {
        fill: #7beec9;
      }

      .cls-6 {
        stroke-width: .63px;
      }

      .cls-7, .cls-11 {
        stroke-width: 2.09px;
      }

      .cls-17 {
        clip-path: url(#clippath);
      }

      .cls-18 {
        opacity: .36;
      }

      .cls-9 {
        stroke-width: .85px;
      }

      .cls-19 {
        fill: #fcaf58;
      }

      .cls-10 {
        stroke-width: .74px;
      }
    </style>
    <clipPath id="clippath">
      <rect class="cls-13" x="136.06" y="54.01" width="500" height="500"/>
    </clipPath>
    <clipPath id="clippath-1">
      <path class="cls-16" d="m636.06,54.01H136.06v71.17c20.87,5.65,41.45,9.22,61.76,11.24,66.36,6.6,129.9-3.37,191.44-11.77,72.06-9.84,141.36-17.54,209.23,6.02,12.57,4.36,25.09,9.8,37.56,16.49V54.01Z"/>
    </clipPath>
    <clipPath id="clippath-2">
      <rect class="cls-8" x="136.06" y="399.66" width="161.19" height="152.81"/>
    </clipPath>
  </defs>
  <g id="BACKGROUND">
    <g>
      <rect class="cls-13" x="136.06" y="54.01" width="500" height="500"/>
      <g class="cls-17">
        <g class="cls-18">
          <g class="cls-15">
            <path class="cls-1" d="m749.67,300.07c-180.65,10.35-182.66-59.95-363.61-59.95-180.95,0-185.54,80.41-365.31,59.8-20.6-2.36,33.42-50.54,33.42-71.28S1.75,158.41,22.45,157.22c180.95-10.37,180.95,70.27,361.89,80.64,180.95,10.37,186.96-59.65,367.02-39.02,10.3,1.18-34.73,45.36-32.99,55.58,4.45,26.1,41.64,45.06,31.29,45.65Z"/>
          </g>
          <g class="cls-15">
            <path class="cls-1" d="m25.89,352.95c180.65,10.35,179.23,59.95,360.17,59.95s178.71-39.2,358.47-59.8c20.6-2.36,33.42,9.07,33.42-11.67s-11.01-10.34-31.72-11.53c-180.95-10.37-180.95-49.53-361.89-39.16-180.95,10.37-176.69,59.86-356.76,80.49-10.3,1.18-20.53-35.8-26.96-27.66-4.35,5.5,14.91,8.79,25.26,9.38Z"/>
          </g>
        </g>
      </g>
    </g>
  </g>
  <g id="OBJECTS">
    <path class="cls-2" d="m136.06,554.01h500v-98.94c-20.87-7.85-41.45-12.82-61.76-15.63-66.36-9.18-129.9,4.68-191.44,16.37-72.06,13.68-141.36,24.39-209.23-8.37-12.57-6.07-25.09-13.62-37.56-22.93v129.5Z"/>
    <g>
      <path class="cls-11" d="m387.16,229.83c-43.84,38.31-26.13,116.61-42.99,149.18"/>
      <path class="cls-1" d="m320.48,392.54s21.19-9.66,26.43-21.02c0,0-.68,22.95,3.83,41.1l-30.26-20.07Z"/>
      <g>
        <line class="cls-7" x1="332.41" y1="387.32" x2="297.25" y2="406.69"/>
        <line class="cls-7" x1="334.2" y1="388.61" x2="305.72" y2="410.7"/>
        <line class="cls-7" x1="335.99" y1="389.9" x2="314.18" y2="414.72"/>
        <line class="cls-7" x1="337.78" y1="391.2" x2="322.65" y2="418.74"/>
        <line class="cls-7" x1="339.57" y1="392.49" x2="331.12" y2="422.75"/>
        <line class="cls-7" x1="341.36" y1="393.78" x2="339.58" y2="426.77"/>
        <line class="cls-7" x1="343.15" y1="395.07" x2="348.05" y2="430.79"/>
        <line class="cls-7" x1="344.94" y1="396.37" x2="356.52" y2="434.81"/>
      </g>
      <path class="cls-1" d="m437.21,231.56c-1.69-.87,7.41-25.84,11.28-37.95-30.86,5.35-62.27,35.74-62.27,35.74,18.57,22.79,40.51,30.75,53.34,33.53,6.26,1.36,12.53-2.14,14.75-8.14,10.76-29.14,7.91-47.23,1.96-56.18-5.74,9.98-17.38,33.89-19.07,33.02Z"/>
      <g>
        <polygon class="cls-1" points="454.61 202.58 455.61 200.64 452.21 200.11 454.61 202.58"/>
        <polygon class="cls-1" points="452.07 207.49 453.07 205.56 449.67 205.03 452.07 207.49"/>
        <polygon class="cls-1" points="448.97 213.46 449.97 211.53 446.58 211 448.97 213.46"/>
        <polygon class="cls-1" points="446.16 218.91 447.16 216.98 443.76 216.44 446.16 218.91"/>
        <polygon class="cls-1" points="443.29 224.44 444.29 222.51 440.89 221.97 443.29 224.44"/>
      </g>
      <g>
        <polygon class="cls-1" points="438.98 217.39 438.18 219.41 441.61 219.61 438.98 217.39"/>
        <polygon class="cls-1" points="441.03 212.24 440.23 214.26 443.66 214.46 441.03 212.24"/>
        <polygon class="cls-1" points="442.29 208.91 441.48 210.93 444.92 211.13 442.29 208.91"/>
        <polygon class="cls-1" points="443.61 204.81 442.8 206.83 446.23 207.03 443.61 204.81"/>
        <polygon class="cls-1" points="445.14 200.66 444.34 202.68 447.77 202.88 445.14 200.66"/>
      </g>
      <g>
        <path class="cls-7" d="m319.7,316.75s27.3-21.87,37.42-22.23c10.12-.37,35.71,31.14,35.71,31.14"/>
        <path class="cls-7" d="m321.44,325.91s25.14-19.8,34.44-20.14c9.3-.34,32.78,29.13,32.78,29.13"/>
        <path class="cls-7" d="m323.17,335.07s22.99-17.73,31.46-18.04c8.47-.31,29.84,27.11,29.84,27.11"/>
        <path class="cls-7" d="m324.91,344.24s20.83-15.66,28.48-15.94c7.65-.28,26.91,25.09,26.91,25.09"/>
        <path class="cls-7" d="m326.64,353.4s18.68-13.6,25.49-13.84c6.82-.25,23.98,23.08,23.98,23.08"/>
        <path class="cls-7" d="m328.37,362.57s16.52-11.53,22.51-11.75c5.99-.22,21.04,21.06,21.04,21.06"/>
        <path class="cls-7" d="m330.11,371.73s14.37-9.46,19.53-9.65c5.17-.19,18.11,19.04,18.11,19.04"/>
      </g>
      <g>
        <path class="cls-7" d="m440.99,271.64c-45.62-5.71-60.06-35.65-60.06-35.65,0,0-16.63-10.81-31.63-2.06"/>
        <path class="cls-7" d="m430.03,279.14c-40.29-4.28-56.47-32.65-56.47-32.65,0,0-17.97-8.23-31.47-1.99"/>
        <path class="cls-7" d="m421.05,287.66c-34.96-2.85-52.88-29.65-52.88-29.65,0,0-14.59-8.23-27.91-1.44"/>
        <path class="cls-7" d="m412.08,296.19c-29.63-1.41-49.29-26.66-49.29-26.66,0,0-14.69-8.71-27.64,0"/>
        <path class="cls-7" d="m405.1,305.75c-24.3.02-45.7-23.66-45.7-23.66,0,0-12.53-5.38-26.07,3.58"/>
      </g>
      <g>
        <line class="cls-5" x1="413.06" y1="215.94" x2="422.12" y2="239.14"/>
        <line class="cls-5" x1="405.5" y1="230.54" x2="429.68" y2="224.54"/>
      </g>
    </g>
    <g>
      <path class="cls-11" d="m220.05,184.55c-27.01,23.6-16.1,71.84-26.49,91.91"/>
      <path class="cls-1" d="m178.97,284.8s13.05-5.95,16.28-12.95c0,0-.42,14.14,2.36,25.32l-18.64-12.37Z"/>
      <g>
        <line class="cls-7" x1="186.33" y1="281.58" x2="164.66" y2="293.51"/>
        <line class="cls-7" x1="187.43" y1="282.38" x2="169.88" y2="295.99"/>
        <line class="cls-7" x1="188.53" y1="283.17" x2="175.1" y2="298.46"/>
        <line class="cls-7" x1="189.63" y1="283.97" x2="180.31" y2="300.94"/>
        <line class="cls-7" x1="190.74" y1="284.77" x2="185.53" y2="303.41"/>
        <line class="cls-7" x1="191.84" y1="285.56" x2="190.74" y2="305.89"/>
        <line class="cls-7" x1="192.94" y1="286.36" x2="195.96" y2="308.36"/>
        <line class="cls-7" x1="194.05" y1="287.16" x2="201.18" y2="310.84"/>
      </g>
      <path class="cls-1" d="m250.89,185.62c-1.04-.54,4.57-15.92,6.95-23.38-19.01,3.3-38.36,22.02-38.36,22.02,11.44,14.04,24.96,18.94,32.86,20.66,3.86.83,7.72-1.32,9.09-5.02,6.63-17.95,4.88-29.1,1.21-34.61-3.54,6.15-10.71,20.88-11.75,20.34Z"/>
      <g>
        <polygon class="cls-1" points="261.61 167.76 262.23 166.57 260.13 166.24 261.61 167.76"/>
        <polygon class="cls-1" points="260.04 170.79 260.66 169.6 258.57 169.27 260.04 170.79"/>
        <polygon class="cls-1" points="258.14 174.47 258.76 173.28 256.66 172.95 258.14 174.47"/>
        <polygon class="cls-1" points="256.4 177.82 257.02 176.63 254.93 176.31 256.4 177.82"/>
        <polygon class="cls-1" points="254.64 181.23 255.25 180.04 253.16 179.71 254.64 181.23"/>
      </g>
      <g>
        <polygon class="cls-1" points="251.98 176.89 251.49 178.13 253.6 178.25 251.98 176.89"/>
        <polygon class="cls-1" points="253.25 173.72 252.75 174.96 254.87 175.09 253.25 173.72"/>
        <polygon class="cls-1" points="254.02 171.67 253.52 172.91 255.64 173.03 254.02 171.67"/>
        <polygon class="cls-1" points="254.83 169.14 254.33 170.38 256.45 170.5 254.83 169.14"/>
        <polygon class="cls-1" points="255.78 166.58 255.28 167.83 257.4 167.95 255.78 166.58"/>
      </g>
      <g>
        <path class="cls-7" d="m178.49,238.1s16.82-13.47,23.05-13.7c6.24-.23,22,19.19,22,19.19"/>
        <path class="cls-7" d="m179.56,243.75s15.49-12.2,21.22-12.41c5.73-.21,20.19,17.94,20.19,17.94"/>
        <path class="cls-7" d="m180.63,249.39s14.16-10.92,19.38-11.11c5.22-.19,18.39,16.7,18.39,16.7"/>
        <path class="cls-7" d="m181.7,255.04s12.83-9.65,17.54-9.82c4.71-.17,16.58,15.46,16.58,15.46"/>
        <path class="cls-7" d="m182.77,260.69s11.51-8.38,15.71-8.53c4.2-.15,14.77,14.22,14.77,14.22"/>
        <path class="cls-7" d="m183.84,266.33s10.18-7.1,13.87-7.24c3.69-.13,12.96,12.97,12.96,12.97"/>
        <path class="cls-7" d="m184.91,271.98s8.85-5.83,12.03-5.95c3.18-.12,11.16,11.73,11.16,11.73"/>
      </g>
      <g>
        <path class="cls-7" d="m253.22,210.31c-28.1-3.52-37.01-21.96-37.01-21.96,0,0-10.24-6.66-19.49-1.27"/>
        <path class="cls-7" d="m246.46,214.93c-24.82-2.64-34.79-20.12-34.79-20.12,0,0-11.07-5.07-19.39-1.22"/>
        <path class="cls-7" d="m240.94,220.18c-21.54-1.75-32.58-18.27-32.58-18.27,0,0-8.99-5.07-17.2-.88"/>
        <path class="cls-7" d="m235.41,225.44c-18.25-.87-30.37-16.42-30.37-16.42,0,0-9.05-5.37-17.03,0"/>
        <path class="cls-7" d="m231.11,231.33c-14.97.01-28.15-14.58-28.15-14.58,0,0-7.72-3.31-16.06,2.21"/>
      </g>
      <g>
        <line class="cls-5" x1="236.01" y1="176" x2="241.59" y2="190.29"/>
        <line class="cls-5" x1="231.35" y1="184.99" x2="246.25" y2="181.3"/>
      </g>
    </g>
    <g>
      <path class="cls-11" d="m547.42,340.55c-32.09,28.04-19.13,85.35-31.47,109.19"/>
      <path class="cls-1" d="m498.61,459.65s15.51-7.07,19.34-15.39c0,0-.5,16.8,2.81,30.08l-22.15-14.69Z"/>
      <g>
        <line class="cls-7" x1="507.35" y1="455.82" x2="481.61" y2="470"/>
        <line class="cls-7" x1="508.66" y1="456.77" x2="487.81" y2="472.94"/>
        <line class="cls-7" x1="509.97" y1="457.71" x2="494.01" y2="475.88"/>
        <line class="cls-7" x1="511.28" y1="458.66" x2="500.2" y2="478.82"/>
        <line class="cls-7" x1="512.59" y1="459.61" x2="506.4" y2="481.76"/>
        <line class="cls-7" x1="513.9" y1="460.55" x2="512.6" y2="484.7"/>
        <line class="cls-7" x1="515.21" y1="461.5" x2="518.8" y2="487.64"/>
        <line class="cls-7" x1="516.52" y1="462.44" x2="524.99" y2="490.58"/>
      </g>
      <path class="cls-1" d="m584.05,341.82c-1.23-.64,5.43-18.91,8.26-27.78-22.59,3.92-45.57,26.16-45.57,26.16,13.59,16.68,29.65,22.51,39.04,24.54,4.58.99,9.17-1.56,10.8-5.96,7.88-21.33,5.79-34.57,1.43-41.12-4.2,7.3-12.72,24.8-13.95,24.17Z"/>
      <g>
        <polygon class="cls-1" points="596.79 320.6 597.52 319.19 595.03 318.8 596.79 320.6"/>
        <polygon class="cls-1" points="594.93 324.2 595.66 322.79 593.17 322.4 594.93 324.2"/>
        <polygon class="cls-1" points="592.66 328.57 593.4 327.16 590.91 326.77 592.66 328.57"/>
        <polygon class="cls-1" points="590.6 332.56 591.33 331.15 588.84 330.75 590.6 332.56"/>
        <polygon class="cls-1" points="588.5 336.61 589.24 335.19 586.75 334.8 588.5 336.61"/>
      </g>
      <g>
        <polygon class="cls-1" points="585.35 331.44 584.76 332.92 587.27 333.07 585.35 331.44"/>
        <polygon class="cls-1" points="586.85 327.68 586.26 329.16 588.78 329.31 586.85 327.68"/>
        <polygon class="cls-1" points="587.77 325.24 587.18 326.72 589.69 326.87 587.77 325.24"/>
        <polygon class="cls-1" points="588.73 322.24 588.14 323.72 590.66 323.86 588.73 322.24"/>
        <polygon class="cls-1" points="589.86 319.2 589.27 320.68 591.78 320.83 589.86 319.2"/>
      </g>
      <g>
        <path class="cls-7" d="m498.05,404.17s19.98-16,27.39-16.27c7.41-.27,26.14,22.79,26.14,22.79"/>
        <path class="cls-7" d="m499.31,410.88s18.4-14.49,25.21-14.74c6.81-.25,23.99,21.32,23.99,21.32"/>
        <path class="cls-7" d="m500.58,417.58s16.82-12.98,23.02-13.2c6.2-.23,21.84,19.84,21.84,19.84"/>
        <path class="cls-7" d="m501.85,424.29s15.25-11.46,20.84-11.67c5.6-.2,19.7,18.37,19.7,18.37"/>
        <path class="cls-7" d="m503.12,431s13.67-9.95,18.66-10.13c4.99-.18,17.55,16.89,17.55,16.89"/>
        <path class="cls-7" d="m504.39,437.71s12.09-8.44,16.48-8.6c4.39-.16,15.4,15.41,15.4,15.41"/>
        <path class="cls-7" d="m505.66,444.41s10.52-6.93,14.3-7.06c3.78-.14,13.25,13.94,13.25,13.94"/>
      </g>
      <g>
        <path class="cls-7" d="m586.82,371.15c-33.39-4.18-43.96-26.09-43.96-26.09,0,0-12.17-7.92-23.15-1.51"/>
        <path class="cls-7" d="m578.79,376.64c-29.49-3.13-41.33-23.9-41.33-23.9,0,0-13.15-6.02-23.03-1.45"/>
        <path class="cls-7" d="m572.23,382.88c-25.59-2.08-38.71-21.7-38.71-21.7,0,0-10.68-6.02-20.43-1.05"/>
        <path class="cls-7" d="m565.66,389.12c-21.69-1.04-36.08-19.51-36.08-19.51,0,0-10.75-6.38-20.23,0"/>
        <path class="cls-7" d="m560.55,396.12c-17.79.01-33.45-17.32-33.45-17.32,0,0-9.17-3.94-19.08,2.62"/>
      </g>
      <g>
        <line class="cls-5" x1="566.37" y1="330.39" x2="573.01" y2="347.37"/>
        <line class="cls-5" x1="560.84" y1="341.07" x2="578.54" y2="336.68"/>
      </g>
    </g>
    <g>
      <path class="cls-16" d="m636.06,54.01H136.06v71.17c20.87,5.65,41.45,9.22,61.76,11.24,66.36,6.6,129.9-3.37,191.44-11.77,72.06-9.84,141.36-17.54,209.23,6.02,12.57,4.36,25.09,9.8,37.56,16.49V54.01Z"/>
      <g class="cls-14">
        <path class="cls-19" d="m277.48,32.95c-70.26,5.72-59.54,45.74,6.21,50.03,65.75,4.29,55.47,29.3-6.21,29.3s-63.01,51.46,37.35,48.6c100.36-2.86,141.01-52.17,90.67-54.32-50.34-2.14-64.18-22.15-31.89-22.15s26.57-20.04-20.6-20.38c-47.17-.34-36.71-18.21-2.28-23.93,34.44-5.72-73.26-7.15-73.26-7.15Z"/>
        <path class="cls-1" d="m67.1,30.71c-70.26,5.72-59.54,45.74,6.21,50.03,65.75,4.29,55.47,29.3-6.21,29.3s-63.01,51.46,37.35,48.6c100.36-2.86,141.01-52.17,90.67-54.32-50.34-2.14-64.18-22.15-31.89-22.15s26.57-20.04-20.6-20.38c-47.17-.34-36.71-18.21-2.28-23.93,34.44-5.72-73.26-7.15-73.26-7.15Z"/>
        <ellipse class="cls-16" cx="280.42" cy="124.06" rx="23.24" ry="7.6"/>
        <path class="cls-16" d="m344.33,74.63c0,2.53,6.28,4.59,14.03,4.59s14.03-2.05,14.03-4.59-6.28-4.59-14.03-4.59-14.03,2.05-14.03,4.59Z"/>
        <ellipse class="cls-16" cx="281.82" cy="69.76" rx="10.51" ry="3.44"/>
        <path class="cls-19" d="m581.53,128.04c70.26-5.72,59.54-45.74-6.21-50.03-65.75-4.29-55.47-29.3,6.21-29.3S644.54-2.74,544.18.11c-100.36,2.86-141.01,52.17-90.67,54.32,50.34,2.14,64.18,22.15,31.89,22.15s-26.57,20.04,20.6,20.38c47.17.34,36.71,18.21,2.28,23.93-34.44,5.72,73.26,7.15,73.26,7.15Z"/>
        <ellipse class="cls-16" cx="578.59" cy="36.93" rx="23.24" ry="7.6"/>
        <ellipse class="cls-16" cx="590.87" cy="100.59" rx="23.24" ry="7.6"/>
        <ellipse class="cls-9" cx="428.33" cy="82.07" rx="23.24" ry="7.6"/>
        <ellipse class="cls-6" cx="214.95" cy="86.06" rx="17.13" ry="5.6"/>
        <path class="cls-4" d="m197.82,136.42c66.36,6.6,129.9-3.37,191.44-11.77,72.06-9.84,141.36-17.54,209.23,6.02"/>
      </g>
    </g>
    <g>
      <circle class="cls-9" cx="586.44" cy="247.35" r="8.21" transform="translate(132.57 693.55) rotate(-67.38)"/>
      <circle class="cls-10" cx="408.71" cy="365.01" r="7.14"/>
      <circle class="cls-10" cx="264.57" cy="430.85" r="7.14"/>
      <circle class="cls-9" cx="406.36" cy="155.37" r="8.21"/>
      <circle class="cls-3" cx="197.82" cy="335.75" r="6.32"/>
      <circle class="cls-19" cx="597.61" cy="195.96" r="5.86"/>
      <path class="cls-2" d="m496.91,263.58c0,1.62,1.31,2.93,2.93,2.93s2.93-1.31,2.93-2.93-1.31-2.93-2.93-2.93-2.93,1.31-2.93,2.93Z"/>
      <path class="cls-2" d="m594.68,414.72c0,1.62,1.31,2.93,2.93,2.93s2.93-1.31,2.93-2.93-1.31-2.93-2.93-2.93-2.93,1.31-2.93,2.93Z"/>
      <path class="cls-2" d="m387.16,190.1c0,1.62,1.31,2.93,2.93,2.93s2.93-1.31,2.93-2.93-1.31-2.93-2.93-2.93-2.93,1.31-2.93,2.93Z"/>
      <path class="cls-2" d="m188.57,177.38c0,1.62,1.31,2.93,2.93,2.93s2.93-1.31,2.93-2.93-1.31-2.93-2.93-2.93-2.93,1.31-2.93,2.93Z"/>
      <path class="cls-2" d="m469.36,362.08c0,1.62,1.31,2.93,2.93,2.93s2.93-1.31,2.93-2.93-1.31-2.93-2.93-2.93-2.93,1.31-2.93,2.93Z"/>
      <circle class="cls-19" cx="264.57" cy="162.56" r="5.86"/>
      <circle class="cls-19" cx="305.72" cy="257.28" r="5.86"/>
      <path class="cls-19" d="m493.98,174.45c0,1.62,1.31,2.93,2.93,2.93s2.93-1.31,2.93-2.93-1.31-2.93-2.93-2.93-2.93,1.31-2.93,2.93Z"/>
    </g>
    <g class="cls-12">
      <g>
        <path class="cls-11" d="m217.38,482.33c-32.09,28.04-19.13,85.35-31.47,109.19"/>
        <path class="cls-1" d="m168.58,601.43s15.51-7.07,19.34-15.39c0,0-.5,16.8,2.81,30.08l-22.15-14.69Z"/>
        <g>
          <line class="cls-7" x1="177.31" y1="597.6" x2="151.58" y2="611.78"/>
          <line class="cls-7" x1="178.62" y1="598.55" x2="157.77" y2="614.72"/>
          <line class="cls-7" x1="179.93" y1="599.49" x2="163.97" y2="617.66"/>
          <line class="cls-7" x1="181.24" y1="600.44" x2="170.17" y2="620.6"/>
          <line class="cls-7" x1="182.55" y1="601.38" x2="176.36" y2="623.54"/>
          <line class="cls-7" x1="183.86" y1="602.33" x2="182.56" y2="626.48"/>
          <line class="cls-7" x1="185.17" y1="603.28" x2="188.76" y2="629.42"/>
          <line class="cls-7" x1="186.48" y1="604.22" x2="194.96" y2="632.36"/>
        </g>
        <path class="cls-1" d="m254.01,483.6c-1.23-.64,5.43-18.91,8.26-27.78-22.59,3.92-45.57,26.16-45.57,26.16,13.59,16.68,29.65,22.51,39.04,24.54,4.58.99,9.17-1.56,10.8-5.96,7.88-21.33,5.79-34.57,1.43-41.12-4.2,7.3-12.72,24.8-13.95,24.17Z"/>
        <g>
          <polygon class="cls-1" points="266.75 462.38 267.48 460.97 265 460.58 266.75 462.38"/>
          <polygon class="cls-1" points="264.89 465.98 265.62 464.57 263.13 464.18 264.89 465.98"/>
          <polygon class="cls-1" points="262.63 470.35 263.36 468.94 260.87 468.55 262.63 470.35"/>
          <polygon class="cls-1" points="260.56 474.34 261.29 472.92 258.81 472.53 260.56 474.34"/>
          <polygon class="cls-1" points="258.47 478.39 259.2 476.97 256.71 476.58 258.47 478.39"/>
        </g>
        <g>
          <polygon class="cls-1" points="255.31 473.22 254.72 474.7 257.24 474.85 255.31 473.22"/>
          <polygon class="cls-1" points="256.81 469.46 256.22 470.94 258.74 471.08 256.81 469.46"/>
          <polygon class="cls-1" points="257.73 467.02 257.14 468.5 259.66 468.65 257.73 467.02"/>
          <polygon class="cls-1" points="258.7 464.02 258.11 465.5 260.62 465.64 258.7 464.02"/>
          <polygon class="cls-1" points="259.82 460.98 259.23 462.46 261.74 462.61 259.82 460.98"/>
        </g>
        <g>
          <path class="cls-7" d="m168.01,545.95s19.98-16,27.39-16.27c7.41-.27,26.14,22.79,26.14,22.79"/>
          <path class="cls-7" d="m169.28,552.65s18.4-14.49,25.21-14.74c6.81-.25,23.99,21.32,23.99,21.32"/>
          <path class="cls-7" d="m170.55,559.36s16.82-12.98,23.02-13.2c6.2-.23,21.84,19.84,21.84,19.84"/>
          <path class="cls-7" d="m171.82,566.07s15.25-11.46,20.84-11.67c5.6-.2,19.7,18.37,19.7,18.37"/>
          <path class="cls-7" d="m173.09,572.78s13.67-9.95,18.66-10.13c4.99-.18,17.55,16.89,17.55,16.89"/>
          <path class="cls-7" d="m174.36,579.48s12.09-8.44,16.48-8.6c4.39-.16,15.4,15.41,15.4,15.41"/>
          <path class="cls-7" d="m175.63,586.19s10.52-6.93,14.3-7.06c3.78-.14,13.25,13.94,13.25,13.94"/>
        </g>
        <g>
          <path class="cls-7" d="m256.78,512.93c-33.39-4.18-43.96-26.09-43.96-26.09,0,0-12.17-7.92-23.15-1.51"/>
          <path class="cls-7" d="m248.76,518.42c-29.49-3.13-41.33-23.9-41.33-23.9,0,0-13.15-6.02-23.03-1.45"/>
          <path class="cls-7" d="m242.19,524.66c-25.59-2.08-38.71-21.7-38.71-21.7,0,0-10.68-6.02-20.43-1.05"/>
          <path class="cls-7" d="m235.62,530.9c-21.69-1.04-36.08-19.51-36.08-19.51,0,0-10.75-6.38-20.23,0"/>
          <path class="cls-7" d="m230.51,537.9c-17.79.01-33.45-17.32-33.45-17.32,0,0-9.17-3.94-19.08,2.62"/>
        </g>
        <g>
          <line class="cls-5" x1="236.34" y1="472.17" x2="242.97" y2="489.15"/>
          <line class="cls-5" x1="230.81" y1="482.85" x2="248.5" y2="478.46"/>
        </g>
      </g>
    </g>
  </g>
</svg>