<?xml version="1.0" encoding="UTF-8"?>
<svg xmlns="http://www.w3.org/2000/svg" viewBox="0 0 652.57 429.72">
  <defs>
    <style>
      .cls-1, .cls-2, .cls-3 {
        fill: #455a64;
      }

      .cls-1, .cls-4 {
        opacity: .3;
      }

      .cls-5 {
        fill: #fff;
      }

      .cls-6, .cls-7 {
        fill: #dbdbdb;
      }

      .cls-8 {
        opacity: .5;
      }

      .cls-9 {
        fill: #37474f;
      }

      .cls-10 {
        fill: #a6a6a6;
      }

      .cls-11, .cls-3 {
        opacity: .2;
      }

      .cls-12 {
        fill: #c7c7c7;
      }

      .cls-7, .cls-13 {
        opacity: .1;
      }

      .cls-14 {
        fill: #ebebeb;
      }

      .cls-15 {
        fill: #fcaf58;
      }

      .cls-16 {
        fill: #263238;
      }
    </style>
  </defs>
  <g id="Background_Complete" data-name="Background Complete">
    <g>
      <path class="cls-14" d="m102.78,76.87c-.55,0-.6-1.09.04-1.17,2.59-.33,5.18-2.64,7.77-2.99,2.51-.33,5.13-.62,7.43-1.78,3.86-1.94,6.25-5.81,10.24-7.66,6.99-3.26,14.2-1.86,21.01,1.01,4.25,1.79,8.27,2.48,12.86,1.89,3.97-.5,7.85-1.6,11.81-2.17,3.54-.51,7.17-.6,10.6.51,3.55,1.15,6.61,3.38,9.95,4.99,4.41,2.13,8.76,1.77,13.5,1.9,3.42.1,10.57,2.26,10.57,4.56,0,1.55-109,.9-115.79.9Z"/>
      <path class="cls-14" d="m625.54,109.89c-4.77,0-123.93-.83-157.58-.83-2.35,0,.62-4.08,1.92-4.36,4.14-.91,8.45-.95,12.66-1.39,4.22-.44,8.15-1.37,12.06-3.02,3.31-1.4,6.61-3.01,10.2-3.57,6.93-1.09,13.02,2.67,19.52,4.33,4.23,1.08,8.06.64,11.82-1.62,3.01-1.8,5.74-3.97,8.88-5.56,11.94-6.03,26.48-6.59,38.94-1.78,2.98,1.15,5.85,2.61,8.52,4.36,3.18,2.08,5.91,4.75,9.1,6.81,7.06,4.57,15.78,3.08,23.48,5.7.42.14.9.94.49.94Z"/>
      <path class="cls-14" d="m170.31,33.63c-4.77,0-123.93-.83-157.58-.83-2.35,0,.62-4.08,1.92-4.36,4.14-.91,8.45-.95,12.66-1.39,4.22-.44,8.15-1.37,12.06-3.02,3.31-1.4,6.61-3.01,10.2-3.57,6.93-1.09,13.02,2.67,19.52,4.33,4.23,1.08,8.06.64,11.82-1.62,3.01-1.8,5.74-3.97,8.88-5.56,11.94-6.03,26.48-6.59,38.94-1.78,2.98,1.15,5.85,2.61,8.52,4.36,3.18,2.08,5.91,4.75,9.1,6.81,7.06,4.57,15.78,3.08,23.48,5.7.42.14.9.94.49.94Z"/>
      <path class="cls-14" d="m376.27,52.89c-6.31,0-112.54.7-119.22.49-.48-.01-.74-.72-.26-.96,4.21-2.08,8.98-1.67,13.36-3.14,2.57-.87,4.15-2.55,5.94-4.48,1.54-1.67,3.33-2.95,5.53-3.61,1.94-.58,4.04-.66,6.02-.19,2.16.51,4.03,1.75,6.08,2.53,5.1,1.93,10.06.1,13.71-3.68,3.01-3.11,5.96-6.05,10.05-7.73,3.42-1.41,7.22-1.7,10.64-.15,3.9,1.77,6.57,5.32,10.23,7.45,4.34,2.54,9.53,1.94,14.32,2.7,4.8.77,8.47,4.8,12.67,7.13,1.44.8,2.91,1.46,4.58,1.42.94-.02,1.86-.28,2.79-.39,1.45-.18,2.82-.14,3.79,1.07.24.29.19,1.54-.23,1.54Z"/>
      <path class="cls-14" d="m497.43,88.77c-4.61,0-82.17.51-87.04.36-.35-.01-.54-.53-.19-.7,3.07-1.52,6.56-1.22,9.75-2.29,1.88-.63,3.03-1.86,4.34-3.27,1.13-1.22,2.43-2.15,4.04-2.63,1.42-.43,2.95-.48,4.39-.14,1.57.38,2.94,1.28,4.44,1.84,3.73,1.41,7.35.07,10.01-2.69,2.19-2.27,4.35-4.42,7.33-5.64,2.5-1.03,5.27-1.24,7.77-.11,2.85,1.29,4.8,3.88,7.47,5.44,3.17,1.85,6.96,1.41,10.45,1.97,3.51.56,6.19,3.51,9.25,5.2,1.05.58,2.12,1.07,3.35,1.04.69-.02,1.36-.2,2.04-.29,1.06-.13,2.06-.1,2.77.78.17.22.14,1.13-.17,1.13Z"/>
      <path class="cls-14" d="m281.77,105.69c-4.61,0-82.17.51-87.04.36-.35-.01-.54-.53-.19-.7,3.07-1.52,6.56-1.22,9.75-2.29,1.88-.63,3.03-1.86,4.34-3.27,1.13-1.22,2.43-2.15,4.04-2.63,1.42-.43,2.95-.48,4.39-.14,1.57.38,2.94,1.28,4.44,1.84,3.73,1.41,7.35.07,10.01-2.69,2.19-2.27,4.35-4.42,7.33-5.64,2.5-1.03,5.27-1.24,7.77-.11,2.85,1.29,4.8,3.88,7.47,5.44,3.17,1.85,6.96,1.41,10.45,1.97,3.51.56,6.19,3.51,9.25,5.2,1.05.58,2.12,1.07,3.35,1.04.69-.02,1.36-.2,2.04-.29,1.06-.13,2.06-.1,2.77.78.17.22.14,1.13-.17,1.13Z"/>
      <path class="cls-14" d="m640.7,23.12h-131.69c-.53,0-.73-.57-.2-.82,4.72-2.21,10-1.64,14.88-3.17,2.87-.9,4.67-2.73,6.69-4.83,1.75-1.82,3.76-3.19,6.21-3.87,2.17-.6,4.5-.64,6.68-.07,2.38.62,4.43,2.03,6.69,2.94,5.61,2.25,11.16.34,15.28-3.77,3.4-3.38,6.75-6.57,11.32-8.34,3.83-1.48,8.04-1.72,11.8.08,4.28,2.05,7.16,6.05,11.17,8.5,4.75,2.91,10.52,2.37,15.82,3.32,5.31.96,9.71,3.25,14.32,5.92,1.57.91,3.19,1.69,5.05,1.68,1.04,0,2.07-.27,3.1-.37,1.61-.16,3.13-.09,4.18,1.27.26.33,1.78,1.52-1.32,1.52Z"/>
    </g>
    <g>
      <path class="cls-14" d="m98.57,327.64s6.93-1.41,10.65-.07c3.72,1.34,7.81,6.28,7.8,6.53,0,.24-6.98,1.38-9.81.4-2.83-.98-8.8-6.07-8.8-6.07,0,0-4.43,2.16-5.15,1.17-.73-.99,4.1-1.68,4.1-1.68,0,0-4.8-2.5-4.09-3.53.71-1.03,5.31,3.25,5.31,3.25Z"/>
      <path class="cls-14" d="m248.9,252.17s6.42-2.97,10.34-2.51c3.93.45,9.04,4.32,9.09,4.56.05.24-6.48,2.94-9.46,2.64-2.98-.3-9.96-3.89-9.96-3.89,0,0-3.81,3.12-4.75,2.32-.94-.8,3.6-2.58,3.6-2.58,0,0-5.24-1.33-4.79-2.49.46-1.17,5.91,1.95,5.91,1.95Z"/>
      <path class="cls-14" d="m127.12,315.81s6.1-3.58,10.05-3.51c3.95.07,9.42,3.42,9.5,3.65.07.23-6.16,3.56-9.16,3.55-2.99,0-10.29-2.9-10.29-2.9,0,0-3.49,3.48-4.5,2.78-1.01-.7,3.33-2.92,3.33-2.92,0,0-5.35-.81-5.01-2.01s6.07,1.36,6.07,1.36Z"/>
      <path class="cls-14" d="m568.22,281.66s-6.44-2.92-10.36-2.44c-3.92.48-9.01,4.39-9.06,4.63-.05.24,6.5,2.89,9.48,2.57,2.98-.32,9.93-3.96,9.93-3.96,0,0,3.83,3.09,4.77,2.29.93-.8-3.62-2.55-3.62-2.55,0,0,5.23-1.37,4.77-2.53-.46-1.16-5.9,1.99-5.9,1.99Z"/>
      <path class="cls-14" d="m132.06,331.9s3.62-2.4,6.13-2.35c2.52.04,7.17,2.61,7.47,3.09.3.48-5.33,3-7.25,2.65-1.92-.35-6.03-2.47-6.12-2.57-.1-.1-2.58,3.15-3.81,2.05-1.23-1.1,3.06-2.44,3.06-2.44,0,0-3.7-1.24-3.38-2.28.32-1.03,2.86.43,3.89,1.85Z"/>
      <path class="cls-14" d="m15.75,365.16s3.62-2.4,6.13-2.35c2.52.04,7.17,2.61,7.47,3.09.3.48-5.33,3-7.25,2.65-1.92-.35-6.03-2.47-6.12-2.57-.1-.1-2.58,3.15-3.81,2.05-1.23-1.1,3.06-2.44,3.06-2.44,0,0-3.7-1.24-3.38-2.28.32-1.03,2.86.43,3.89,1.85Z"/>
      <path class="cls-14" d="m298.82,228.47s-3.5-2.57-6.01-2.65c-2.51-.08-7.29,2.26-7.62,2.72-.32.47,5.18,3.26,7.11,3.01,1.93-.25,6.14-2.17,6.24-2.27.1-.1,2.42,3.28,3.7,2.24s-2.94-2.59-2.94-2.59c0,0,3.76-1.06,3.48-2.11-.27-1.05-2.88.29-3.97,1.65Z"/>
      <path class="cls-14" d="m530.47,277.56s-7.69-1.61-11.36-.72c-3.67.89-8.41,6.08-8.41,6.08,0,0,8.3,1.23,11.58.42,3.29-.81,8.39-4.56,8.39-4.56,0,0,3.96,2.25,4.56,1.17.6-1.07-3.82-1.71-3.82-1.71,0,0,5.43-1.64,4.6-3.05-.84-1.41-5.53,2.36-5.53,2.36Z"/>
      <path class="cls-14" d="m637.61,259.64s-3.4-2.42-5.72-2.86c-2.33-.45-7.02,2.55-7.02,2.55,0,0,3.53,3.04,6.37,3.44,2.84.4,6.06-1.97,6.06-1.97,0,0,3.8,2.68,4.34,1.79.54-.89-3.4-2.15-3.4-2.15,0,0,4.47-.27,4.38-1.65-.09-1.39-5.01.85-5.01.85Z"/>
      <path class="cls-14" d="m547.52,265.57s-2.95-1.21-4.75-1.14c-1.81.07-4.79,3.11-4.79,3.11,0,0,3.15,1.65,5.34,1.46,2.18-.19,4.17-2.51,4.17-2.51,0,0,3.29,1.34,3.54.58.25-.76-2.9-1.01-2.9-1.01,0,0,3.28-.97,2.98-1.99-.31-1.02-3.58,1.5-3.58,1.5Z"/>
    </g>
    <g>
      <path class="cls-6" d="m630.12,210.4s-50.21-27.16-94.94-27.16c-29.1,0-104.01,17.82-125.72,19.37-64.28,4.61-185.7,7.79-185.7,7.79h406.36Z"/>
      <path class="cls-12" d="m223.76,210.4s56.87-19.73,87.23-19.73c32.3,0,54.8,4.09,98.47,10.78,16.62,2.55,127,8.95,127,8.95H223.76Z"/>
    </g>
    <g>
      <g>
        <polygon class="cls-6" points="512.28 116.97 513.84 116.97 514.67 189.09 511.73 189.09 512.28 116.97"/>
        <polygon class="cls-6" points="499.81 129.54 499.81 128.66 513.07 128.19 513.07 129.85 499.81 129.54"/>
        <polygon class="cls-6" points="503.17 138.7 503.17 137.82 513.07 137.35 513.07 139.01 503.17 138.7"/>
      </g>
      <g>
        <polygon class="cls-6" points="467.51 141.09 469.06 141.09 469.89 189.09 466.95 189.09 467.51 141.09"/>
        <g>
          <polygon class="cls-6" points="460.87 157.39 460.87 156.7 468.29 156.34 468.29 157.63 460.87 157.39"/>
          <polygon class="cls-6" points="462.75 152.97 462.75 152.29 468.29 151.92 468.29 153.22 462.75 152.97"/>
          <polygon class="cls-6" points="475.71 157.39 475.71 156.7 468.29 156.34 468.29 157.63 475.71 157.39"/>
          <polygon class="cls-6" points="473.83 152.97 473.83 152.29 468.29 151.92 468.29 153.22 473.83 152.97"/>
        </g>
      </g>
      <g>
        <polygon class="cls-6" points="517.83 147.25 517.83 146.37 531.09 145.9 531.09 147.56 517.83 147.25"/>
        <polygon class="cls-6" points="521.19 154.04 521.19 153.15 531.09 152.68 531.09 154.35 521.19 154.04"/>
        <rect class="cls-6" x="530.93" y="149.28" width="49.21" height="41.37" transform="translate(1111.07 339.93) rotate(180)"/>
        <rect class="cls-6" x="528.97" y="145.9" width="53.13" height="3.39" transform="translate(1111.07 295.18) rotate(180)"/>
        <g>
          <polygon class="cls-6" points="545.96 190.65 546.51 190.65 546.51 153.79 558.94 153.79 558.94 190.65 559.48 190.65 559.48 153.25 545.96 153.25 545.96 190.65"/>
          <g>
            <rect class="cls-5" x="561.77" y="153.52" width="11.61" height="25.54" transform="translate(1135.15 332.57) rotate(180)"/>
            <rect class="cls-5" x="530.93" y="153.52" width="12.81" height="25.54" transform="translate(1074.67 332.57) rotate(180)"/>
            <rect class="cls-5" x="547.9" y="155.16" width="9.65" height="23.9" transform="translate(1105.44 334.21) rotate(180)"/>
            <rect class="cls-5" x="575.55" y="153.52" width="4.59" height="25.54" transform="translate(1155.69 332.57) rotate(180)"/>
          </g>
          <g>
            <polygon class="cls-14" points="575.55 154.97 575.55 161.15 580.14 165.74 580.14 159.56 575.55 154.97"/>
            <polygon class="cls-14" points="567.92 153.52 573.38 158.98 573.38 153.52 567.92 153.52"/>
            <polygon class="cls-14" points="530.93 171.69 530.93 177.87 532.12 179.06 538.3 179.06 530.93 171.69"/>
            <polygon class="cls-14" points="570.71 179.06 561.77 170.11 561.77 176.29 564.53 179.06 570.71 179.06"/>
            <polygon class="cls-14" points="547.9 156.24 547.9 162.42 557.54 172.07 557.54 165.89 547.9 156.24"/>
            <polygon class="cls-14" points="538.99 153.52 543.74 158.27 543.74 153.52 538.99 153.52"/>
            <polygon class="cls-14" points="580.14 174.82 575.55 170.23 575.55 173.21 580.14 177.8 580.14 174.82"/>
            <polygon class="cls-14" points="561.77 156.44 561.77 159.42 573.38 171.04 573.38 168.06 561.77 156.44"/>
            <polygon class="cls-14" points="557.5 155.16 557.54 155.2 557.54 155.16 557.5 155.16"/>
            <polygon class="cls-14" points="552.11 179.06 547.9 174.85 547.9 177.82 549.13 179.06 552.11 179.06"/>
            <polygon class="cls-14" points="530.93 157.88 530.93 160.86 543.74 173.67 543.74 170.69 530.93 157.88"/>
            <polygon class="cls-14" points="575.66 153.52 580.14 157.99 580.14 157.15 576.51 153.52 575.66 153.52"/>
            <polygon class="cls-14" points="557.54 175.98 547.9 166.33 547.9 167.17 557.54 176.82 557.54 175.98"/>
            <polygon class="cls-14" points="534.24 153.52 543.74 163.02 543.74 162.17 535.09 153.52 534.24 153.52"/>
          </g>
        </g>
      </g>
      <g>
        <g>
          <rect class="cls-6" x="442.5" y="176.78" width="2.16" height="7.17" transform="translate(-35.15 190.87) rotate(-23.38)"/>
          <rect class="cls-6" x="451.85" y="176.78" width="2.16" height="7.17" transform="translate(-34.38 194.59) rotate(-23.39)"/>
          <rect class="cls-6" x="461.29" y="176.76" width="2.16" height="7.6" transform="translate(-33.68 198.35) rotate(-23.39)"/>
          <rect class="cls-6" x="470.69" y="176.75" width="2.16" height="7.86" transform="translate(-32.96 202.11) rotate(-23.39)"/>
          <rect class="cls-6" x="480.45" y="176.6" width="2.16" height="8.65" transform="translate(-29.65 238.35) rotate(-27)"/>
          <rect class="cls-6" x="441.13" y="176.04" width="39.34" height="2.16"/>
        </g>
        <g>
          <path class="cls-6" d="m444.25,184.19l9.45,25.32h127.72s14.62-12.3,31.74-33.34c0,0-25.91-.04-168.91,8.02Z"/>
          <path class="cls-7" d="m600.53,190.73c-11.1,12.03-19.11,18.77-19.11,18.77h-127.72l-5.36-14.35c16.5-.79,100.19-5.16,152.19-4.42Z"/>
          <path class="cls-7" d="m453.01,207.66l.69,1.84h127.73s14.61-12.3,31.72-33.33c-.64.62-21.38,20.2-53.74,25.4-26.17,4.2-80.83,5.66-106.39,6.09Z"/>
        </g>
        <path class="cls-6" d="m444.35,185.26c35.57-3.35,167.52-7.97,168.85-8.02l-.07-2.16c-1.33.05-133.34,4.68-168.98,8.03l.2,2.15Z"/>
        <g>
          <rect class="cls-6" x="609.68" y="172.06" width="7.17" height="2.16" transform="translate(210.84 667.23) rotate(-66.6)"/>
          <rect class="cls-6" x="600.32" y="172.06" width="7.17" height="2.16" transform="translate(205.23 658.67) rotate(-66.61)"/>
          <rect class="cls-6" x="590.67" y="172.26" width="7.6" height="2.16" transform="translate(199.36 650.13) rotate(-66.61)"/>
          <rect class="cls-6" x="581.14" y="172.38" width="7.86" height="2.16" transform="translate(193.57 641.57) rotate(-66.61)"/>
          <rect class="cls-6" x="570.98" y="172.63" width="8.65" height="2.16" transform="translate(159.25 607.36) rotate(-62.99)"/>
          <rect class="cls-6" x="576.37" y="168.82" width="39.34" height="2.16"/>
        </g>
        <polygon class="cls-6" points="609.41 176.83 613.38 176.83 618.51 164.39 616.97 164.39 609.41 176.83"/>
        <g>
          <path class="cls-6" d="m481.6,189.76c0-3.52,2.86-6.38,6.38-6.38s6.38,2.86,6.38,6.38-2.86,6.38-6.38,6.38-6.38-2.86-6.38-6.38Zm3.79,0c0,1.43,1.16,2.59,2.59,2.59s2.59-1.16,2.59-2.59-1.16-2.59-2.59-2.59-2.59,1.16-2.59,2.59Z"/>
          <rect class="cls-6" x="486.9" y="181.48" width="2.16" height="5.83"/>
        </g>
        <g>
          <path class="cls-6" d="m503.91,189.2c0-3.52,2.86-6.38,6.38-6.38s6.38,2.86,6.38,6.38-2.86,6.38-6.38,6.38-6.38-2.86-6.38-6.38Zm3.79,0c0,1.43,1.16,2.59,2.59,2.59s2.59-1.16,2.59-2.59-1.16-2.59-2.59-2.59-2.59,1.16-2.59,2.59Z"/>
          <rect class="cls-6" x="509.21" y="180.92" width="2.16" height="5.83"/>
        </g>
      </g>
      <g>
        <rect class="cls-6" x="529.94" y="110.24" width=".54" height="44.42" transform="translate(87.89 453.41) rotate(-49.99)"/>
        <rect class="cls-6" x="464.97" y="130.8" width="51.68" height=".54" transform="translate(.12 262.61) rotate(-29.96)"/>
        <polygon class="cls-6" points="468.47 157.84 513.17 118.56 536.82 146.9 537.24 146.56 513.23 117.78 468.11 157.43 468.47 157.84"/>
        <rect class="cls-6" x="433.31" y="160.28" width="42.93" height=".54" transform="translate(41.73 409.53) rotate(-50.53)"/>
        <rect class="cls-6" x="438" y="167.11" width="33.42" height=".54" transform="translate(-12.32 296.44) rotate(-35.66)"/>
        <rect class="cls-6" x="535.22" y="143.3" width="6.95" height=".54" transform="translate(-14.71 210.98) rotate(-21.87)"/>
        <rect class="cls-6" x="531.02" y="138.46" width="5.63" height=".54" transform="translate(-13.49 206.99) rotate(-21.68)"/>
        <rect class="cls-6" x="526.87" y="133.64" width="4.24" height=".54" transform="translate(-8.82 226.26) rotate(-23.95)"/>
        <rect class="cls-6" x="523" y="129.2" width="3.1" height=".54" transform="translate(-10.69 203.19) rotate(-21.71)"/>
        <rect class="cls-6" x="519.44" y="125.1" width="1.96" height=".54" transform="translate(-8.39 208.52) rotate(-22.48)"/>
        <rect class="cls-6" x="516.6" y="121.82" width="1.05" height=".54" transform="translate(-4 225.77) rotate(-24.54)"/>
      </g>
    </g>
  </g>
  <g id="Boat">
    <g>
      <g>
        <polygon class="cls-16" points="234.42 21.84 230.98 21.84 229.15 181 235.64 181 234.42 21.84"/>
        <polygon class="cls-16" points="261.95 49.59 261.95 47.64 232.69 46.6 232.69 50.28 261.95 49.59"/>
        <polygon class="cls-16" points="254.54 69.8 254.54 67.85 232.69 66.82 232.69 70.5 254.54 69.8"/>
      </g>
      <g>
        <polygon class="cls-16" points="333.24 75.09 329.8 75.09 327.97 181 334.46 181 333.24 75.09"/>
        <g>
          <polygon class="cls-16" points="347.88 111.05 347.88 109.53 331.51 108.72 331.51 111.58 347.88 111.05"/>
          <polygon class="cls-16" points="343.73 101.3 343.73 99.78 331.51 98.98 331.51 101.84 343.73 101.3"/>
          <polygon class="cls-16" points="315.14 111.05 315.14 109.53 331.51 108.72 331.51 111.58 315.14 111.05"/>
          <polygon class="cls-16" points="319.29 101.3 319.29 99.78 331.51 98.98 331.51 101.84 319.29 101.3"/>
        </g>
      </g>
      <g>
        <polygon class="cls-16" points="222.19 88.67 222.19 86.72 192.93 85.68 192.93 89.36 222.19 88.67"/>
        <polygon class="cls-16" points="214.77 103.65 214.77 101.7 192.93 100.66 192.93 104.34 214.77 103.65"/>
        <rect class="cls-6" x="84.67" y="93.16" width="108.6" height="91.29"/>
        <rect class="cls-16" x="80.35" y="85.68" width="117.25" height="7.48"/>
        <g>
          <polygon class="cls-10" points="160 184.45 159 184.45 159 103 131.37 103 131.37 184.45 130.37 184.45 130.37 102 160 102 160 184.45"/>
          <g>
            <rect class="cls-9" x="99.6" y="102.5" width="25.63" height="56.36"/>
            <rect class="cls-9" x="165" y="102.5" width="28.27" height="56.36"/>
            <rect class="cls-9" x="134.54" y="106.12" width="21.29" height="52.74"/>
            <rect class="cls-9" x="84.67" y="102.5" width="10.13" height="56.36"/>
          </g>
          <g>
            <polygon class="cls-2" points="94.8 105.71 94.8 119.35 84.68 129.48 84.68 115.84 94.8 105.71"/>
            <polygon class="cls-2" points="111.66 102.5 99.6 114.56 99.6 102.5 111.66 102.5"/>
            <polygon class="cls-2" points="193.27 142.6 193.27 156.23 190.65 158.86 177.01 158.86 193.27 142.6"/>
            <polygon class="cls-2" points="105.49 158.86 125.22 139.12 125.22 152.76 119.12 158.86 105.49 158.86"/>
            <polygon class="cls-2" points="155.83 108.52 155.83 122.15 134.54 143.44 134.54 129.81 155.83 108.52"/>
            <polygon class="cls-2" points="175.48 102.5 165 112.98 165 102.5 175.48 102.5"/>
            <polygon class="cls-2" points="84.68 149.51 94.8 139.38 94.8 145.96 84.68 156.08 84.68 149.51"/>
            <polygon class="cls-2" points="125.22 108.96 125.22 115.54 99.6 141.17 99.6 134.59 125.22 108.96"/>
            <polygon class="cls-2" points="134.64 106.12 134.54 106.22 134.54 106.12 134.64 106.12"/>
            <polygon class="cls-2" points="146.54 158.86 155.83 149.57 155.83 156.14 153.11 158.86 146.54 158.86"/>
            <polygon class="cls-2" points="193.27 112.12 193.27 118.7 165 146.97 165 140.4 193.27 112.12"/>
            <polygon class="cls-2" points="94.56 102.5 84.68 112.38 84.68 110.51 92.69 102.5 94.56 102.5"/>
            <polygon class="cls-2" points="134.54 152.06 155.83 130.77 155.83 132.64 134.54 153.93 134.54 152.06"/>
            <polygon class="cls-2" points="185.97 102.5 165 123.47 165 121.61 184.11 102.5 185.97 102.5"/>
          </g>
        </g>
      </g>
      <g>
        <g>
          <rect class="cls-16" x="378.13" y="159.74" width="15.82" height="4" transform="translate(84.36 451.86) rotate(-66.61)"/>
          <rect class="cls-16" x="357.49" y="159.74" width="15.82" height="4" transform="translate(71.92 432.93) rotate(-66.61)"/>
          <rect class="cls-16" x="336.2" y="160.17" width="16.76" height="4" transform="translate(58.96 414.07) rotate(-66.61)"/>
          <rect class="cls-16" x="315.15" y="160.44" width="17.35" height="4" transform="translate(46.18 395.16) rotate(-66.61)"/>
          <rect class="cls-16" x="292.75" y="160.98" width="19.1" height="4" transform="translate(19.81 358.29) rotate(-62.99)"/>
          <rect class="cls-16" x="304.63" y="152.58" width="86.81" height="4"/>
        </g>
        <g>
          <path class="cls-15" d="m384.56,170.18l-20.85,55.87H81.84s-32.26-27.15-70.04-73.58c0,0,57.19-.09,372.75,17.71Z"/>
          <path class="cls-13" d="m39.67,184.63c24.5,26.55,42.17,41.42,42.17,41.42h281.86l11.82-31.66c-36.4-1.74-221.09-11.39-335.85-9.75Z"/>
          <path class="cls-13" d="m365.22,221.99l-1.51,4.06H81.84s-32.25-27.14-70-73.54c1.41,1.36,47.19,44.59,118.59,56.05,57.76,9.27,178.37,12.49,234.79,13.43Z"/>
        </g>
        <path class="cls-16" d="m384.37,172.17c-78.51-7.39-369.7-17.6-372.63-17.7l.14-4c2.93.1,294.24,10.32,372.87,17.71l-.37,3.98Z"/>
        <g>
          <rect class="cls-16" x="9.59" y="137.9" width="4" height="15.82" transform="translate(-56.94 16.59) rotate(-23.39)"/>
          <rect class="cls-16" x="30.23" y="137.9" width="4" height="15.82" transform="translate(-55.25 24.78) rotate(-23.4)"/>
          <rect class="cls-16" x="51.05" y="137.87" width="4" height="16.76" transform="translate(-53.7 33.09) rotate(-23.39)"/>
          <rect class="cls-16" x="71.81" y="137.84" width="4" height="17.35" transform="translate(-52.11 41.35) rotate(-23.39)"/>
          <rect class="cls-16" x="93.34" y="137.51" width="4" height="19.1" transform="translate(-56.39 59.34) rotate(-27.01)"/>
          <rect class="cls-16" x="6.19" y="136.66" width="86.81" height="4"/>
        </g>
        <polygon class="cls-16" points="20.09 153.94 11.32 153.94 0 126.49 3.39 126.49 20.09 153.94"/>
        <g>
          <path class="cls-16" d="m288.06,195.88c-7.39,0-13.4-6.01-13.4-13.4s6.01-13.4,13.4-13.4,13.4,6.01,13.4,13.4-6.01,13.4-13.4,13.4Zm0-19.8c-3.53,0-6.4,2.87-6.4,6.4s2.87,6.4,6.4,6.4,6.4-2.87,6.4-6.4-2.87-6.4-6.4-6.4Z"/>
          <rect class="cls-5" x="286.06" y="164.21" width="4" height="12.85"/>
        </g>
        <g>
          <path class="cls-16" d="m238.82,194.65c-7.39,0-13.4-6.01-13.4-13.4s6.01-13.4,13.4-13.4,13.4,6.01,13.4,13.4-6.01,13.4-13.4,13.4Zm0-19.8c-3.53,0-6.4,2.87-6.4,6.4s2.87,6.4,6.4,6.4,6.4-2.87,6.4-6.4-2.87-6.4-6.4-6.4Z"/>
          <rect class="cls-5" x="236.82" y="162.98" width="4" height="12.86"/>
        </g>
      </g>
      <g>
        <rect class="cls-16" x="145.83" y="55.51" width="98.04" height="1" transform="translate(9.6 138.38) rotate(-40.01)"/>
        <rect class="cls-16" x="281.31" y="-4.05" width="1" height="114.05" transform="translate(95.18 270.67) rotate(-60.04)"/>
        <polygon class="cls-16" points="331.18 111.96 232.45 25.21 180.2 87.84 179.43 87.2 232.34 23.78 232.73 24.12 331.84 111.21 331.18 111.96"/>
        <rect class="cls-16" x="360.83" y="70.65" width="1" height="94.74" transform="translate(7.39 256.63) rotate(-39.47)"/>
        <rect class="cls-16" x="360.98" y="96.2" width="1" height="73.76" transform="translate(42.63 349.21) rotate(-54.34)"/>
        <rect class="cls-16" x="175.64" y="72.87" width="1" height="15.33" transform="translate(35.79 214.01) rotate(-68.13)"/>
        <rect class="cls-16" x="186.35" y="63.66" width="1" height="12.43" transform="translate(52.9 217.7) rotate(-68.32)"/>
        <rect class="cls-16" x="197.05" y="54.56" width="1" height="9.36" transform="translate(63.22 215.74) rotate(-66.05)"/>
        <rect class="cls-16" x="206.86" y="46.02" width="1" height="6.83" transform="translate(84.72 223.8) rotate(-68.29)"/>
        <rect class="cls-16" x="215.96" y="38.22" width="1" height="4.33" transform="translate(96.39 224.96) rotate(-67.52)"/>
        <rect class="cls-16" x="223.23" y="31.98" width="1" height="2.32" transform="translate(100.73 222.94) rotate(-65.48)"/>
      </g>
    </g>
  </g>
  <g id="Birds">
    <g>
      <path class="cls-16" d="m355.06,97.59c.83-.43,1.7-.79,2.58-1.11.9-.3,1.78-.59,2.81-.65.26,0,.53-.01.87.1.08.02.18.08.27.13.07.05.11.08.17.12.11.08.2.16.3.25.38.33.7.68,1.02,1.04.63.71,1.2,1.45,1.76,2.22l-.7-.24c.95-.27,1.89-.47,2.87-.61.49-.06.98-.11,1.5-.11.26,0,.52.01.8.06.13.01.29.07.43.1.14.05.29.13.43.2.49.32.81.7,1.13,1.09.31.39.59.79.85,1.2.51.83.97,1.67,1.34,2.56-.62-.74-1.21-1.48-1.85-2.18-.31-.35-.63-.7-.96-1.01-.33-.31-.68-.62-1.01-.79-.26-.13-.69-.13-1.12-.11-.44.02-.89.1-1.34.18-.9.16-1.82.39-2.71.63l-.44.12-.25-.37c-.52-.74-1.08-1.47-1.64-2.18-.28-.35-.57-.7-.87-1-.07-.07-.15-.15-.22-.21l-.1-.09s0-.02-.04-.03c-.1-.05-.3-.09-.49-.1-.83-.03-1.76.11-2.65.26-.91.15-1.81.34-2.73.51Z"/>
      <path class="cls-16" d="m365.2,125c1.09-.88,2.26-1.65,3.47-2.38,1.23-.7,2.45-1.38,3.94-1.77.38-.09.78-.17,1.31-.11.12,0,.28.06.43.11.12.05.19.09.29.13.19.09.35.18.52.28.65.38,1.23.8,1.81,1.22,1.14.86,2.18,1.79,3.24,2.74l-1.1-.16c1.32-.67,2.64-1.24,4.04-1.73.7-.23,1.41-.45,2.17-.59.38-.07.77-.13,1.19-.15.2-.02.44.01.66.03.23.03.47.11.69.17.82.33,1.4.79,1.98,1.27.57.48,1.09.99,1.6,1.52.99,1.07,1.91,2.17,2.71,3.38-1.12-.91-2.21-1.82-3.35-2.66-.56-.43-1.13-.84-1.71-1.2-.57-.35-1.18-.72-1.71-.86-.42-.11-1.05,0-1.68.17-.63.16-1.28.4-1.92.66-1.28.5-2.56,1.1-3.79,1.71l-.62.31-.48-.46c-.97-.94-2.01-1.85-3.04-2.72-.51-.43-1.04-.86-1.56-1.21-.13-.08-.26-.18-.39-.24l-.18-.1s-.02-.02-.07-.03c-.16-.05-.46-.04-.75,0-1.22.2-2.55.67-3.82,1.16-1.29.48-2.57,1.02-3.87,1.54Z"/>
      <path class="cls-16" d="m593.76,71.03c.75-.56,1.54-1.05,2.36-1.51.84-.44,1.66-.87,2.67-1.1.26-.05.52-.1.88-.05.08,0,.19.04.29.08.08.03.13.06.19.09.13.06.23.13.34.2.43.27.8.56,1.18.85.74.6,1.42,1.24,2.1,1.9l-.73-.13c.9-.42,1.79-.77,2.73-1.07.47-.14.95-.27,1.46-.35.26-.04.52-.07.8-.07.13-.01.29.02.44.03.15.02.31.08.46.13.54.24.92.56,1.3.89.37.33.71.69,1.03,1.05.63.73,1.23,1.49,1.74,2.31-.73-.63-1.44-1.26-2.18-1.85-.36-.3-.73-.59-1.12-.84-.37-.25-.77-.51-1.13-.61-.28-.08-.7-.02-1.13.07-.43.1-.86.24-1.29.4-.86.31-1.73.68-2.57,1.06l-.42.19-.31-.32c-.63-.65-1.3-1.28-1.97-1.88-.33-.3-.67-.6-1.02-.84-.08-.06-.17-.12-.25-.17l-.12-.07s-.01-.02-.05-.02c-.1-.03-.31-.04-.5-.02-.82.1-1.72.39-2.58.69-.87.29-1.74.63-2.62.95Z"/>
      <path class="cls-16" d="m570.77,59.03c.78-1.16,1.67-2.25,2.61-3.3.97-1.03,1.93-2.05,3.24-2.86.34-.2.69-.4,1.22-.5.12-.03.29-.03.44-.03.13,0,.21.03.32.04.21.03.38.07.58.11.74.17,1.41.4,2.09.63,1.34.48,2.61,1.06,3.9,1.66l-1.09.18c1.06-1.03,2.15-1.97,3.35-2.85.6-.43,1.22-.85,1.9-1.21.34-.18.69-.36,1.09-.5.18-.08.43-.12.64-.17.22-.04.48-.03.71-.04.88.08,1.57.34,2.27.62.69.29,1.34.62,1.97.97,1.26.73,2.47,1.51,3.59,2.42-1.34-.53-2.66-1.08-3.99-1.55-.66-.24-1.33-.47-1.99-.64-.65-.17-1.34-.34-1.89-.31-.44.02-1,.32-1.56.66-.56.34-1.1.77-1.63,1.2-1.07.86-2.12,1.81-3.11,2.76l-.5.48-.6-.3c-1.21-.61-2.47-1.17-3.71-1.7-.62-.26-1.25-.51-1.85-.7-.15-.04-.3-.09-.44-.11l-.2-.04s-.02-.02-.07,0c-.16,0-.45.1-.72.22-1.11.55-2.24,1.4-3.31,2.24-1.09.84-2.15,1.74-3.24,2.62Z"/>
      <path class="cls-16" d="m332.41,118.27c.78-1.16,1.67-2.25,2.61-3.3.97-1.03,1.93-2.05,3.24-2.86.34-.2.69-.4,1.22-.5.12-.03.29-.03.44-.03.13,0,.21.03.32.04.21.02.38.07.58.11.74.17,1.41.4,2.09.63,1.34.48,2.61,1.06,3.9,1.66l-1.1.18c1.06-1.03,2.15-1.97,3.35-2.85.6-.43,1.22-.85,1.9-1.21.34-.18.69-.36,1.09-.5.18-.08.43-.12.64-.17.22-.04.48-.03.71-.04.88.08,1.57.34,2.27.62.69.29,1.34.62,1.97.97,1.26.73,2.47,1.51,3.59,2.42-1.34-.53-2.66-1.08-3.99-1.55-.66-.24-1.33-.47-1.99-.64-.65-.17-1.34-.34-1.89-.31-.44.02-1,.32-1.56.66-.56.35-1.1.77-1.63,1.2-1.07.86-2.12,1.81-3.11,2.76l-.5.48-.6-.3c-1.21-.61-2.47-1.17-3.71-1.7-.62-.26-1.25-.51-1.85-.7-.15-.04-.3-.09-.44-.11l-.2-.04s-.02-.02-.07,0c-.16,0-.45.1-.72.22-1.11.55-2.24,1.4-3.31,2.24-1.09.84-2.15,1.74-3.24,2.62Z"/>
    </g>
  </g>
  <g id="Water">
    <g>
      <g>
        <path class="cls-5" d="m2.4,229.2c30.16,0,60.87-8.57,66.57-8.57,3.37,0,52,5.39,82.43,5.39s64.6-7.14,72.36-7.14c10.92,0,57.39,6.8,103.24,6.8s91.79-7.15,103.14-7.15c7.73,0,69.61,10.67,99.52,10.67,28.24,0,58.4-10.67,68.01-10.67,11.27,0,33.55,13.89,54.41,13.89"/>
        <path class="cls-2" d="m2.4,229.1c13.65-.18,27.2-2.02,40.61-4.4,6.71-1.18,13.38-2.59,20.09-3.91,2.48-.45,5.2-1.06,7.79-.75,17.79,1.49,35.78,3.18,53.56,4.16,6.81.36,13.61.72,20.42.88,20.45.54,40.8-1.77,61.05-4.56,6.21-.69,14.29-2.38,20.43-1.96,33.96,3.08,67.94,7.04,102.08,6.57,27.29-.23,54.46-2.91,81.58-5.83,5.94-.56,14.54-1.7,20.51-1.73,6.24.35,14.26,1.69,20.45,2.44,23.63,3.16,47.27,6.74,71.09,7.99,3.35.16,6.82.27,10.17.19,13.56-.25,27.02-2.65,40.33-5.53,6.67-1.42,13.29-3.06,20.07-4.22,3.43-.64,7-.65,10.38.26,16.39,4.52,31.73,13.38,49.09,13.64v.2c-13.78-.02-26.84-5.21-39.62-9.74-6.31-2.19-12.9-4.67-19.63-3.07-20.03,4.15-39.9,9.93-60.57,10.39-13.73.26-27.35-1.28-40.96-2.75-16.83-1.9-33.97-4.36-50.76-6.69-3.36-.43-6.8-.94-10.06-1.12-5.67,0-14.48,1.09-20.28,1.62-54.31,6.66-109.19,6.18-163.51-.02-7.63-.67-15.26-1.64-22.91-1.83-5.13.22-12.62,1.63-17.69,2.31-13.5,2.04-27.05,3.91-40.71,4.78-27.36,1.57-54.65-1.4-81.85-3.74,0,0-10.19-.97-10.19-.97l-2.54-.23c-.43-.04-.85-.07-1.25-.09-2.09-.09-4.08.4-6.19.72-6.7,1.22-13.41,2.55-20.15,3.65-13.37,2.01-27.63,4.07-40.79,3.37h0Z"/>
      </g>
      <g class="cls-8">
        <path class="cls-2" d="m460.64,241.3c10.68-.44,21.4-1.43,31.91-3.39,5.25-.97,10.47-2.12,15.64-3.47,5.51-1.27,12.23-3.62,17.92-3.77,1.24.03,2.92.23,4.15.42,8.6,1.59,16.98,4.11,25.52,5.91,10.44,2.29,21.05,3.87,31.78,4.31-5.37.19-10.75-.04-16.11-.48-13.4-1.13-26.45-4.64-39.55-7.44-5.32-1.37-10.26-.44-15.44.95,0,0-7.81,1.95-7.81,1.95-15.66,3.89-31.91,5.63-48.01,5.03h0Z"/>
        <path class="cls-2" d="m306.27,248.21c10.68-.44,21.4-1.43,31.91-3.39,5.25-.97,10.47-2.12,15.64-3.47,5.51-1.27,12.23-3.62,17.92-3.77,1.24.03,2.92.23,4.15.42,8.6,1.59,16.98,4.11,25.52,5.91,10.44,2.29,21.05,3.87,31.78,4.31-5.37.19-10.75-.04-16.11-.48-13.4-1.13-26.45-4.64-39.55-7.44-5.32-1.37-10.26-.44-15.44.95,0,0-7.81,1.95-7.81,1.95-15.66,3.89-31.91,5.63-48.01,5.03h0Z"/>
        <path class="cls-2" d="m32.16,243c9.54-.6,19-1.97,28.24-4.46,3.78-.84,8.12-2.6,12.06-2.19,5.59.82,10.95,2.6,16.44,3.78,6.2,1.41,12.48,2.46,18.87,2.88-3.2.2-6.41.11-9.62-.09-6.4-.48-12.74-1.8-18.97-3.23-2.96-.6-6.14-1.65-9.11-1.36-6.11,1-12.43,3.14-18.7,3.88-6.37.96-12.83,1.16-19.22.8h0Z"/>
        <path class="cls-2" d="m411.66,237.4c9.54-.6,19-1.97,28.24-4.46,3.78-.84,8.12-2.6,12.06-2.19,5.59.82,10.95,2.6,16.44,3.78,6.2,1.41,12.48,2.46,18.87,2.88-3.2.2-6.41.11-9.62-.09-6.4-.48-12.74-1.8-18.97-3.23-2.96-.6-6.14-1.65-9.11-1.36-6.11,1-12.43,3.14-18.7,3.88-6.37.96-12.83,1.16-19.22.8h0Z"/>
        <path class="cls-2" d="m282.89,237.25c-20.53.47-41.38-1.39-61.18-7.38-4.38-1.28-8.65-2-13.12-.74-6.65,1.61-13.07,4.06-19.74,5.75-13.36,3.74-27.57,4.28-41.18,1.74-4.54-.8-9.02-1.87-13.45-3.08-6.59-1.63-13.02-4.43-19.72-5.23-2.13-.1-4.34.83-6.41,1.47-4.32,1.48-8.66,3-13.11,4.16-8.88,2.33-18.07,3.55-27.23,3.32,9.15-.2,18.24-1.61,26.97-4.23,4.38-1.27,8.65-2.84,12.96-4.41,2.25-.74,4.41-1.73,6.87-1.67,6.95.69,13.41,3.32,20.11,4.94,4.4,1.18,8.84,2.2,13.31,2.96,13.45,2.43,27.22,1.68,40.4-1.79,6.65-1.63,13.12-4.03,19.83-5.6,4.52-1.28,9.5-.42,13.89.98,19.59,6.26,40.21,8.51,60.78,8.82h0Z"/>
      </g>
      <g>
        <path class="cls-3" d="m571.33,296.24c-4.23.41-8.42-.28-12.51-.81-4.03-.57-7.97-1.23-11.88-1.82-11.5-1.75-22.95-2.87-34.64-1.46-8.04.92-15.72,3.16-23.79,4.27-22.11,3.38-40.6-3.92-61.74-4.33-7.26-.04-13.97,1.29-20.95,2.83-7.73,1.65-16.17,3.87-24.49,3.01,0,0,0-.56,0-.56,8-1.06,14.63-4.05,22.08-6.54,12.66-4.47,23.82-5.89,37.82-3.52,7.06,1.14,16.61,3.37,23.58,4.85,7.56,1.6,15.28,3.13,23.25,2.4,12.49-.92,22.83-6.73,35.42-7.7,8.6-.72,17.15.71,25.16,2.56,6.73,1.53,13.31,3.83,19.83,5.64,0,0,1.41.35,1.41.35.47.08.95.17,1.44.27v.56h0Z"/>
        <path class="cls-1" d="m332.66,427.83c-4.23.41-8.42-.28-12.51-.81-4.03-.57-7.97-1.23-11.88-1.82-11.5-1.75-22.95-2.87-34.64-1.46-8.04.92-15.72,3.16-23.79,4.27-22.11,3.38-40.6-3.92-61.74-4.33-7.26-.04-13.97,1.29-20.95,2.83-7.73,1.65-16.17,3.87-24.49,3.01v-.56c8-1.06,14.63-4.05,22.08-6.54,12.66-4.47,23.82-5.89,37.82-3.52,7.06,1.14,16.61,3.37,23.58,4.85,7.56,1.6,15.28,3.13,23.25,2.4,12.49-.92,22.83-6.73,35.42-7.7,8.6-.72,17.15.71,25.16,2.56,6.73,1.53,13.31,3.83,19.83,5.64,0,0,1.41.35,1.41.35.47.08.95.17,1.44.27v.56h0Z"/>
        <path class="cls-3" d="m196.73,272.38c-4.23.41-8.42-.28-12.51-.81-4.03-.57-7.97-1.23-11.88-1.82-11.5-1.75-22.95-2.87-34.64-1.46-8.04.92-15.72,3.16-23.79,4.27-22.11,3.38-40.6-3.92-61.74-4.33-7.26-.04-13.97,1.29-20.95,2.83-7.73,1.65-16.17,3.87-24.49,3.01v-.56c8-1.06,14.63-4.05,22.08-6.54,12.66-4.47,23.82-5.89,37.82-3.52,7.06,1.14,16.61,3.37,23.58,4.85,7.56,1.6,15.28,3.13,23.25,2.4,12.49-.92,22.83-6.73,35.42-7.7,8.6-.72,17.15.71,25.16,2.56,6.73,1.53,13.31,3.83,19.83,5.64l1.41.35c.47.08.95.17,1.44.27v.56h0Z"/>
        <path class="cls-3" d="m647.73,377.58c-4.23.41-8.42-.28-12.51-.81-4.03-.57-7.97-1.23-11.88-1.82-11.5-1.75-22.95-2.87-34.64-1.46-8.04.92-15.72,3.16-23.79,4.27-22.11,3.38-40.6-3.92-61.74-4.33-7.26-.04-13.97,1.29-20.95,2.83-7.73,1.65-16.17,3.87-24.49,3.01v-.56c8-1.06,14.63-4.05,22.08-6.54,12.66-4.47,23.82-5.89,37.82-3.52,7.06,1.14,16.61,3.37,23.58,4.85,7.56,1.6,15.28,3.13,23.25,2.4,12.49-.92,22.83-6.73,35.42-7.7,8.6-.72,17.15.71,25.16,2.56,6.73,1.53,13.31,3.83,19.83,5.64l1.41.35c.47.08.95.17,1.44.27v.56h0Z"/>
        <path class="cls-1" d="m638.46,276.46c-6.28.73-12.71-.61-18.77-1.47,0,0-17.5-2.83-17.5-2.83-5.74-1.01-11.66-1.91-17.64-1.3-8.51.82-15.85,4.18-23.81,6.24-16.57,4.14-33.47.19-49.08-3.78-5.79-1.44-11.45-2.71-17.49-3.7,0,0,0-.56,0-.56,18.39-2.47,36.33,3.61,54.35,4.44,15.11.4,29.98-4.11,44.97-5.69,3.62-.31,7.32-.45,10.94-.2,9.01.72,17.54,3.18,25.66,5.79,2.08.67,4.11,1.37,6.23,1.96.71.22,1.4.35,2.15.53v.56h0Z"/>
        <path class="cls-3" d="m223,399.51c-6.28.73-12.71-.61-18.77-1.47,0,0-17.5-2.83-17.5-2.83-5.74-1.01-11.66-1.91-17.64-1.3-8.51.82-15.85,4.18-23.81,6.24-16.57,4.14-33.47.19-49.08-3.78-5.79-1.44-11.45-2.71-17.49-3.7,0,0,0-.56,0-.56,18.39-2.47,36.33,3.61,54.35,4.44,15.11.4,29.98-4.11,44.97-5.69,3.62-.31,7.32-.45,10.94-.2,9.01.72,17.54,3.18,25.66,5.79,2.08.67,4.11,1.37,6.23,1.96.71.22,1.4.35,2.15.53v.56h0Z"/>
        <path class="cls-3" d="m56.45,296.82c3.92-.9,8.31-.44,12.25.04,3.82.54,7.55,1.14,11.1,2.22,3.49,1.07,6.87,2.6,10.61,3.22,3.71.64,7.62.65,11.32.09,2.62-.4,5.48-1.02,8.03-1.5,4.48-.87,8.59-2.18,13.18-3.2,7.49-1.63,16.33-2.71,24.06-.85v.56c-3.85.96-7.34,1.85-10.77,2.86-3.18.91-7.24,2.23-10.42,3.06-6.43,1.64-13.93,2.88-20.96,2.43-5.03-.42-10.01-1.35-14.91-1.68-3.91-.3-8.07-.1-12.02-.52-3.91-.4-7.56-1.46-11.13-2.55-3.59-1.1-6.78-2.44-10.35-3.63,0,0,0-.56,0-.56h0Z"/>
        <path class="cls-1" d="m503.01,346.71c-3.92.9-8.31.44-12.25-.04-3.82-.54-7.55-1.14-11.1-2.22-3.49-1.07-6.87-2.6-10.61-3.22-3.71-.64-7.62-.65-11.32-.09-2.62.4-5.48,1.02-8.03,1.5-4.48.87-8.59,2.18-13.18,3.2-7.49,1.63-16.33,2.71-24.06.85v-.56c3.85-.96,7.34-1.85,10.77-2.86,3.18-.91,7.24-2.23,10.42-3.06,6.43-1.64,13.93-2.88,20.96-2.43,5.03.42,10.01,1.35,14.91,1.68,3.91.3,8.07.1,12.02.52,3.91.4,7.56,1.46,11.13,2.55,3.59,1.1,6.78,2.44,10.35,3.63,0,0,0,.56,0,.56h0Z"/>
        <path class="cls-1" d="m207.75,334.15c3.92-.9,8.31-.44,12.25.04,3.82.54,7.55,1.14,11.1,2.22,3.49,1.07,6.87,2.6,10.61,3.22,3.71.64,7.62.65,11.32.09,2.62-.4,5.48-1.02,8.03-1.5,4.48-.87,8.59-2.18,13.18-3.2,7.49-1.63,16.33-2.71,24.06-.85v.56c-3.85.96-7.34,1.85-10.77,2.86-3.18.91-7.24,2.23-10.42,3.06-6.43,1.64-13.93,2.88-20.96,2.43-5.03-.42-10.01-1.35-14.91-1.68-3.91-.3-8.07-.1-12.02-.52-3.91-.4-7.56-1.46-11.13-2.55-3.59-1.1-6.78-2.44-10.35-3.63v-.56h0Z"/>
      </g>
    </g>
  </g>
  <g id="Fishes">
    <g>
      <g>
        <path class="cls-15" d="m93.73,271.23c.62.28,12.62-9,20.38-7.74,7.76,1.26,17.48,8.81,18.01,9.12s-4.09,1.75-3.94,1.9c.16.15,2.86-.51,3.27-.25.41.26-10.59,11.25-18.59,10.39-9.77-1.04-19.43-10.63-19.43-10.63,0,0-2.53,7.17-4.71,5.51-2.18-1.66,2.53-6.23,2.53-6.23,0,0-2.57.58-4.33-.5-1.76-1.08-4.46-6.18-3.29-6.78,2.87-1.49,10.09,5.2,10.09,5.2Z"/>
        <g>
          <path class="cls-16" d="m122.87,271.64c-1.93-.87-3.29,2.13-1.36,3,1.93.87,3.29-2.13,1.36-3Z"/>
          <path class="cls-11" d="m114.94,274.11c.09-2.4,3.07-5.77,5.49-7.65.04-.03,0-.09-.04-.06-1.55.96-6.48,4.5-6.26,8.11.17,2.87,4.94,6.61,6.66,7.44.12.06.17-.03.07-.12-1.23-.97-6-5.32-5.91-7.72"/>
        </g>
      </g>
      <g>
        <path class="cls-15" d="m543.23,391.9s-10.69-8.62-18.77-8.39c-8.08.23-16.57,8.24-16.8,8.78-.23.54,4.51,1.28,4.51,1.28,0,0-3.39-.4-3.81.05-.42.45,8.89,7.44,14.67,8.52,5.78,1.07,19.75-8.23,19.75-8.23,0,0,3,5.85,5.39,3.94,1.51-1.21-4.06-4.66-4.06-4.66,0,0,9.93-1.49,8.05-3.78-1.45-1.77-7.01-.9-8.92,2.5Z"/>
        <g>
          <path class="cls-16" d="m515.33,391.93c1.87-1.01,3.44,1.89,1.57,2.9-1.87,1.01-3.44-1.89-1.57-2.9Z"/>
          <path class="cls-11" d="m519.83,400.71c1.16-1.06,5.61-5.73,5.34-8.12-.26-2.39-3.48-5.54-6.02-7.24-.04-.03,0-.09.04-.07,1.62.85,6.78,4.03,6.83,7.64.04,2.88-4.46,6.95-6.11,7.9-.12.07-.18-.02-.08-.11Z"/>
        </g>
      </g>
      <g>
        <path class="cls-15" d="m515.22,251.73s10.27-8.27,18.02-8.05c7.75.22,15.91,7.91,16.13,8.43.22.52-4.33,1.23-4.33,1.23,0,0,3.26-.39,3.66.05.4.43-8.53,7.14-14.08,8.18-5.55,1.03-18.96-7.91-18.96-7.91,0,0-2.88,5.62-5.17,3.78-1.45-1.17,3.9-4.47,3.9-4.47,0,0-9.53-1.43-7.73-3.63,1.39-1.7,6.73-.87,8.57,2.4Z"/>
        <g>
          <path class="cls-16" d="m542,251.76c-1.79-.97-3.3,1.81-1.51,2.78,1.79.97,3.3-1.81,1.51-2.78Z"/>
          <path class="cls-11" d="m537.68,260.19c-1.11-1.01-5.38-5.5-5.13-7.8.25-2.29,3.34-5.32,5.78-6.95.04-.03,0-.09-.04-.06-1.55.82-6.51,3.87-6.56,7.34-.04,2.76,4.28,6.67,5.87,7.58.11.06.17-.02.07-.11Z"/>
        </g>
      </g>
      <g>
        <path class="cls-15" d="m236.89,285.6s15.9-12.81,27.91-12.47c12.01.34,24.64,12.25,24.98,13.05.34.8-6.71,1.91-6.71,1.91,0,0,5.04-.6,5.67.07.62.67-13.21,11.07-21.81,12.66-8.6,1.6-29.36-12.25-29.36-12.25,0,0-4.46,8.7-8.01,5.86-2.25-1.81,6.04-6.93,6.04-6.93,0,0-14.76-2.21-11.98-5.63,2.16-2.64,10.42-1.35,13.27,3.72Z"/>
        <g>
          <path class="cls-16" d="m278.37,285.64c-2.77-1.5-5.11,2.81-2.33,4.31,2.77,1.5,5.11-2.81,2.33-4.31Z"/>
          <path class="cls-11" d="m271.69,298.7c-1.72-1.57-8.34-8.52-7.94-12.08.39-3.55,5.17-8.23,8.95-10.76.06-.04,0-.13-.06-.1-2.41,1.26-10.08,5.99-10.15,11.36-.05,4.28,6.63,10.33,9.09,11.74.17.1.26-.03.11-.17Z"/>
        </g>
      </g>
      <g>
        <path class="cls-15" d="m16.4,302.32s10.27-8.27,18.02-8.05c7.75.22,15.91,7.91,16.13,8.43.22.52-4.33,1.23-4.33,1.23,0,0,3.26-.39,3.66.05.4.43-8.53,7.14-14.08,8.18-5.55,1.03-18.96-7.91-18.96-7.91,0,0-2.88,5.62-5.17,3.78-1.45-1.17,3.9-4.47,3.9-4.47,0,0-9.53-1.43-7.73-3.63,1.39-1.7,6.73-.87,8.57,2.4Z"/>
        <g>
          <path class="cls-16" d="m43.18,302.35c-1.79-.97-3.3,1.81-1.51,2.78,1.79.97,3.3-1.81,1.51-2.78Z"/>
          <path class="cls-11" d="m38.87,310.78c-1.11-1.01-5.38-5.5-5.13-7.8.25-2.29,3.34-5.32,5.78-6.95.04-.03,0-.09-.04-.06-1.55.82-6.51,3.87-6.56,7.34-.04,2.76,4.28,6.67,5.87,7.58.11.06.17-.02.07-.11Z"/>
        </g>
      </g>
      <g>
        <path class="cls-15" d="m557.39,373.08s-3.87-6.24-8.15-6.8c-4.28-.56-12.63,4.08-12.62,4.48.01.4,3.16,7,8.34,9.16,5.18,2.16,12.46-5.41,12.46-5.41,0,0,1.2,2.28,2.55,2,1.35-.29-1.14-2.62-1.14-2.62,0,0,3.27-1.37,2.53-3.2-.43-1.06-2.78.16-3.97,2.38Z"/>
        <g>
          <path class="cls-16" d="m541.29,373.46c1.33.93,2.78-1.13,1.45-2.07-1.33-.93-2.78,1.13-1.45,2.07Z"/>
          <path class="cls-11" d="m544.07,367.53c.68.79,3.26,4.21,2.91,5.77-.36,1.55-2.72,3.39-4.52,4.32-.03.02,0,.06.02.05,1.13-.44,4.78-2.14,5.09-4.52.24-1.9-2.41-4.92-3.43-5.68-.07-.05-.12,0-.06.07Z"/>
        </g>
      </g>
      <g>
        <path class="cls-15" d="m306.32,247.12s-3.87-6.24-8.15-6.8c-4.28-.56-12.63,4.08-12.62,4.48.01.4,3.16,7,8.34,9.16,5.18,2.16,12.46-5.41,12.46-5.41,0,0,1.2,2.28,2.55,2,1.35-.29-1.14-2.62-1.14-2.62,0,0,3.27-1.37,2.53-3.2-.43-1.06-2.78.16-3.97,2.38Z"/>
        <g>
          <path class="cls-16" d="m290.21,247.5c1.33.93,2.78-1.13,1.45-2.07-1.33-.93-2.78,1.13-1.45,2.07Z"/>
          <path class="cls-11" d="m292.99,241.57c.68.79,3.26,4.21,2.91,5.77-.36,1.55-2.72,3.39-4.52,4.32-.03.02,0,.06.02.05,1.13-.44,4.78-2.14,5.09-4.52.24-1.9-2.41-4.92-3.43-5.68-.07-.05-.12,0-.06.07Z"/>
        </g>
      </g>
      <g>
        <path class="cls-15" d="m146.74,342.82s3.87-6.24,8.15-6.8c4.28-.56,12.63,4.08,12.62,4.48-.01.4-3.16,7-8.34,9.16s-12.46-5.41-12.46-5.41c0,0-1.2,2.28-2.55,2-1.35-.29,1.14-2.62,1.14-2.62,0,0-3.27-1.37-2.53-3.2.43-1.06,2.78.16,3.97,2.38Z"/>
        <g>
          <path class="cls-16" d="m162.85,343.2c-1.33.93-2.78-1.13-1.45-2.07,1.33-.93,2.78,1.13,1.45,2.07Z"/>
          <path class="cls-11" d="m160.07,337.26c-.68.79-3.26,4.21-2.91,5.77.36,1.55,2.72,3.39,4.52,4.32.03.02,0,.06-.02.05-1.13-.44-4.78-2.14-5.09-4.52-.24-1.9,2.41-4.92,3.43-5.68.07-.05.12,0,.06.07Z"/>
        </g>
      </g>
      <g>
        <path class="cls-15" d="m441.89,357.5s3.59-4.54,6.99-4.59c3.4-.06,9.53,4.33,9.48,4.65-.05.32-3.1,5.2-7.36,6.43-4.25,1.23-9.27-5.35-9.27-5.35,0,0-1.15,1.68-2.18,1.33-1.03-.35,1.13-1.95,1.13-1.95,0,0-2.44-1.36-1.7-2.73.43-.79,2.16.37,2.89,2.22Z"/>
        <g>
          <path class="cls-16" d="m454.47,359.25c-1.13.61-2.08-1.14-.95-1.75,1.13-.61,2.08,1.14.95,1.75Z"/>
          <path class="cls-11" d="m452.82,354.35c-.61.55-2.93,3-2.79,4.26.14,1.25,1.82,2.9,3.16,3.79.02.01,0,.05-.02.03-.85-.44-3.55-2.11-3.58-4-.02-1.51,2.33-3.64,3.2-4.14.06-.04.09.01.04.06Z"/>
        </g>
      </g>
      <g>
        <g>
          <path class="cls-15" d="m551.56,322.4s-5.92,10.74-11.41,13.04c-5.49,2.3-17.76,1.69-17.76,1.69,0,0,7.23-10.33,13.25-12.17,6.02-1.84,14.71-3.71,14.71-3.71,0,0,2.08-10.09,4.63-9,2.55,1.08-2.83,8.48-2.83,8.48,0,0,7.83-7.23,9.32-4.78,1.49,2.46-9.92,6.45-9.92,6.45Z"/>
          <path class="cls-4" d="m551.56,322.4s-5.92,10.74-11.41,13.04c-5.49,2.3-17.76,1.69-17.76,1.69,0,0,7.23-10.33,13.25-12.17,6.02-1.84,14.71-3.71,14.71-3.71,0,0,2.08-10.09,4.63-9,2.55,1.08-2.83,8.48-2.83,8.48,0,0,7.83-7.23,9.32-4.78,1.49,2.46-9.92,6.45-9.92,6.45Z"/>
        </g>
        <g>
          <path class="cls-15" d="m521.46,324.35s-8.27-1.69-12.72-.08c-4.44,1.61-9.33,7.51-9.32,7.8,0,.29,8.34,1.64,11.72.48,3.38-1.17,10.51-7.25,10.51-7.25,0,0,5.29,2.58,6.16,1.4.87-1.18-4.89-2.01-4.89-2.01,0,0,5.73-2.98,4.88-4.21-.85-1.23-6.34,3.89-6.34,3.89Z"/>
          <path class="cls-4" d="m521.46,324.35s-8.27-1.69-12.72-.08c-4.44,1.61-9.33,7.51-9.32,7.8,0,.29,8.34,1.64,11.72.48,3.38-1.17,10.51-7.25,10.51-7.25,0,0,5.29,2.58,6.16,1.4.87-1.18-4.89-2.01-4.89-2.01,0,0,5.73-2.98,4.88-4.21-.85-1.23-6.34,3.89-6.34,3.89Z"/>
        </g>
        <g>
          <path class="cls-15" d="m484.5,401.24s-7.66-3.55-12.36-3c-4.69.54-10.8,5.16-10.86,5.45-.06.28,7.74,3.52,11.3,3.16,3.56-.36,11.89-4.64,11.89-4.64,0,0,4.55,3.73,5.67,2.78,1.12-.95-4.3-3.08-4.3-3.08,0,0,6.26-1.59,5.72-2.98-.54-1.39-7.06,2.33-7.06,2.33Z"/>
          <path class="cls-4" d="m484.5,401.24s-7.66-3.55-12.36-3c-4.69.54-10.8,5.16-10.86,5.45-.06.28,7.74,3.52,11.3,3.16,3.56-.36,11.89-4.64,11.89-4.64,0,0,4.55,3.73,5.67,2.78,1.12-.95-4.3-3.08-4.3-3.08,0,0,6.26-1.59,5.72-2.98-.54-1.39-7.06,2.33-7.06,2.33Z"/>
        </g>
        <g>
          <path class="cls-15" d="m487.35,310.22s-7.28-4.28-12.01-4.19c-4.72.08-11.25,4.09-11.34,4.36-.09.27,7.36,4.25,10.94,4.25s12.29-3.46,12.29-3.46c0,0,4.17,4.15,5.37,3.32,1.21-.84-3.98-3.49-3.98-3.49,0,0,6.39-.97,5.98-2.41-.41-1.44-7.26,1.63-7.26,1.63Z"/>
          <path class="cls-4" d="m487.35,310.22s-7.28-4.28-12.01-4.19c-4.72.08-11.25,4.09-11.34,4.36-.09.27,7.36,4.25,10.94,4.25s12.29-3.46,12.29-3.46c0,0,4.17,4.15,5.37,3.32,1.21-.84-3.98-3.49-3.98-3.49,0,0,6.39-.97,5.98-2.41-.41-1.44-7.26,1.63-7.26,1.63Z"/>
        </g>
        <g>
          <path class="cls-15" d="m246.69,360.92s7.69-3.49,12.38-2.91c4.69.58,10.76,5.25,10.82,5.53.06.28-7.77,3.46-11.32,3.07-3.56-.38-11.86-4.74-11.86-4.74,0,0-4.58,3.69-5.69,2.73-1.11-.96,4.32-3.05,4.32-3.05,0,0-6.25-1.63-5.7-3.02.55-1.39,7.05,2.38,7.05,2.38Z"/>
          <path class="cls-4" d="m246.69,360.92s7.69-3.49,12.38-2.91c4.69.58,10.76,5.25,10.82,5.53.06.28-7.77,3.46-11.32,3.07-3.56-.38-11.86-4.74-11.86-4.74,0,0-4.58,3.69-5.69,2.73-1.11-.96,4.32-3.05,4.32-3.05,0,0-6.25-1.63-5.7-3.02.55-1.39,7.05,2.38,7.05,2.38Z"/>
        </g>
        <g>
          <path class="cls-15" d="m42.81,371.9s7.69-3.49,12.38-2.91c4.69.58,10.76,5.25,10.82,5.53.06.28-7.77,3.46-11.32,3.07-3.56-.38-11.86-4.74-11.86-4.74,0,0-4.58,3.69-5.69,2.73-1.11-.96,4.32-3.05,4.32-3.05,0,0-6.25-1.63-5.7-3.02.55-1.39,7.05,2.38,7.05,2.38Z"/>
          <path class="cls-4" d="m42.81,371.9s7.69-3.49,12.38-2.91c4.69.58,10.76,5.25,10.82,5.53.06.28-7.77,3.46-11.32,3.07-3.56-.38-11.86-4.74-11.86-4.74,0,0-4.58,3.69-5.69,2.73-1.11-.96,4.32-3.05,4.32-3.05,0,0-6.25-1.63-5.7-3.02.55-1.39,7.05,2.38,7.05,2.38Z"/>
        </g>
        <g>
          <path class="cls-15" d="m537.56,352.22s-4.32-2.86-7.33-2.81c-3,.05-8.57,3.12-8.93,3.7-.36.58,6.37,3.59,8.66,3.17,2.29-.42,7.2-2.95,7.32-3.07.12-.12,3.08,3.77,4.55,2.45,1.47-1.32-3.66-2.92-3.66-2.92,0,0,4.42-1.48,4.03-2.72-.39-1.24-3.42.51-4.65,2.21Z"/>
          <path class="cls-4" d="m537.56,352.22s-4.32-2.86-7.33-2.81c-3,.05-8.57,3.12-8.93,3.7-.36.58,6.37,3.59,8.66,3.17,2.29-.42,7.2-2.95,7.32-3.07.12-.12,3.08,3.77,4.55,2.45,1.47-1.32-3.66-2.92-3.66-2.92,0,0,4.42-1.48,4.03-2.72-.39-1.24-3.42.51-4.65,2.21Z"/>
        </g>
        <g>
          <path class="cls-15" d="m620.4,369.18s-4.32-2.86-7.33-2.81c-3,.05-8.57,3.12-8.93,3.7-.36.58,6.37,3.59,8.66,3.17,2.29-.42,7.2-2.95,7.32-3.07.12-.12,3.08,3.77,4.55,2.45,1.47-1.32-3.66-2.92-3.66-2.92,0,0,4.42-1.48,4.03-2.72-.39-1.24-3.42.51-4.65,2.21Z"/>
          <path class="cls-4" d="m620.4,369.18s-4.32-2.86-7.33-2.81c-3,.05-8.57,3.12-8.93,3.7-.36.58,6.37,3.59,8.66,3.17,2.29-.42,7.2-2.95,7.32-3.07.12-.12,3.08,3.77,4.55,2.45,1.47-1.32-3.66-2.92-3.66-2.92,0,0,4.42-1.48,4.03-2.72-.39-1.24-3.42.51-4.65,2.21Z"/>
        </g>
        <g>
          <path class="cls-15" d="m424.85,372.92s4.18-3.07,7.18-3.17c3-.1,8.71,2.69,9.1,3.25.39.56-6.19,3.9-8.49,3.59-2.31-.3-7.34-2.59-7.46-2.71-.12-.12-2.89,3.91-4.42,2.67-1.53-1.24,3.51-3.1,3.51-3.1,0,0-4.49-1.26-4.16-2.52.33-1.25,3.44.34,4.75,1.97Z"/>
          <path class="cls-4" d="m424.85,372.92s4.18-3.07,7.18-3.17c3-.1,8.71,2.69,9.1,3.25.39.56-6.19,3.9-8.49,3.59-2.31-.3-7.34-2.59-7.46-2.71-.12-.12-2.89,3.91-4.42,2.67-1.53-1.24,3.51-3.1,3.51-3.1,0,0-4.49-1.26-4.16-2.52.33-1.25,3.44.34,4.75,1.97Z"/>
        </g>
        <g>
          <path class="cls-15" d="m292.76,355.05s9.19-1.92,13.57-.85c4.38,1.07,10.04,7.27,10.04,7.27,0,0-9.91,1.47-13.84.51s-10.02-5.45-10.02-5.45c0,0-4.73,2.68-5.45,1.4-.72-1.28,4.57-2.04,4.57-2.04,0,0-6.49-1.96-5.49-3.65,1-1.68,6.61,2.82,6.61,2.82Z"/>
          <path class="cls-4" d="m292.76,355.05s9.19-1.92,13.57-.85c4.38,1.07,10.04,7.27,10.04,7.27,0,0-9.91,1.47-13.84.51s-10.02-5.45-10.02-5.45c0,0-4.73,2.68-5.45,1.4-.72-1.28,4.57-2.04,4.57-2.04,0,0-6.49-1.96-5.49-3.65,1-1.68,6.61,2.82,6.61,2.82Z"/>
        </g>
        <g>
          <path class="cls-15" d="m163.8,315.32s4.06-2.89,6.84-3.42c2.78-.53,8.39,3.05,8.39,3.05,0,0-4.22,3.63-7.61,4.11-3.39.48-7.24-2.35-7.24-2.35,0,0-4.54,3.21-5.18,2.14-.64-1.07,4.06-2.56,4.06-2.56,0,0-5.34-.32-5.24-1.98.11-1.66,5.98,1.02,5.98,1.02Z"/>
          <path class="cls-4" d="m163.8,315.32s4.06-2.89,6.84-3.42c2.78-.53,8.39,3.05,8.39,3.05,0,0-4.22,3.63-7.61,4.11-3.39.48-7.24-2.35-7.24-2.35,0,0-4.54,3.21-5.18,2.14-.64-1.07,4.06-2.56,4.06-2.56,0,0-5.34-.32-5.24-1.98.11-1.66,5.98,1.02,5.98,1.02Z"/>
        </g>
        <g>
          <path class="cls-15" d="m511.5,340.81s-4.93.74-7.3,2.28c-2.37,1.54-3.93,8.01-3.93,8.01,0,0,5.56-.31,8.34-2.32,2.78-2.01,3.58-6.72,3.58-6.72,0,0,5.49-.84,5.21-2.06-.28-1.21-4.7.97-4.7.97,0,0,3.62-3.94,2.4-5.06-1.23-1.12-3.6,4.88-3.6,4.88Z"/>
          <path class="cls-4" d="m511.5,340.81s-4.93.74-7.3,2.28c-2.37,1.54-3.93,8.01-3.93,8.01,0,0,5.56-.31,8.34-2.32,2.78-2.01,3.58-6.72,3.58-6.72,0,0,5.49-.84,5.21-2.06-.28-1.21-4.7.97-4.7.97,0,0,3.62-3.94,2.4-5.06-1.23-1.12-3.6,4.88-3.6,4.88Z"/>
        </g>
        <g>
          <path class="cls-15" d="m286.32,338.61s3.52-1.45,5.68-1.37c2.16.08,5.72,3.71,5.72,3.71,0,0-3.77,1.98-6.37,1.75-2.61-.23-4.98-3-4.98-3,0,0-3.93,1.6-4.22.7-.29-.91,3.46-1.21,3.46-1.21,0,0-3.92-1.16-3.56-2.37.37-1.21,4.28,1.79,4.28,1.79Z"/>
          <path class="cls-4" d="m286.32,338.61s3.52-1.45,5.68-1.37c2.16.08,5.72,3.71,5.72,3.71,0,0-3.77,1.98-6.37,1.75-2.61-.23-4.98-3-4.98-3,0,0-3.93,1.6-4.22.7-.29-.91,3.46-1.21,3.46-1.21,0,0-3.92-1.16-3.56-2.37.37-1.21,4.28,1.79,4.28,1.79Z"/>
        </g>
        <g>
          <path class="cls-15" d="m62.47,388.06s3.52-1.45,5.68-1.37c2.16.08,5.72,3.71,5.72,3.71,0,0-3.77,1.98-6.37,1.75-2.61-.23-4.98-3-4.98-3,0,0-3.93,1.6-4.22.7-.29-.91,3.46-1.21,3.46-1.21,0,0-3.92-1.16-3.56-2.37.37-1.21,4.28,1.79,4.28,1.79Z"/>
          <path class="cls-4" d="m62.47,388.06s3.52-1.45,5.68-1.37c2.16.08,5.72,3.71,5.72,3.71,0,0-3.77,1.98-6.37,1.75-2.61-.23-4.98-3-4.98-3,0,0-3.93,1.6-4.22.7-.29-.91,3.46-1.21,3.46-1.21,0,0-3.92-1.16-3.56-2.37.37-1.21,4.28,1.79,4.28,1.79Z"/>
        </g>
      </g>
    </g>
  </g>
  <g id="Net">
    <g>
      <path class="cls-10" d="m343.66,285.46c-33.27-60.9-16.32-135.22-16.14-135.96l.99-4.19v4.3c0,.63.41,63.45,35.14,98.8l-.71.7c-29.7-30.23-34.5-80.28-35.28-95.19-3.02,16.54-11.67,78.79,16.89,131.06l-.88.48Z"/>
      <g>
        <path class="cls-10" d="m479.53,419.86c-15.53,0-33.56-8.96-46.84-17.18-18.14-11.23-37.84-27.63-52.71-43.85-15.9-17.34-36.15-72.87-36.35-73.43l-.8-2.21,51.96,53.88-.72.69-48.67-50.46c3.97,10.58,21.37,55.64,35.31,70.86,26.61,29.03,77.21,66.8,106.45,59.87,63.7-15.1,102.95-14.16,126.4-13.61,23.6.57,32.44.77,37.29-14.22,1.69-5.24.37-12.18-3.84-20.06-14-26.26-58.12-61.33-125.12-80.46-11.01-3.14-26.15-4.09-40.79-5-16.58-1.03-33.71-2.1-44.8-6.39-44.56-17.24-64.47-25.4-70.82-28.04l50.01,49.34-.7.71-53.75-53.02,2.44,1.05c.17.07,17.24,7.39,73.18,29.04,10.94,4.24,28,5.3,44.5,6.33,14.7.92,29.89,1.86,41,5.04,67.28,19.21,111.62,54.5,125.73,80.95,4.34,8.13,5.69,15.34,3.91,20.84-5.08,15.7-14.79,15.47-38.27,14.91-23.4-.55-62.57-1.49-126.15,13.58-2.52.6-5.15.87-7.86.87Z"/>
        <path class="cls-10" d="m394.09,359.27c-4.14,0-9.51-1.23-15.8-3.7l.37-.93c11.6,4.54,20.13,4.82,22.82.75,2.47-3.74-.37-10.5-7.39-17.63l-.6-.6.82-.23c.48-.13,47.79-13.55,50.41-33.92,2.61-20.32-25.47-31.54-25.75-31.66l.37-.93c.29.11,29.08,11.63,26.38,32.71-2.54,19.78-43.79,32.61-50.33,34.53,6.95,7.27,9.6,14.23,6.93,18.28-1.46,2.22-4.29,3.33-8.21,3.33Z"/>
        <path class="cls-10" d="m429.48,322.64l-.94-.34c3.97-10.92-13.49-21.84-13.67-21.95l-.78-.48.83-.39c6.59-3.13,10.16-7.14,10.61-11.93.65-6.92-5.5-14.04-10.97-18.02l.59-.81c5.95,4.34,12.06,11.59,11.38,18.92-.47,4.96-3.95,9.12-10.38,12.35,3.46,2.3,17.12,12.2,13.33,22.66Z"/>
      </g>
      <g>
        <rect class="cls-10" x="436.48" y="280.84" width="4.95" height=".25" transform="translate(-70.14 392.54) rotate(-44.98)"/>
        <polygon class="cls-10" points="377.98 355.96 377.81 355.79 378.53 355.07 378.71 355.25 377.98 355.96"/>
        <polygon class="cls-10" points="395.46 338.5 395.28 338.32 397.11 336.48 397.29 336.66 395.46 338.5"/>
        <polygon class="cls-10" points="443.14 290.8 442.97 290.63 444.69 288.91 452.09 281.51 452.26 281.68 451.79 282.16 443.14 290.8"/>
        <rect class="cls-10" x="383.63" y="360.52" width="6.72" height=".25" transform="translate(-141.67 379.11) rotate(-44.98)"/>
        <rect class="cls-10" x="397.26" y="336.79" width="26.93" height=".25" transform="translate(-118.22 386.11) rotate(-44.68)"/>
        <polygon class="cls-10" points="445.36 302.45 445.28 302.37 445.14 302.37 445.14 302.31 445.18 302.27 464.53 282.92 464.71 283.1 445.36 302.45"/>
        <polygon class="cls-10" points="391.66 370 391.48 369.82 396.21 365.11 403.13 358.18 423.92 337.4 437.76 323.54 444.69 316.62 458.54 302.76 477.45 283.85 477.63 284.02 465.65 296.02 451.79 309.87 444.87 316.8 431.01 330.64 410.23 351.43 403.3 358.35 391.66 370"/>
        <rect class="cls-10" x="379.8" y="330.54" width="129.76" height=".25" transform="translate(-103.55 411.44) rotate(-45.02)"/>
        <polygon class="cls-10" points="406.36 383.02 406.18 382.84 503.22 285.79 503.4 285.96 500.29 289.09 406.36 383.02"/>
        <polygon class="cls-10" points="414.06 389.16 413.88 388.99 515.31 287.55 515.48 287.72 514.13 289.09 500.27 302.94 486.43 316.8 472.57 330.64 465.65 337.57 458.72 344.49 431.01 372.21 424.08 379.13 414.06 389.16"/>
        <polygon class="cls-10" points="422.04 395.04 421.87 394.86 526.33 290.39 526.51 290.56 521.06 296.02 507.2 309.87 493.36 323.73 479.5 337.57 437.94 379.14 431.01 386.06 422.04 395.04"/>
        <rect class="cls-10" x="408.12" y="347.06" width="150.89" height=".25" transform="translate(-103.86 443.62) rotate(-45)"/>
        <polygon class="cls-10" points="438.94 405.84 438.76 405.66 444.69 399.74 486.25 358.18 493.18 351.26 513.96 330.47 520.89 323.55 547.04 297.38 547.22 297.56 438.94 405.84"/>
        <polygon class="cls-10" points="448.01 410.63 447.83 410.45 451.61 406.66 493.18 365.11 500.1 358.18 520.89 337.4 534.73 323.54 548.59 309.69 556.95 301.32 557.13 301.5 448.01 410.63"/>
        <rect class="cls-10" x="435" y="360.05" width="154.28" height=".25" transform="translate(-104.68 467.63) rotate(-45)"/>
        <polygon class="cls-10" points="468.29 418.06 468.11 417.88 576.3 309.69 576.48 309.87 576.11 310.22 569.55 316.8 555.69 330.64 534.91 351.43 527.98 358.35 486.43 399.92 479.5 406.84 468.29 418.06"/>
        <rect class="cls-10" x="459.04" y="367.01" width="147.68" height=".25" transform="translate(-103.56 484.16) rotate(-44.98)"/>
        <polygon class="cls-10" points="497.85 416.21 497.67 416.03 593.79 319.91 593.97 320.09 590.33 323.72 497.85 416.21"/>
        <rect class="cls-10" x="497.09" y="368.85" width="123.32" height=".25" transform="translate(-97.25 503.19) rotate(-45)"/>
        <polygon class="cls-10" points="531.93 409.83 531.76 409.65 610.92 330.47 611.1 330.64 610.59 331.17 531.93 409.83"/>
        <polygon class="cls-10" points="547.97 407.64 547.79 407.46 548.59 406.67 569.37 385.88 576.3 378.97 597.08 358.18 604.01 351.26 618.23 337.02 618.41 337.2 547.97 407.64"/>
        <polygon class="cls-10" points="563.38 406.09 563.2 405.91 625.66 343.44 625.84 343.62 624.96 344.5 563.38 406.09"/>
        <polygon class="cls-10" points="578.16 405.16 577.98 404.98 632.68 350.28 632.86 350.46 631.89 351.43 611.1 372.21 604.19 379.14 578.16 405.16"/>
        <polygon class="cls-10" points="592.4 404.77 592.22 404.6 639.17 357.65 639.35 357.83 638.81 358.35 618.03 379.14 611.1 386.06 592.4 404.77"/>
        <rect class="cls-10" x="598.03" y="385.14" width="55.11" height=".25" transform="translate(-89.15 555.4) rotate(-45.02)"/>
        <polygon class="cls-10" points="619.75 405.13 619.57 404.95 631.72 392.81 638.63 385.88 649.7 374.83 649.88 375 619.75 405.13"/>
        <rect class="cls-10" x="630.14" y="395.47" width="25.63" height=".25" transform="translate(-91.89 568.47) rotate(-44.84)"/>
        <rect class="cls-10" x="626.68" y="324.01" width=".25" height="44.67" transform="translate(-61.32 544.66) rotate(-45)"/>
        <polygon class="cls-10" points="651.98 385.55 638.63 372.21 624.79 358.35 610.93 344.51 590.15 323.72 577.38 310.94 577.46 310.86 577.45 310.73 577.51 310.73 577.55 310.77 583.4 316.62 604.19 337.4 618.03 351.26 631.89 365.11 645.74 378.97 652.19 385.41 652.19 385.46 652.06 385.47 651.98 385.55"/>
        <rect class="cls-10" x="600.39" y="279.41" width=".25" height="136.7" transform="translate(-70.02 526.48) rotate(-45)"/>
        <polygon class="cls-10" points="641.54 402.82 530.62 291.89 530.8 291.71 641.71 402.65 641.54 402.82"/>
        <rect class="cls-10" x="570.92" y="262.61" width=".25" height="166.77" transform="translate(-77.4 505.12) rotate(-45)"/>
        <polygon class="cls-10" points="616.16 405.09 616.1 405.09 616.05 405.05 496.33 285.31 496.51 285.13 616.23 404.87 616.15 404.96 616.16 405.09"/>
        <rect class="cls-10" x="541.65" y="259.24" width=".25" height="170.4" transform="translate(-84.88 483.97) rotate(-45)"/>
        <polygon class="cls-10" points="588.14 404.82 583.22 399.92 569.37 386.06 555.51 372.21 541.66 358.35 527.8 344.51 486.25 302.94 479.32 296.02 466.57 283.26 466.75 283.08 588.31 404.65 588.14 404.82"/>
        <rect class="cls-10" x="512.82" y="255.78" width=".25" height="175.08" transform="translate(-92.53 463.26) rotate(-45)"/>
        <rect class="cls-10" x="496.27" y="248.02" width=".25" height="185.21" transform="translate(-95.47 450.74) rotate(-45)"/>
        <rect class="cls-10" x="497.11" y="281.68" width=".25" height="147.27" transform="translate(-105.61 455.67) rotate(-45)"/>
        <rect class="cls-10" x="488.74" y="292.68" width=".25" height="136.23" transform="translate(-111.94 451.31) rotate(-45)"/>
        <polygon class="cls-10" points="524.95 410.92 520.89 406.84 507.03 392.99 493.18 379.13 479.32 365.28 472.4 358.35 465.47 351.43 433.47 319.42 433.65 319.25 525.13 410.74 524.95 410.92"/>
        <polygon class="cls-10" points="513.21 413.02 500.1 399.92 486.25 386.06 472.39 372.21 465.47 365.28 451.61 351.43 425.05 324.87 425.23 324.69 513.38 412.84 513.21 413.02"/>
        <polygon class="cls-10" points="501.67 415.34 500.11 413.77 415.86 329.52 416.04 329.34 501.85 415.17 501.67 415.34"/>
        <rect class="cls-10" x="448.16" y="316.03" width=".25" height="119.2" transform="translate(-134.31 427) rotate(-45)"/>
        <polygon class="cls-10" points="478.04 419.42 465.47 406.84 451.61 392.99 444.69 386.06 430.83 372.21 416.99 358.35 403.13 344.51 395.72 337.09 395.9 336.91 478.22 419.25 478.04 419.42"/>
        <rect class="cls-10" x="430.94" y="344.04" width=".25" height="84.15" transform="translate(-146.77 417.9) rotate(-45)"/>
        <polygon class="cls-10" points="433.86 402.95 389.27 358.34 389.47 358.19 389.51 358.24 396.38 365.11 410.23 378.97 424.09 392.81 434.04 402.77 433.86 402.95"/>
      </g>
    </g>
  </g>
</svg>