<?xml version="1.0" encoding="UTF-8"?>
<svg id="Camada_1" data-name="Camada 1" xmlns="http://www.w3.org/2000/svg" viewBox="0 0 149.63 110">
  <defs>
    <style>
      .cls-1 {
        fill: #2a88bd;
      }
    </style>
  </defs>
  <path class="cls-1" d="m54.44,21.69v80.16c0,4.44-3.6,8.04-8.04,8.04h-5.37v-54.47l-8.83,18.7h-9.31l-9.46-19.47v47.19c0,4.44-3.6,8.04-8.04,8.04H0V21.69h13.41l14.01,31.12,13.6-31.12h13.41Z"/>
  <path class="cls-1" d="m100.63,32.59v29.65h-21.56c-12.63,0-17.14-6.57-17.14-12.71,0-7.8,9.62-11.31,18-13.5,2.41-.63,4.81-1.16,6.93-1.58-.52-.06-1.11-.1-1.76-.1h-10.22c-4.64,0-8.4-3.76-8.4-8.4v-3.52h18.62c9.14,0,15.52,4.17,15.53,10.15Zm-4.59,39.15c3.19,3.17,4.55,7.95,4.55,16.01h-6.88c-3.15,0-5.97-1.8-7.47-4.57-.49-.91-1.15-1.46-1.92-1.49-1.84-.08-4.38.75-6.92,1.71v26.52h-5.02c-4.64,0-8.4-3.76-8.4-8.4v-32.83h13.41v.55c2.19-.56,4.57-.96,6.92-.96h.76c2.94-.03,7.4-.06,10.96,3.47Zm-7.33-25.51c-5.37,1.1-10.28,2.51-13.14,3.77.84.18,1.99.32,3.5.32h9.63v-4.09Z"/>
  <path class="cls-1" d="m121.47,78.51v15.37c0,1.42.15,2.25.28,2.71h7.86c1.19,0,1.47-.34,1.68-.59.96-1.13,1.45-3.38,1.63-5.87.31-4.28,3.41-7.83,7.64-8.55l5.28-.9c.45,2.62,2.35,16.08-4.29,23.96-2.96,3.51-7.09,5.36-11.94,5.36h-8.02c-6.54,0-13.53-4.23-13.53-16.12v-56.02c0-10.8,5.77-15.28,11.73-16.01v-.13h10.94c5.11,0,10.23,2.58,13.72,6.92,3.53,4.39,7.09,12.56,4.01,26.55-3.44,15.62-19.23,21.39-26.98,23.32Zm-8.81-66.64c-.65-2.11.73-4.41,3.08-5.13l21.72-6.73,1.18,3.82c.65,2.11-.73,4.41-3.08,5.13l-21.72,6.73-1.18-3.82Zm8.81,25.99v26.7c5.29-1.77,12.37-5.37,13.88-12.25,2.04-9.27.02-13.54-1.36-15.26-1.13-1.41-2.47-1.91-3.26-1.91h-1.87s-7.11.01-7.11.01c-.13.45-.28,1.29-.28,2.71h0Z"/>
</svg>