<?xml version="1.0" encoding="UTF-8"?>
<svg id="Camada_1" data-name="Camada 1" xmlns="http://www.w3.org/2000/svg" viewBox="0 0 526.51 107.89">
  <defs>
    <style>
      .cls-1 {
        fill: #268a8c;
      }
    </style>
  </defs>
  <path class="cls-1" d="m66.44.2v97.84c0,5.42-4.39,9.82-9.82,9.82h-6.56V41.37l-10.78,22.83h-11.37l-11.55-23.76v57.59c0,5.42-4.39,9.82-9.82,9.82H0V.2h16.37l17.1,37.98L50.07.2h16.37Z"/>
  <path class="cls-1" d="m127.75,91.21h54.7v5.83c0,5.82-4.72,10.55-10.54,10.55h-59.97l-.65-18.97c0-7.08-4.6-28.63-9.66-49.79-5.06,21.17-9.66,42.72-9.66,49.79v8.66c0,5.82-4.72,10.54-10.54,10.54h-5.83v-19.21c0-15.91,15.55-75.62,17.32-82.37l1.6-6.11h14.22l1.6,6.11c1.77,6.73,17.22,66.08,17.32,82.22l.09,2.75Zm14.41-11.56h-5.83V.22h24.86c10.86,0,21.83,8.16,21.83,26.39,0,7.67-1.94,13.33-4.91,17.35,1.69,2.41,2.66,5.21,2.66,8.23v16.93c0,5.82-4.72,10.55-10.54,10.55h-5.83v-26.57c-.61-.39-1.89-.88-3.67-.88h-8.01v16.91c0,5.82-4.72,10.55-10.55,10.55Zm10.55-43.83h8.49c1.77,0,5.45,0,5.45-9.22,0-3.01-.53-10.02-5.45-10.02h-8.49v19.24Z"/>
  <path class="cls-1" d="m208.37,33.7v21.96h15.53v5.99c0,4.17-4.09,7.55-9.13,7.55h-6.4v25.11l18.92-.04.02,6c.01,4.17-4.06,7.56-9.1,7.57l-26.21.06V19.86s5.98-2.34,11.63-2.33c3.71,0,9.42,2.82,12.72,2.96,2.78.12,10.96-1.57,10.96-1.57v5.99c0,4.17-4.09,8.79-9.13,8.79h-6.32c-1.22,0-2.39,0-3.49,0Z"/>
  <path class="cls-1" d="m305.34,24.79v-4.98c0-1.82-1.57-3.3-3.49-3.3h-11.77c-.03.96-.03,2.07-.03,2.94v69.2c0,.91,0,1.86,0,2.74h11.8c1.94,0,2.79-.21,3.12-.32.12-.32.37-1.18.37-2.98v-17.37c0-4.8,3.89-8.69,8.69-8.69h7.69v26.06c0,7.35-2.58,19.68-19.87,19.68h-13.67c-2.62,0-9.59,0-12.85-6.5-1.66-3.31-1.66-6.82-1.66-12.63V19.46c0-3.65,0-7.43,1.36-10.88,2.11-5.36,6.9-8.44,13.16-8.44h13.67c10.96,0,19.87,8.83,19.87,19.68v13.66h-7.69c-4.8,0-8.69-3.89-8.69-8.69Z"/>
  <path class="cls-1" d="m438.68,91.51v4.9c0,6.34-5.14,11.48-11.48,11.48h-42.9c-3.66,0-8.97-.44-12.77-4.25-3.84-3.85-3.83-8.67-3.82-11.86v-29.9h-17.18v34.41c0,6.34-5.14,11.48-11.48,11.48h-4.9V11.54c0-6.34,5.14-11.48,11.48-11.48h4.9v45.45h17.18V11.54c0-6.34,5.14-11.48,11.48-11.48h4.9v91.46h54.59Zm-16.91-12.16l-23.86.04V0l8.29.1c.05,0,5.26.06,11.58.06h15.46v4.9c0,6.34-5.14,11.48-11.48,11.48h-3.98c-1.21,0-2.38,0-3.49,0v14.24h15.54v4.9c0,6.34-5.14,11.48-11.48,11.48h-4.06v15.83l18.93-.04v4.9c.02,6.34-5.11,11.49-11.45,11.5Z"/>
  <path class="cls-1" d="m464.09,9.52v98.28h-6.95c-5.21,0-9.43-4.22-9.43-9.43V.09h6.95c5.21,0,9.43,4.22,9.43,9.43Z"/>
  <path class="cls-1" d="m216.58,16.31c-4.61-.71-10.27-2.13-12.96-2-2.98.15-11.63,2.12-11.63,2.12V2.46c4.05-1.61,7.79-2.31,12.28-2.33,2.11,0,9.85,2.96,12.08,2.96,4.14,0,10.96-1.56,10.96-1.56v6.7c-.26,2.95-3.99,9.11-10.72,8.07Z"/>
  <path class="cls-1" d="m526.51,97.01v1.42c0,5.17-4.19,9.37-9.37,9.37h-7.01v-10.79c0-7.13-4.6-30.98-9.67-54.69-5.07,23.72-9.67,47.57-9.67,54.69v1.42c0,5.17-4.19,9.37-9.37,9.37h-7.01v-10.79c0-15.8,15.51-83.01,17.27-90.62l1.47-6.34h14.6l1.47,6.34c1.77,7.61,17.28,74.82,17.27,90.62Z"/>
</svg>